<?xml version="1.0" encoding="utf-8"?>
<!-- Generator: Adobe Illustrator 24.1.0, SVG Export Plug-In . SVG Version: 6.00 Build 0)  -->
<svg version="1.1" id="logo-black" xmlns="http://www.w3.org/2000/svg" xmlns:xlink="http://www.w3.org/1999/xlink" x="0px" y="0px"
	 viewBox="0 0 193.9 343.5" style="enable-background:new 0 0 193.9 343.5;" xml:space="preserve">
<style type="text/css">
	.st0{fill:#FFFFFF;}
</style>
<g id="test-tube_1_">
	<path id="tube_1_" class="st0" d="M40.7,343.5L40.7,343.5c-5,0-9.9-0.9-14.6-2.7C6.4,333.3-4,311.9,1.4,292l-0.2-0.1l1.3-3.4
		L102.6,28.6c1.5-3.8,0.8-13,0.1-18.1c-0.2-1.2-0.2-2.3,0.1-3.4l0.1-0.2c0.1-0.2,0.1-0.4,0.2-0.6c1.6-4.2,6.5-6.3,14.5-6.3
		c9.6,0,22.9,3,36.5,8.2c11.4,4.4,21.8,9.9,29.1,15.4c8.6,6.5,12,12.3,10.1,17.3c-0.1,0.2-0.2,0.4-0.3,0.6l-0.1,0.2
		c-0.5,1-1.2,1.8-2.1,2.5c-4.4,3.9-10.9,10.5-12,13.5L77.5,321.2l-0.2-0.1C70.2,334.8,56.3,343.5,40.7,343.5z M9.4,290.2l-0.3,0.7
		c-6.4,17.2,2.3,36.6,19.5,43.2c3.9,1.5,7.9,2.2,12,2.2c13.9,0,26.2-8.3,31.3-21.3l0.4-0.9l99.6-258.9c2.1-5.6,12-14.5,14-16.3
		l0.2-0.2c0.2-0.1,0.3-0.2,0.3-0.3l0.1-0.1c0.1-0.7-0.8-3.8-7.8-9.2c-6.7-5.1-16.4-10.2-27.3-14.4c-12.6-4.9-25.4-7.8-34-7.8
		c-5.7,0-7.6,1.2-7.9,1.8v0.1c0,0.1,0,0.2,0,0.4v0.1c0.2,1.5,2.1,14.8-0.5,21.7L9.4,290.2z"/>
	<path id="liquid_1_" class="st0" d="M137.5,125.6c0,0-13.8,15.9-26.4,21.6c-12.5,5.6-21.9,4.2-33.2,10.8s-17,15.8-17,15.8
		l-46,119.7c-5,13.5,2.4,29.3,16.1,34.6c13.7,5.3,29.2-1.7,34.5-15.1l0,0L137.5,125.6z M91.2,194.7c2.2-1,4.8,0,5.7,2.2
		c1,2.2,0,4.8-2.2,5.7c-2.2,1-4.8,0-5.7-2.2C88,198.2,89,195.6,91.2,194.7z M72.7,175c1.5-0.6,3.2,0,3.8,1.5c0.6,1.5,0,3.2-1.5,3.8
		s-3.2,0-3.8-1.5C70.6,177.3,71.3,175.6,72.7,175z M52.5,242.7c-2.2,1-4.8,0-5.7-2.2c-1-2.2,0-4.8,2.2-5.7c2.2-1,4.8,0,5.7,2.2
		C55.7,239.2,54.7,241.7,52.5,242.7z M56.5,227c-1.8-4.1,0-8.9,4.1-10.8c4.1-1.8,8.9,0,10.8,4.1c1.8,4.1,0,8.9-4.1,10.8
		C63.1,232.9,58.3,231.1,56.5,227z M66.9,268.5c1.5-0.6,3.2,0,3.8,1.5s0,3.2-1.5,3.8c-1.5,0.6-3.2,0-3.8-1.5
		C64.8,270.9,65.4,269.2,66.9,268.5z"/>
	
		<ellipse id="top_1_" transform="matrix(0.359 -0.9333 0.9333 0.359 69.6011 153.9605)" class="st0" cx="146.9" cy="26.3" rx="7.3" ry="27.8"/>
</g>
</svg>
