<?xml version="1.0" encoding="utf-8"?>
<!-- Generator: Adobe Illustrator 24.1.0, SVG Export Plug-In . SVG Version: 6.00 Build 0)  -->
<svg version="1.1" id="Calque_1" xmlns="http://www.w3.org/2000/svg" xmlns:xlink="http://www.w3.org/1999/xlink" x="0px" y="0px"
	 viewBox="0 0 858.71 404.45" style="enable-background:new 0 0 858.71 404.45;" xml:space="preserve">
<style type="text/css">
	.st0{fill:#E8871E;}
</style>
<g>
	<path class="st0" d="M310.51,237.41c12.82,16.79,19.23,36.22,19.23,58.21c0,33.58-11.1,59.48-33.31,77.68
		c-22.19,18.24-54.06,27.36-95.57,27.36H0V17.32h195.46c38.97,0,69.66,8.5,92.05,25.47c22.36,16.96,33.55,41.68,33.55,74.16
		c0,22.38-5.86,41.24-17.58,56.58c-11.74,15.33-27.34,25.56-46.84,30.58C279.73,209.52,297.69,220.62,310.51,237.41z M120.2,166.78
		h46.55c10.84,0,18.86-2.2,24.1-6.52c5.22-4.32,7.84-11.02,7.84-20.05c0-9.34-2.62-16.3-7.84-20.84c-5.24-4.49-13.26-6.74-24.1-6.74
		H120.2V166.78z M198.96,298.04c5.24-4.14,7.87-10.88,7.87-20.27c0-18.42-10.66-27.63-31.95-27.63H120.2v54.15h54.68
		C185.7,304.3,193.74,302.23,198.96,298.04z"/>
	<path class="st0" d="M490.55,0v400.66h-120.2V0H490.55z"/>
	<path class="st0" d="M706.02,103.68c14.45,8.11,25.47,19.21,33.05,33.31V95.31h119.65v305.35H739.06v-41.68
		c-7.58,14.06-18.59,25.16-33.05,33.31c-14.43,8.11-31.57,12.16-51.42,12.16c-23.84,0-45.32-6.21-64.44-18.68
		c-19.12-12.47-34.19-30.49-45.21-54.15c-11.02-23.62-16.5-51.51-16.5-83.63s5.49-60.01,16.5-83.67
		c11.02-23.62,26.09-41.68,45.21-54.15c19.12-12.43,40.6-18.64,64.44-18.64C674.44,91.52,691.58,95.57,706.02,103.68z M662.7,210.09
		c-8.31,8.99-12.45,21.63-12.45,37.89c0,16.22,4.14,28.86,12.45,37.89c8.31,9.03,18.97,13.53,31.95,13.53
		c13,0,23.64-4.49,31.95-13.53c8.31-9.03,12.47-21.68,12.47-37.89c0-16.26-4.16-28.91-12.47-37.89
		c-8.31-9.03-18.95-13.57-31.95-13.57C681.67,196.52,671.01,201.06,662.7,210.09z"/>
</g>
</svg>
