<?xml version="1.0" encoding="utf-8"?>
<!-- Generator: Adobe Illustrator 24.1.0, SVG Export Plug-In . SVG Version: 6.00 Build 0)  -->
<svg version="1.1" id="Layer_1" xmlns="http://www.w3.org/2000/svg" xmlns:xlink="http://www.w3.org/1999/xlink" x="0px" y="0px"
	 viewBox="0 0 32 32" style="enable-background:new 0 0 32 32;" xml:space="preserve">
<style type="text/css">
	.st0{fill:#111111;}
	.st1{fill:#279AF1;}
	@media (prefers-color-scheme: dark) {
		.st0{fill:#FFFFFF;}
		.st1{fill:#279AF1;}
	}
</style>
<rect class="st0" width="32" height="32"/>
<g>
	<path class="st1" d="M14.9,6v13.6c0,2.1-0.6,3.7-1.8,4.9c-1.2,1.1-2.8,1.7-4.8,1.7c-2.1,0-3.8-0.6-5.1-1.8
		c-1.3-1.2-1.9-2.9-1.9-5.1h4.9c0,0.8,0.2,1.5,0.5,1.9c0.3,0.4,0.8,0.6,1.5,0.6c0.6,0,1-0.2,1.4-0.6c0.3-0.4,0.5-0.9,0.5-1.7V6H14.9
		z"/>
	<path class="st1" d="M19.4,25.6c-1.2-0.5-2.1-1.2-2.8-2.1c-0.7-0.9-1.1-2.1-1.1-3.4h5.2c0.1,0.7,0.3,1.3,0.8,1.7
		c0.4,0.4,1,0.6,1.7,0.6c0.7,0,1.3-0.2,1.7-0.5c0.4-0.3,0.6-0.8,0.6-1.4c0-0.5-0.2-0.9-0.5-1.2c-0.3-0.3-0.7-0.6-1.2-0.8
		c-0.5-0.2-1.2-0.4-2.1-0.7c-1.3-0.4-2.4-0.8-3.2-1.2c-0.8-0.4-1.5-1-2.1-1.8c-0.6-0.8-0.9-1.8-0.9-3.1c0-1.9,0.7-3.3,2-4.4
		c1.4-1.1,3.1-1.6,5.3-1.6c2.2,0,4,0.5,5.3,1.6s2.1,2.5,2.2,4.4h-5.3c0-0.6-0.3-1.2-0.7-1.5c-0.4-0.4-1-0.6-1.7-0.6
		c-0.6,0-1.1,0.2-1.4,0.5c-0.4,0.3-0.5,0.8-0.5,1.4c0,0.6,0.3,1.2,0.9,1.5c0.6,0.4,1.6,0.8,2.9,1.2c1.3,0.4,2.3,0.9,3.2,1.3
		c0.8,0.4,1.5,1,2.1,1.7c0.6,0.8,0.9,1.7,0.9,2.9c0,1.1-0.3,2.2-0.9,3.1c-0.6,0.9-1.4,1.7-2.5,2.2c-1.1,0.6-2.4,0.8-3.9,0.8
		C21.9,26.3,20.6,26,19.4,25.6z"/>
</g>
</svg>
