<?xml version="1.0" encoding="utf-8"?>
<!-- Generator: Adobe Illustrator 20.1.0, SVG Export Plug-In . SVG Version: 6.00 Build 0)  -->
<svg version="1.1" id="Calque_1" xmlns="http://www.w3.org/2000/svg" xmlns:xlink="http://www.w3.org/1999/xlink" x="0px" y="0px"
	 viewBox="0 0 300 300" style="enable-background:new 0 0 300 300;" xml:space="preserve">
<style type="text/css">
	.st0{fill:#09B7E3;}
</style>
<g>
	<path class="st0" d="M258.5,174.1c17.4-3.4,31.5-15.6,31.5-15.6c-14.6,8.7-35.1,7.9-35.1,7.9c18.4-7.5,25.4-19.7,25.4-19.7
		C263.7,162.3,247,160,247,160c14.4-4.4,34.6-19.6,34.6-19.6s-26.1,14.3-45.4,13.7l-4.8-5c16.1-3.2,25-12.2,25-12.2
		s-12.9,8.3-31.4,5.6l-5.2-5c11.4-2.8,29.2-17.8,29.2-17.8s-22.5,13.2-36.4,11.6l-8-5.6c18.2-7.1,24.7-17.8,24.7-17.8
		C216,119.3,199,120,199,120c12.4-7.1,24.8-24.9,24.8-24.9c-22.6,22-36.2,20.3-36.2,20.3c9.7-3.8,22.5-17.1,22.5-17.1
		c-14.4,11-29,13.7-29,13.7c11.9-9.4,15.2-25.9,15.2-25.9s-8.5,21.4-27,24.9l-3.1-0.6c8.9-11.1,11.2-26.9,11.2-26.9
		s-6,16.7-19.9,25.8l-3.2-0.3c7.7-9.8,9-24.6,9-24.6s-3.9,15.6-17.9,20.6h-1.3c8.7-17,7.1-30,7.1-30s-2.7,19.1-13.6,29.6
		c0,0,3.5-12.5,3.5-18c0,0-2.5,10.4-11.6,22.6l-3.9,0.5c5.7-16.5,4.4-26.1,4.4-26.1s-2.5,15.6-12.4,27.5l-4.4,1
		c3.2-12.6,0.7-23.7,0.7-23.7s0.4,10.7-9.4,26.5l-2,0.7c4-10.2,3.1-18.8,3.1-18.8s-1.7,10.1-12.1,22.9L93,120
		c2.9-11.2-1.8-22.6-1.8-22.6s3,17.7-8.1,28.4l-1.4,0.9c0.6-13.5-3.2-21.5-3.2-21.5s0.9,4.5-0.8,13.8c-1.1,5.8-3.3,11.7-4.1,13.6
		l-0.4,0.3c0-6.4-0.9-17.8-0.9-17.8c-4,20.6-7.2,24.1-7.2,24.1c0.2-2.9-2.5-20.4-2.5-20.4c-2.2,23.6-6.8,27.3-6.8,27.3
		c1-3.2-0.3-21.7-0.3-21.7s-1,19.9-8.8,31.8c-2.7,4.2-35.3,27.2-35.3,27.2c11.8-4,25.8-10.4,38.7-18.4c14.4-9,27.4-19.7,36.4-25.4
		c1.4-0.9,2.8-1.7,4.2-2.5c-0.1,0.1-0.2,0.2-0.2,0.3c-2.9,4.6-6.5,13.5-6.5,19.8c0,31.2,25.2,56.6,56.4,56.6s56.4-25.3,56.4-56.6
		c0-7.7-3-15.6-7.5-23.2c-0.1-0.1-0.1-0.2-0.2-0.3c6.4,2.8,12.2,6.2,17.3,10.1c11.7,8.8,27,22.1,38.7,29.8c8.7,5.8,16,7.5,16,7.5
		c-40.5,34.5-80.8,35-111.2,35.9c-25.9,0.8-68.7-9.2-74.2-10.4c-6.9-1.5-14.8-3.6-22.5-4.7c-10.4-1.4-20.5-1.6-26.5-2.5
		c-10.5-1.4-16-6.8-16-8.9s1.9-3.6,1.9-3.6c-7.2,4.6,2.7,11,7.3,13.1c4.7,2.1,9,2.7,28.8,6c19.9,3.2,53.3,18.5,101.2,18.8
		c79.7,0,111.6-43.6,111.6-43.6c10.4,2.8,21.1-0.5,21.1-0.5C267.9,181.2,258.5,174.1,258.5,174.1z M193.7,156.1
		c0,28.4-23.8,51.5-53.1,51.5c-29.3,0-53.1-23-53.1-51.5c0-6.8,1.4-13.3,3.8-19.2c15.6-8.6,32.2-11.7,51.1-12
		c17.4-0.3,32.9,3,45.9,8.6C191.7,140.3,193.7,148,193.7,156.1z"/>
	<path class="st0" d="M140.5,128.2c-16.1,0-29.1,13-29.1,29.1c0,16,13,29.1,29.1,29.1s29.1-13,29.1-29.1
		C169.6,141.2,156.6,128.2,140.5,128.2z M135.9,178.6c-4.3,0-7.8-3.5-7.8-7.8c0-3,1.7-5.6,4.2-6.9c-2.7-0.6-4.7-3-4.7-5.8
		c0-3.3,2.7-5.9,5.9-5.9c3.3,0,5.9,2.7,5.9,5.9c0,2.1-1.1,3.9-2.7,5c3.8,0.5,6.8,3.7,6.8,7.7C143.7,175.1,140.2,178.6,135.9,178.6z
		 M148.9,165.6c-1.4,0-2.6-1.2-2.6-2.6s1.2-2.6,2.6-2.6c1.4,0,2.6,1.2,2.6,2.6S150.3,165.6,148.9,165.6z"/>
</g>
</svg>
