<?xml version="1.0" encoding="utf-8"?>
<!-- Generator: Adobe Illustrator 20.1.0, SVG Export Plug-In . SVG Version: 6.00 Build 0)  -->
<svg version="1.1" id="Calque_1" xmlns="http://www.w3.org/2000/svg" xmlns:xlink="http://www.w3.org/1999/xlink" x="0px" y="0px"
	 viewBox="0 0 300 300" style="enable-background:new 0 0 300 300;" xml:space="preserve">
<style type="text/css">
	.st0{fill:#04B7E3;}
</style>
<path class="st0" d="M226,82c-39.7,0-66,32.5-89.2,61.1c-19.8,24.5-38.5,47.6-61.3,47.6c-23.7,0-38.2-24.3-38.2-41.8
	c0-16.2,16-39.7,41-39.7c24.3,0,36.9,19.4,37.5,20.4c3.9,6.4,12.3,8.4,18.7,4.5c6.4-3.9,8.5-12.3,4.5-18.7
	c-0.8-1.4-20.8-33.4-60.8-33.4C38,82,10,117.3,10,149c0,32.7,26.9,69,65.5,69c35.8,0,59.5-29.3,82.5-57.7c21.2-26.2,41.3-51,68-51
	c15.9,0,26.3,5.4,31.9,16.5c4.8,9.6,4.8,20.5,4.8,24.3c0,2.2-1.1,13-6.4,22.8c-6,11.1-14.6,16.3-27,16.3
	c-24.9,0-38.4-16.2-43.4-22.3c-1.3-1.6-2.3-2.7-3.5-3.8c-5.7-4.9-14.3-4.2-19.2,1.5c-4.7,5.5-4.3,13.7,0.9,18.7
	c0.2,0.3,0.5,0.6,0.9,1.1c6.6,7.9,26.7,32.1,64.4,32.1c45.8,0,60.7-44.7,60.7-66.5c0-13.9-2.6-26.1-7.7-36.3
	C275,99.1,259.4,82,226,82L226,82z M226,82"/>
</svg>
