<?xml version="1.0" encoding="utf-8"?>
<!-- Generator: Adobe Illustrator 20.1.0, SVG Export Plug-In . SVG Version: 6.00 Build 0)  -->
<svg version="1.1" id="Calque_1" xmlns="http://www.w3.org/2000/svg" xmlns:xlink="http://www.w3.org/1999/xlink" x="0px" y="0px"
	 viewBox="0 0 1000 1000" style="enable-background:new 0 0 1000 1000;" xml:space="preserve">
<style type="text/css">
	.st0{display:none;fill:#FFFFFF;}
	.st1{fill:#FFFFFF;}
</style>
<path class="st0" d="M975,477.1c0,21.6-7.5,39.8-22.6,54.9l-397,397.6c-15.9,15-34.4,22.6-55.5,22.6c-21.6,0-39.8-7.5-54.9-22.6
	L48.2,532C32.7,517.4,25,499.1,25,477.1c0-21.5,7.7-40,23.2-55.5l45.1-45.7c15.9-15,34.3-22.6,55.5-22.6c21.5,0,39.8,7.5,54.9,22.6
	l179.3,179.3V125.9c0-21.1,7.7-39.4,23.2-54.9c15.4-15.4,33.7-23.2,54.9-23.2h78c21.1,0,39.4,7.7,54.9,23.2
	c15.4,15.5,23.2,33.7,23.2,54.9v429.3l179.3-179.3c15-15,33.3-22.6,54.9-22.6c21.1,0,39.6,7.5,55.5,22.6l45.7,45.7
	C967.5,437.5,975,456,975,477.1z"/>
<path class="st1" d="M975,526.2c0,20.7-7.5,39-22.6,54.9l-45.7,45.7c-15.5,15.5-33.9,23.2-55.5,23.2c-22,0-40.2-7.7-54.9-23.2
	L617.1,448.2v429.3c0,21.1-7.6,38.3-22.9,51.5c-15.2,13.2-33.6,19.8-55.2,19.8h-78c-21.6,0-39.9-6.6-55.2-19.8
	c-15.2-13.2-22.9-30.4-22.9-51.5V448.2L203.7,626.8C189,642.3,170.7,650,148.8,650c-22,0-40.2-7.7-54.9-23.2l-45.7-45.7
	C32.7,565.7,25,547.4,25,526.2c0-21.5,7.7-40,23.2-55.5l397-397c14.2-15,32.5-22.6,54.9-22.6c22,0,40.4,7.5,55.5,22.6l397,397
	C967.5,486.6,975,505.1,975,526.2z"/>
</svg>
