<?xml version="1.0" encoding="utf-8"?>
<!-- Generator: Adobe Illustrator 20.1.0, SVG Export Plug-In . SVG Version: 6.00 Build 0)  -->
<svg version="1.1" id="Calque_1" xmlns="http://www.w3.org/2000/svg" xmlns:xlink="http://www.w3.org/1999/xlink" x="0px" y="0px"
	 viewBox="0 0 200.1 226.8" style="enable-background:new 0 0 200.1 226.8;" xml:space="preserve">
<style type="text/css">
	.st0{fill:#FFFFFF;}
</style>
<g>
	<g>
		<path class="st0" d="M165.5,118.1c-2.1-1.6-6.2-2.4-12.3-2.4c-1.1,0-2.8,0-5.2,0V146h4c7.1,0,11.7-0.8,13.8-2.6
			c2.4-2,3.6-6.5,3.6-13.5C169.5,124,168.2,120,165.5,118.1z"/>
		<path class="st0" d="M164.3,111.2c2.1-2.1,3.2-5.6,3.2-10.6c0-6.1-1.2-10.1-3.6-12c-2-1.6-6.1-2.5-12.3-2.5h-3.5v28.1h5.7
			C158.7,114.3,162.2,113.3,164.3,111.2z"/>
		<path class="st0" d="M102,30c-0.7,0-1.3,0-2,0c-4.6,8.3-8.2,15.9-13.2,27.2c-2.8,6.3-6.4,13.6-7,19.1c-0.4,3.4,4.5,7.6,5.7,11.7
			c3.5,11.7-14.1,33.1-24,29.3l0.4-1l-0.4,1c-9.9-3.8-8.8-31.4,1.6-37.8c3.6-2.2,10-2.1,12-4.9c3.2-4.5,5.4-12.3,7.5-18.9
			c3.2-10,5.4-17.2,7.2-24.8c-31.2,4.4-57.1,25.4-68.4,53.7h17.7V146h11c4,0,7.8-2.2,11.3-6.5c3-3.8,4.9-7.8,5.6-12.1h1.6v20.2H28
			V86.2h-7.1c-3.6,9.5-5.5,19.7-5.5,30.4c0,47.8,38.8,86.6,86.6,86.6c47.8,0,86.6-38.8,86.6-86.6C188.7,68.8,149.9,30,102,30z
			 M155.1,147.6h-18.4h-17.2l-6.7-19.7H94.2l-5,15.3c-2.5,7.2-5.6,10.5-9.4,9.9c-1.5-0.3-2.8-1-3.8-1.9c-1-1-1.4-2.2-1.1-3.5
			c0.2-1.3,0.9-2.4,2-3.2c1.1-0.8,2.3-1.1,3.7-0.8c1.2,0.2,2.4,1,3.8,2.5c0.5,0.1,1.1-0.4,1.9-1.4c0.6-0.8,1-1.6,1.2-2.3
			c4.1-11.9,10.7-31.1,19.8-57.7h1.9l21.5,61.4h6.2V86.2h-6.9v-1.6h28.6c4.8,0,9.2,1.2,13.1,3.7c4.5,2.8,6.8,6.5,6.8,11
			c0,8.7-5.2,13.8-15.5,15.3c5.2,0.7,9.4,2.3,12.5,4.6c4,2.9,5.9,6.7,5.9,11.5C181.4,141.9,172.6,147.6,155.1,147.6z"/>
		<path class="st0" d="M69.2,109.6c-0.5,0.4-0.8,0.8-0.7,1.1c0,0.1,0.1,0.2,0.2,0.3c8.3-5.9,12.1-12,11.5-18.4
			c-0.6-6.3-3.4-9.3-8.4-8.9c-1.8,0.2-3.1,0.9-4,2.2c-0.9,1.3-1.3,2.9-1.1,4.7c0.1,1.6,0.8,2.9,1.8,3.9c1.1,1,2.4,1.5,3.9,1.3
			c0.4,0,0.9-0.2,1.5-0.5c0.6-0.3,1-0.5,1.2-0.5c0.2,0,0.4,0,0.6,0.1c0.3,0.4,0.4,0.8,0.5,1.2c0.2,2.5-0.3,5-1.5,7.3
			C73.5,105.9,71.7,107.9,69.2,109.6z"/>
	</g>
	<g>
		<path class="st0" d="M15.5,61.6c0.9,0.6,1.5,0.9,1.8,0.8c0.2,0,0.4-0.2,0.6-0.4c0.2-0.2,0.5-0.7,1.1-1.5l1.4-2.1
			c0.7-1.1,1.1-1.9,1-2.5c0-0.6-0.5-1.1-1.4-1.7c-0.2-0.2-0.5-0.3-0.8-0.5c-0.6-0.4-1-0.6-1.1-0.7c-0.7-0.5-0.8-1-0.5-1.5
			c0.4-0.7,1-0.8,1.6-0.4c0.2,0.1,0.3,0.2,0.4,0.3l1.1,1c0.3,0.3,0.7,0.6,1,0.8c0.2,0.1,0.6,0.3,1,0.6c0.5,0.3,0.8,0.5,1,0.6
			c0.7,0.5,0.8,1.1,0.3,1.9c-0.1,0.2-0.4,0.5-0.8,1c-0.3,0.4-0.7,0.9-1.3,1.7l-1.2,1.8l-2.5,3.8c-0.3,0.4-0.6,1-1.2,2
			c-0.1,0.1-0.2,0.4-0.4,0.7c-0.2,0.3-0.3,0.6-0.4,0.8c-0.4,0.7-1,0.8-1.5,0.4c-0.5-0.3-0.6-0.8-0.3-1.2c0.1-0.1,0.2-0.3,0.5-0.5
			c0.2-0.2,0.4-0.4,0.5-0.5c0.5-0.8,0.2-1.6-1-2.4L5,57.5c-1.2-0.8-2-0.8-2.6,0c-0.1,0.2-0.2,0.4-0.3,0.5c-0.1,0.3-0.2,0.5-0.4,0.7
			c-0.1,0.2-0.3,0.3-0.6,0.4c-0.2,0-0.5,0-0.7-0.2c-0.6-0.4-0.6-0.9-0.2-1.6c0.1-0.1,0.2-0.2,0.3-0.3l1-1.2c0.5-0.6,0.9-1.1,1.2-1.5
			C3,54,3.3,53.4,3.6,52.8l0.6-1.2c0.1-0.1,0.1-0.2,0.2-0.3c0.5-0.7,1-0.9,1.6-0.5c0.2,0.2,0.4,0.3,0.4,0.6c0.1,0.2,0,0.5-0.1,0.7
			c-0.1,0.2-0.3,0.4-0.5,0.6c-0.1,0.1-0.2,0.2-0.4,0.5c-0.5,0.8-0.2,1.6,0.9,2.4L15.5,61.6z"/>
		<path class="st0" d="M14.5,43.1c-0.2-0.2-0.5-0.2-0.7,0.1l-0.4,0.4c-0.3,0.3-0.6,0.4-1.1,0.4c-0.4,0-0.8-0.1-1.2-0.4
			c-0.4-0.3-0.6-0.8-0.7-1.3c0-0.5,0.1-1,0.5-1.5c0.4-0.5,1-0.7,1.6-0.7c0.7,0,1.3,0.3,2,0.8c1.2,1,2,2.5,2.5,4.4
			c0.2,0.7,0.1,1.2-0.1,1.4c-0.2,0.3-0.5,0.3-0.8,0.1c-0.1-0.1-0.2-0.3-0.3-0.7c-0.1-0.6-0.3-1.2-0.6-1.8
			C15,43.7,14.8,43.3,14.5,43.1z"/>
		<path class="st0" d="M35,40.2l-2.7-1.3c-0.3-0.1-0.5-0.2-0.7-0.2c-0.1,0-0.3,0.2-0.6,0.4l-3.7,3.5c-0.3,0.3-0.4,0.5-0.4,0.7
			c0,0.2,0.1,0.6,0.3,1.2l0.9,2.2c0.1,0.2,0.2,0.4,0.3,0.5c0.4,0.4,0.9,0.4,1.4-0.1c0.1-0.1,0.3-0.3,0.5-0.6
			c0.2-0.3,0.4-0.5,0.5-0.6c0.6-0.5,1.1-0.6,1.5-0.1c0.4,0.5,0.3,1-0.3,1.6c-0.1,0.1-0.3,0.2-0.5,0.4l-1.1,0.9
			c-0.2,0.2-0.5,0.5-1,0.9c-0.5,0.5-0.8,0.8-1,1l-0.8,0.9c-0.3,0.4-0.6,0.7-0.8,0.9c-0.5,0.5-1,0.5-1.5,0.1c-0.5-0.5-0.4-1,0.1-1.5
			c0.1-0.1,0.2-0.2,0.3-0.2l0.3-0.3c0.4-0.4,0.5-0.8,0.4-1.2c0-0.2-0.2-0.6-0.5-1.4l-6.1-14.1c-0.3-0.8-0.2-1.5,0.5-2.1
			c0.6-0.6,1.3-0.7,2.1-0.3l13.5,6.7c0.9,0.4,1.5,0.6,1.9,0.7c0.4,0,0.8-0.1,1.1-0.5c0.1-0.1,0.2-0.2,0.2-0.3l0.5-0.6
			c0.5-0.5,1-0.5,1.4-0.1c0.5,0.5,0.4,1-0.1,1.5c-0.2,0.1-0.4,0.3-0.6,0.5c-1,0.7-1.7,1.3-2.1,1.7c-0.5,0.5-1.3,1.3-2.3,2.5
			c-0.3,0.3-0.5,0.5-0.6,0.7c-0.6,0.5-1.1,0.6-1.5,0.1c-0.4-0.5-0.4-1,0.2-1.6c0.1-0.1,0.3-0.3,0.6-0.5c0.3-0.2,0.5-0.4,0.6-0.5
			c0.5-0.4,0.5-0.8,0.1-1.2C35.6,40.5,35.4,40.4,35,40.2z M29.5,37.4l-7.3-3.9l3.6,7.5c0.1,0.1,0.1,0.2,0.1,0.2
			c0.1,0.1,0.3,0.1,0.5-0.1l3.3-3.1c0.2-0.2,0.2-0.3,0.1-0.4C29.7,37.5,29.6,37.5,29.5,37.4z"/>
		<path class="st0" d="M38.7,24.1l0.4,0.7c0.2-1.1,0.4-1.9,0.8-2.5c0.4-0.6,0.9-1.1,1.7-1.6c1.6-0.9,3.2-1,4.7-0.2
			c0.2-1,0.4-1.8,0.8-2.5c0.4-0.6,1.1-1.2,2-1.7c0.9-0.6,1.9-0.8,2.9-0.9c1.1,0,2,0.3,2.8,0.9c0.5,0.4,1.1,1.2,1.8,2.4l1.4,2.4
			l1.1,1.9c0.4,0.7,0.6,1.1,0.8,1.2c0.4,0.5,0.8,0.7,1.2,0.5c0.1-0.1,0.3-0.2,0.5-0.4c0.2-0.2,0.3-0.3,0.5-0.4
			c0.6-0.3,1-0.2,1.3,0.2c0.3,0.6,0.2,1.1-0.5,1.5c-0.2,0.1-0.6,0.3-1.2,0.6c-0.5,0.2-0.9,0.4-1.2,0.6c-0.3,0.2-0.7,0.4-1.2,0.8
			c-0.5,0.4-0.9,0.6-1.2,0.8c-0.7,0.4-1.2,0.3-1.5-0.3c-0.3-0.5-0.2-0.9,0.3-1.2c0.1,0,0.2-0.1,0.5-0.2c0.1,0,0.3-0.1,0.4-0.2
			c0.3-0.2,0.4-0.4,0.3-0.7c-0.1-0.3-0.5-1-1.1-2.2l-0.9-1.5l-1-1.6c-0.7-1.1-1.2-1.9-1.7-2.3c-0.5-0.4-1-0.6-1.7-0.7
			c-0.6,0-1.3,0.2-1.9,0.5c-1.2,0.7-1.7,1.6-1.7,2.6c0,0.9,0.5,2.1,1.4,3.7l1,1.8c0.9,1.5,1.5,2.5,1.8,2.8c0.3,0.3,0.6,0.4,0.9,0.2
			c0.1-0.1,0.2-0.2,0.4-0.3c0.2-0.2,0.3-0.3,0.4-0.3c0.2-0.1,0.5-0.2,0.7-0.1c0.2,0.1,0.4,0.2,0.6,0.4c0.3,0.5,0.1,1-0.7,1.5
			c-0.2,0.1-0.6,0.3-1.2,0.5c-0.5,0.2-0.9,0.4-1.2,0.5c-0.3,0.2-0.7,0.5-1.1,0.8c-0.4,0.3-0.7,0.6-1,0.7c-0.7,0.4-1.2,0.3-1.5-0.3
			c-0.3-0.5-0.2-0.9,0.3-1.2c0.2-0.1,0.3-0.2,0.5-0.2c0.3-0.1,0.5-0.1,0.6-0.2c0.4-0.2,0.4-0.8-0.1-1.6l-0.6-1.2
			c-0.2-0.4-0.4-0.7-0.6-1.1c-0.2-0.3-0.3-0.5-0.3-0.5l-1.2-2.1c-0.8-1.4-1.6-2.3-2.3-2.6c-0.7-0.3-1.6-0.2-2.6,0.4
			c-1.1,0.6-1.7,1.5-1.8,2.7c-0.1,0.9,0.3,2.2,1.3,3.8l1.9,3.3c0.4,0.7,0.6,1,0.7,1.2c0.4,0.5,0.7,0.7,1,0.5c0.1,0,0.2-0.2,0.4-0.4
			c0,0,0.1-0.1,0.1-0.1c0.1,0,0.1-0.1,0.2-0.1c0.6-0.4,1.1-0.3,1.4,0.3c0.3,0.5,0.1,1-0.6,1.5c-0.3,0.2-0.6,0.3-1.1,0.5
			c-0.6,0.3-1.1,0.5-1.5,0.7c-0.2,0.1-0.5,0.4-1,0.7c-0.7,0.5-1.1,0.8-1.2,0.9c-0.7,0.4-1.2,0.3-1.5-0.3c-0.3-0.5-0.1-1,0.5-1.3
			c0,0,0.1-0.1,0.2-0.1c0.1,0,0.1,0,0.2-0.1l0.7-0.2c0,0,0.1,0,0.1,0c0.5-0.3,0.5-0.8,0-1.6l-0.8-1.4l-2.2-3.8
			c-0.8-1.4-1.4-2.2-1.6-2.5c-0.3-0.3-0.6-0.4-0.9-0.2c-0.1,0-0.3,0.2-0.6,0.5C36.1,26.9,36,27,35.9,27c-0.6,0.4-1.1,0.3-1.4-0.2
			c-0.3-0.6-0.2-1,0.5-1.4c0.2-0.1,0.4-0.2,0.8-0.4c0.3-0.2,0.6-0.3,0.8-0.4c0.1,0,0.2-0.1,0.3-0.2c0.1-0.1,0.2-0.1,0.2-0.1l0.5-0.4
			l0.1,0C38.1,23.5,38.4,23.7,38.7,24.1z"/>
		<path class="st0" d="M75.1,21.2l-0.3-0.8c-0.5,1.6-1.7,2.8-3.6,3.4c-2.1,0.7-3.8,0.5-5.1-0.5c-0.6-0.5-1-1.1-1.3-1.8
			c-0.1-0.4-0.4-1.2-0.8-2.4l-0.7-2.3c-0.8-2.5-1.5-3.6-2-3.5c-0.1,0-0.3,0.1-0.5,0.2c-0.2,0.1-0.4,0.2-0.5,0.2
			c-0.6,0.2-1.1,0-1.3-0.6c-0.2-0.6,0.1-1,0.9-1.2c0.2-0.1,0.5-0.1,0.8-0.2c0.4-0.1,0.6-0.1,0.8-0.2c0.2-0.1,0.4-0.2,0.8-0.4
			c0.3-0.1,0.4-0.2,0.4-0.2c0.6-0.2,1,0.1,1.2,0.8l0.2,0.6l0.6,1.8l0.6,2l0.6,1.8c0.5,1.6,1,2.7,1.5,3.3c0.8,1,2,1.2,3.6,0.7
			c0.8-0.3,1.4-0.7,1.9-1.2c0.5-0.5,0.7-1.2,0.8-1.8c0.1-0.8-0.2-2.2-0.9-4.2l-0.5-1.5c-0.4-1.1-0.5-1.7-0.6-1.8
			c-0.4-0.8-0.8-1.2-1.1-1.1c-0.2,0.1-0.4,0.1-0.5,0.2l-0.3,0.1c-0.6,0.2-1,0-1.2-0.5c-0.2-0.6,0.1-1,0.8-1.3
			c0.2-0.1,0.4-0.1,0.8-0.2c0.3-0.1,0.6-0.1,0.8-0.2c0.1,0,0.4-0.1,0.6-0.3C71.7,8,71.9,7.9,72,7.9c0.5-0.2,0.9,0,1.1,0.6
			c0.1,0.3,0.1,0.5,0.1,0.6c0.1,0.7,0.4,1.8,0.9,3.1l1.4,4.2c0.4,1.1,0.6,1.7,0.6,1.8c0.4,0.9,0.8,1.3,1.2,1.2
			c0.1,0,0.3-0.1,0.5-0.2c0.2-0.1,0.4-0.2,0.5-0.2c0.6-0.2,1,0,1.2,0.6c0.2,0.6-0.1,1-0.8,1.3c-0.2,0.1-0.4,0.1-0.7,0.2
			c-0.5,0.1-0.8,0.2-0.9,0.2c-0.1,0-0.2,0.1-0.6,0.2c-0.2,0.1-0.4,0.2-0.5,0.3C75.6,21.9,75.3,21.7,75.1,21.2z"/>
		<path class="st0" d="M84,4.9c1.3-0.2,2.4,0,3.3,0.5l0-0.1c-0.1-0.7,0.1-1.1,0.7-1.2c0.6-0.1,1,0.2,1.1,0.8c0,0.1,0,0.4,0.1,0.9
			c0,0.4,0,0.8,0.1,1.1c0,0.2,0.1,0.6,0.2,1c0.1,0.4,0.2,0.7,0.2,1c0.1,0.7-0.1,1.1-0.7,1.2c-0.6,0.1-0.9-0.2-1.1-0.8l-0.2-0.9
			c-0.1-0.6-0.5-1-1.2-1.3c-0.7-0.3-1.5-0.4-2.3-0.2c-0.9,0.1-1.6,0.5-2.1,1c-0.5,0.5-0.7,1.1-0.6,1.8c0.2,1.2,1.1,1.8,2.8,1.7
			l1.7,0c3.3-0.1,5.1,1,5.5,3.2c0.2,1.4-0.1,2.5-1,3.5c-0.9,1-2.2,1.6-3.9,1.9c-1.6,0.3-3,0-4.3-0.7c0,0.2,0.1,0.4,0.1,0.5
			c0.1,0.7-0.2,1.1-0.8,1.2c-0.7,0.1-1.1-0.2-1.2-1c0,0.1,0-0.4-0.1-1.5c0-0.3,0-0.5-0.1-0.8c-0.1-0.5-0.2-0.9-0.3-1.3
			c-0.1-0.4-0.2-0.7-0.3-0.9c-0.1-0.7,0.1-1,0.7-1.1c0.4-0.1,0.7,0,0.8,0.2c0.1,0.2,0.3,0.7,0.4,1.5c0.1,0.8,0.7,1.4,1.6,1.8
			c0.9,0.4,2,0.5,3.3,0.2c0.9-0.1,1.6-0.5,2.2-1.1c0.5-0.6,0.7-1.2,0.6-1.9c-0.2-1.3-1.3-1.9-3.4-1.7c-2,0.1-3.5,0-4.6-0.4
			c-1.1-0.4-1.8-1.3-2-2.7c-0.2-1.3,0.1-2.5,1-3.5C81.2,5.7,82.4,5.1,84,4.9z"/>
		<path class="st0" d="M106.5,9.7c0,0.7,0,1.2-0.1,1.3c-0.1,0.2-0.4,0.2-0.8,0.3l-9.1,0.2c-0.2,0-0.4,0-0.5,0.1
			c-0.1,0.1-0.1,0.2-0.1,0.3c0,1.4,0.5,2.6,1.4,3.6c0.9,0.9,2,1.4,3.2,1.4c0.8,0,1.6-0.3,2.3-0.7c0.7-0.5,1.1-1.1,1.3-1.8l0.2-0.8
			c0.1-0.5,0.4-0.7,0.9-0.7c0.7,0,1.1,0.3,1.1,1.1c0,1.2-0.6,2.4-1.8,3.3c-1.2,1-2.7,1.5-4.3,1.5c-2,0-3.6-0.6-4.8-1.9
			c-1.2-1.3-1.8-3.1-1.9-5.4c0-2.3,0.5-4.2,1.8-5.7c1.2-1.5,2.9-2.2,4.9-2.3c1.8,0,3.3,0.5,4.5,1.7C105.9,6.3,106.5,7.8,106.5,9.7z
			 M96.1,9.2c0,0.3,0.2,0.4,0.6,0.4l6.9-0.1c0.4,0,0.6-0.1,0.6-0.4c0-1-0.4-1.9-1.2-2.6c-0.8-0.7-1.7-1.1-2.7-1.1
			c-1.1,0-2,0.4-2.9,1.2C96.5,7.3,96.1,8.2,96.1,9.2z"/>
		<path class="st0" d="M133.9,7.9c-0.4,1.9-1.8,3-4.1,3.3c0.7,0.4,1.3,0.8,1.7,1.2c1.3,1.2,1.8,2.7,1.4,4.4
			c-0.4,1.7-1.3,2.9-2.9,3.7c-1.5,0.7-3.4,0.8-5.6,0.3c-0.8-0.2-1.8-0.4-3-0.8c-1.2-0.4-2.1-0.6-2.7-0.7c-0.5-0.1-1-0.2-1.4-0.2
			l-1.4-0.1c0,0-0.1,0-0.2,0c-0.1,0-0.2,0-0.2,0c-0.8-0.2-1.1-0.6-1-1.3c0.1-0.6,0.5-0.8,1.1-0.7c0.1,0,0.4,0.1,0.7,0.2
			c0.2,0.1,0.4,0.2,0.6,0.2c0.9,0.2,1.6-0.4,1.9-1.8l2.5-11.2c0.3-1.4,0-2.2-1-2.4c-0.2,0-0.4-0.1-0.6-0.1c-0.3,0-0.6,0-0.8-0.1
			c-0.6-0.1-0.8-0.5-0.7-1.1c0.1-0.7,0.6-0.9,1.5-0.7l0.4,0.1l1.3,0.5c0.4,0.1,0.9,0.3,1.6,0.4c0.7,0.2,1.7,0.3,3.1,0.5
			c0.9,0.1,1.8,0.3,2.8,0.5c1.9,0.4,3.3,1.1,4.1,2.2S134.2,6.5,133.9,7.9z M121.7,12.4l-0.7,3.1c-0.3,1.2-0.2,2,0.1,2.4
			c0.3,0.4,1.4,0.8,3.3,1.2c3.5,0.8,5.5-0.1,6.1-2.8c0.5-2.4-0.9-4-4.2-4.7l-2.3-0.5c-1-0.2-1.6-0.1-1.9,0.3
			C121.9,11.6,121.8,11.9,121.7,12.4z M123,6.7c-0.2,1-0.3,1.6-0.1,1.9c0.1,0.3,0.6,0.5,1.4,0.7l1.6,0.3c3.3,0.7,5.2,0,5.7-2.1
			c0.4-2-0.7-3.2-3.4-3.8c-1.9-0.4-3.1-0.6-3.6-0.4c-0.5,0.1-0.8,0.7-1.1,1.7L123,6.7z"/>
		<path class="st0" d="M139.3,26c-1.9-0.8-3.1-2-3.7-3.8c-0.6-1.7-0.4-3.7,0.4-5.8c0.9-2.2,2.2-3.6,3.8-4.5c1.6-0.8,3.4-0.8,5.3-0.1
			c1.9,0.8,3.2,2,3.8,3.8c0.6,1.7,0.4,3.6-0.4,5.8c-0.9,2.1-2.2,3.6-3.9,4.5C143,26.8,141.2,26.8,139.3,26z M144.5,13.7
			c-1.2-0.5-2.4-0.5-3.5,0.1c-1.1,0.6-2,1.6-2.7,3.2l-0.1,0.3c-0.7,1.7-0.9,3.1-0.6,4.3c0.3,1.2,1.1,2.1,2.4,2.6
			c1.3,0.5,2.5,0.5,3.6-0.2c1.1-0.6,2-1.8,2.7-3.5C147.8,17.1,147.2,14.8,144.5,13.7z"/>
		<path class="st0" d="M157.5,34.3l0.5-0.8c-1.6,0.7-3.2,0.5-4.9-0.6c-1.9-1.2-2.9-2.6-2.9-4.2c0-0.7,0.2-1.4,0.6-2.2
			c0.2-0.3,0.6-1.1,1.3-2.2l1.3-2c1.4-2.2,1.8-3.5,1.3-3.8c-0.1-0.1-0.3-0.1-0.5-0.2c-0.2-0.1-0.4-0.2-0.5-0.3
			c-0.6-0.4-0.7-0.8-0.4-1.3c0.3-0.5,0.8-0.6,1.5-0.1c0.2,0.1,0.4,0.3,0.7,0.5c0.3,0.2,0.5,0.4,0.7,0.5c0.1,0.1,0.4,0.2,0.8,0.4
			c0.3,0.1,0.4,0.2,0.4,0.2c0.5,0.3,0.6,0.8,0.2,1.4l-0.3,0.5l-1,1.6l-1.2,1.8l-1,1.6c-0.9,1.4-1.4,2.5-1.5,3.3
			c-0.3,1.3,0.3,2.3,1.7,3.2c0.7,0.4,1.4,0.7,2.2,0.7c0.7,0,1.4-0.2,1.9-0.6c0.7-0.5,1.5-1.6,2.6-3.4l0.8-1.3c0.6-1,0.9-1.5,1-1.6
			c0.4-0.8,0.4-1.4,0.1-1.6c-0.2-0.1-0.3-0.2-0.4-0.3l-0.3-0.2c-0.6-0.3-0.7-0.8-0.4-1.3c0.3-0.6,0.8-0.6,1.5-0.2
			c0.1,0.1,0.4,0.2,0.6,0.5c0.3,0.2,0.5,0.4,0.6,0.5c0.1,0.1,0.3,0.2,0.6,0.3c0.3,0.1,0.5,0.2,0.6,0.3c0.5,0.3,0.6,0.7,0.2,1.2
			c-0.1,0.2-0.3,0.4-0.4,0.5c-0.5,0.6-1.1,1.5-1.8,2.7l-2.3,3.8c-0.6,1-0.9,1.6-1,1.7c-0.4,0.9-0.5,1.5-0.1,1.7
			c0.1,0.1,0.3,0.2,0.5,0.3c0.2,0.1,0.4,0.2,0.5,0.2c0.6,0.3,0.7,0.8,0.3,1.3c-0.3,0.5-0.8,0.6-1.5,0.2c-0.1-0.1-0.4-0.2-0.6-0.4
			c-0.4-0.3-0.6-0.5-0.7-0.5c0,0-0.2-0.1-0.5-0.3c-0.2-0.1-0.4-0.2-0.6-0.2C157.3,35.2,157.2,34.8,157.5,34.3z"/>
		<path class="st0" d="M173.9,36.2c0.5-0.6,1.1-0.6,1.9-0.1c0.4-0.6,0.5-1.2,0.3-1.8c-0.2-0.6-0.6-1.2-1.2-1.8
			c-1-0.9-2.2-1.2-3.4-0.9c-1.3,0.3-2.5,1.1-3.6,2.4c-1.2,1.4-1.8,2.7-1.9,3.9c-0.1,1.3,0.4,2.3,1.4,3.2c0.6,0.5,1.4,0.8,2.1,0.9
			c0.8,0,1.5-0.2,2.2-0.7c0.6-0.4,0.9-0.6,1-0.6c0.4-0.2,0.8-0.1,1.1,0.2c0.2,0.2,0.4,0.5,0.4,0.8c0,0.3-0.1,0.6-0.3,0.8
			c-0.3,0.4-0.8,0.7-1.5,1c-0.7,0.3-1.3,0.5-1.9,0.6c-1.6,0.2-3.1-0.3-4.5-1.5c-1.5-1.3-2.2-2.8-2.2-4.6c0-1.8,0.7-3.6,2.2-5.3
			c1.5-1.8,3.2-2.8,5.1-3.1c1.9-0.3,3.6,0.2,5.1,1.6c1.2,1,1.9,2.1,2.1,3.4c0.2,1.3-0.1,2.4-0.9,3.4c-0.5,0.5-1,0.8-1.6,0.9
			c-0.6,0.1-1.1-0.1-1.6-0.5c-0.4-0.3-0.6-0.7-0.6-1.1C173.5,36.9,173.7,36.5,173.9,36.2z"/>
		<path class="st0" d="M188.7,38.1l-4.3,3.5c1.1,0.1,1.9,0.3,2.5,0.6c0.6,0.3,1.2,0.8,1.8,1.4c1.1,1.3,1.6,2.6,1.5,3.9
			c-0.1,1.4-0.7,2.5-1.8,3.5l-3.6,3.1c-0.9,0.7-1.3,1.1-1.4,1.2c-0.7,0.7-0.9,1.2-0.6,1.5c0.1,0.1,0.3,0.2,0.6,0.4
			c0.1,0.1,0.2,0.2,0.3,0.3c0.5,0.5,0.4,1-0.1,1.4c-0.5,0.4-1,0.3-1.6-0.4c-0.2-0.2-0.4-0.5-0.6-0.9c-0.4-0.7-0.8-1.2-1.2-1.6
			c-0.3-0.4-0.6-0.7-0.8-0.8c-0.6-0.5-1-0.9-1.1-1c-0.2-0.3-0.3-0.5-0.3-0.8c0-0.3,0.1-0.6,0.4-0.8c0.2-0.2,0.4-0.2,0.7-0.2
			c0.3,0,0.5,0.2,0.6,0.4c0.1,0.2,0.3,0.4,0.4,0.7c0.1,0.2,0.1,0.3,0.2,0.4c0.4,0.4,1,0.3,2-0.5c0.2-0.2,0.5-0.4,1.1-0.8l0.9-0.8
			l1.2-1c1.5-1.3,2.4-2.3,2.6-3c0.4-1.1,0.1-2.1-0.8-3.2c-1-1.2-2.1-1.7-3.3-1.5c-0.9,0.1-1.9,0.6-3.1,1.6l-1.6,1.3
			c-0.1,0.1-0.3,0.2-0.5,0.3c-0.2,0.2-0.3,0.3-0.4,0.4c-0.8,0.7-1.3,1.1-1.4,1.2c-0.6,0.7-0.8,1.2-0.5,1.6c0.1,0.1,0.3,0.3,0.5,0.4
			c0.2,0.2,0.4,0.3,0.5,0.4c0.4,0.5,0.4,0.9-0.1,1.3c-0.5,0.4-1.1,0.3-1.6-0.3c-0.2-0.2-0.4-0.5-0.7-1c-0.4-0.6-0.8-1.1-1.1-1.5
			c-0.2-0.2-0.5-0.6-0.9-1c-0.6-0.5-0.9-0.9-1-1c-0.5-0.6-0.5-1.1,0-1.6c0.5-0.4,0.9-0.3,1.4,0.3c0.2,0.2,0.3,0.4,0.3,0.5
			c0.2,0.3,0.3,0.5,0.4,0.6c0.2,0.2,0.6,0.2,1.1-0.1c0.5-0.3,1.5-1,2.8-2.2l3.9-3.3c2.2-1.9,3.5-3.1,4-3.6c0.5-0.6,0.6-1,0.3-1.3
			c-0.1-0.1-0.2-0.2-0.5-0.4c-0.2-0.2-0.4-0.3-0.5-0.4c-0.4-0.5-0.4-0.9,0.1-1.3c0.2-0.2,0.5-0.2,0.7-0.2c0.3,0.1,0.5,0.2,0.8,0.4
			c0.1,0.1,0.2,0.3,0.6,0.8c0.2,0.3,0.4,0.6,0.7,0.9c0.1,0.1,0.3,0.3,0.5,0.5c0.2,0.2,0.4,0.4,0.5,0.5
			C189.3,37.3,189.2,37.7,188.7,38.1L188.7,38.1z"/>
		<path class="st0" d="M196.9,66.9c-0.6,0.4-1,0.6-1.2,0.6c-0.2,0-0.4-0.2-0.6-0.6l-4.7-7.8c-0.1-0.2-0.2-0.3-0.3-0.4
			s-0.2,0-0.3,0.1c-1.2,0.7-2,1.7-2.4,3c-0.4,1.2-0.2,2.4,0.4,3.5c0.4,0.7,1,1.3,1.8,1.6c0.7,0.4,1.5,0.4,2.2,0.3l0.8-0.2
			c0.5-0.1,0.8,0,1.1,0.5c0.4,0.6,0.2,1.1-0.4,1.5c-1.1,0.6-2.3,0.7-3.8,0.1c-1.5-0.6-2.6-1.6-3.5-2.9c-1-1.7-1.3-3.4-0.8-5.1
			c0.5-1.7,1.8-3.2,3.7-4.3c2-1.2,3.9-1.6,5.8-1.3c1.9,0.3,3.4,1.4,4.4,3.1c0.9,1.5,1.2,3.1,0.8,4.7
			C199.4,64.6,198.4,65.9,196.9,66.9z M192.1,57.6c-0.2,0.1-0.2,0.4,0,0.7l3.6,5.9c0.2,0.3,0.4,0.4,0.7,0.3c0.9-0.5,1.4-1.3,1.7-2.3
			s0.1-2-0.4-2.9c-0.6-0.9-1.4-1.6-2.5-1.9C193.9,57,192.9,57.1,192.1,57.6z"/>
	</g>
	<g>
		<path class="st0" d="M17.8,166.1c0.2,0.4,0.4,0.8,0.5,1.3c1.4-0.7,2.5-0.3,3.4,1.2c0.4,0.6,0.5,1.2,0.4,1.9
			c-0.1,0.6-0.4,1.1-0.9,1.4c-0.3,0.2-0.7,0.3-1,0.2c-0.4-0.1-0.6-0.3-0.8-0.5c-0.1-0.2-0.2-0.5-0.1-0.7c0.1-0.3,0.2-0.4,0.4-0.6
			c0.2-0.1,0.5-0.1,0.9,0.1c0.1-0.4,0.1-0.7-0.1-1.1c-0.4-0.7-1.1-0.8-2-0.3c-0.1,1.4-0.7,2.5-1.9,3.2c-0.9,0.6-1.9,0.7-3,0.3
			c-1-0.3-1.9-1.1-2.5-2.1c-0.4-0.8-0.7-1.6-0.8-2.7c0-0.3-0.1-0.5-0.2-0.6c-0.1-0.2-0.3-0.3-0.6-0.4c-0.3-0.1-0.5,0-0.7,0.1
			c-0.7,0.4-0.6,1.3,0.2,2.8l0.1,0.1c0.1,0.1,0.1,0.2,0.2,0.4c0.1,0.1,0.1,0.2,0.1,0.2c0.8,1.3,1.3,2.4,1.5,3.4
			c0.2,0.9,0.2,1.7,0,2.4c-0.2,0.7-0.7,1.3-1.3,1.6c-1,0.6-2,0.6-3.2,0c-1.1-0.6-2.1-1.7-3.1-3.2s-1.4-3-1.4-4.2
			c0-1.2,0.5-2.1,1.5-2.7c1.1-0.7,2.3-0.5,3.4,0.5c-0.2-1.4,0.1-2.3,1-2.9c1-0.6,1.9-0.4,3,0.5c0.3-0.6,0.7-1.1,1.4-1.5
			c0.9-0.5,1.9-0.6,2.9-0.3C16.3,164.3,17.2,165,17.8,166.1z M8.5,171.6c-0.6-1.1-1.3-1.9-2-2.3c-0.7-0.4-1.3-0.5-1.9-0.2
			c-0.6,0.3-0.8,0.9-0.8,1.7c0,0.8,0.4,1.7,1,2.8c0.6,1.1,1.3,1.9,2,2.3c0.7,0.4,1.3,0.5,1.9,0.2c0.6-0.3,0.8-0.9,0.8-1.7
			C9.5,173.7,9.2,172.7,8.5,171.6z M16.5,167c-0.4-0.6-0.8-1-1.4-1.2c-0.6-0.2-1.2-0.2-1.7,0.1l-0.1,0.1c-0.6,0.4-1,0.8-1.1,1.5
			c-0.1,0.6,0,1.3,0.4,1.9c0.4,0.7,0.9,1.1,1.5,1.3c0.6,0.2,1.2,0.2,1.8-0.2c0.6-0.3,0.9-0.8,1.1-1.5C17,168.3,16.9,167.6,16.5,167z
			"/>
		<path class="st0" d="M17.6,187.7c-0.8-1-0.8-2-0.1-2.9c-1.4,0.1-2.7-0.5-3.7-1.9c-0.8-1-1.2-2-1.1-3c0-1,0.5-1.8,1.3-2.5
			c1-0.8,2.1-1,3.3-0.4c0.5,0.2,0.8,0.4,1,0.6c0.2,0.2,0.7,0.6,1.4,1.3c0.9,1,1.6,1.5,2.1,1.7c0.4,0.2,0.9,0,1.5-0.4
			c0.5-0.4,0.8-0.9,0.8-1.5c0-0.6-0.2-1.2-0.7-1.8c-0.4-0.6-1-1-1.7-1.2c-0.3-0.1-0.5-0.1-0.6,0c0,0-0.1,0.1-0.1,0.3
			c0,0.3-0.1,0.5-0.4,0.8c-0.2,0.2-0.5,0.3-0.8,0.2c-0.3-0.1-0.6-0.2-0.8-0.5c-0.3-0.3-0.3-0.7-0.3-1.1c0.1-0.4,0.2-0.7,0.6-1
			c0.7-0.5,1.6-0.7,2.6-0.4c1,0.3,1.9,1,2.7,1.9c1.8,2.3,1.6,4.3-0.6,6l-3.8,2.9c-0.6,0.5-0.9,0.8-1,0.9c-0.4,0.4-0.4,0.8-0.2,1.1
			c0.3,0.4,0.9,0.3,1.7-0.3l0.9-0.7c0.4-0.3,0.7-0.3,1,0.1c0.3,0.4,0.2,0.8-0.4,1.3l-0.1,0.1l-1.1,0.8
			C19.7,189.1,18.6,189,17.6,187.7z M19.7,182.7l1.3-1c-0.5-0.1-0.9-0.2-1.2-0.5c-0.3-0.2-0.8-0.7-1.5-1.4c-1.2-1.3-2.3-1.6-3.2-0.9
			c-0.5,0.4-0.7,0.8-0.7,1.4c0,0.6,0.2,1.1,0.7,1.7c0.7,0.8,1.4,1.3,2.2,1.4C18.1,183.6,18.9,183.3,19.7,182.7z"/>
		<path class="st0" d="M33,185.7c0.7,0.7,1.2,1.6,1.3,2.5l0.1-0.1c0.4-0.4,0.8-0.4,1.2-0.1c0.4,0.4,0.4,0.7,0,1.1
			c-0.1,0.1-0.2,0.2-0.5,0.5c-0.3,0.2-0.5,0.4-0.7,0.6c-0.1,0.1-0.3,0.3-0.5,0.6c-0.2,0.3-0.4,0.5-0.5,0.6c-0.4,0.4-0.8,0.5-1.2,0.1
			c-0.4-0.4-0.4-0.7,0-1.1l0.6-0.6c0.3-0.3,0.4-0.8,0.3-1.4c-0.1-0.6-0.5-1.2-1-1.7c-0.5-0.5-1.1-0.8-1.7-0.9
			c-0.6-0.1-1.1,0.1-1.5,0.5c-0.7,0.7-0.6,1.6,0.2,2.8l0.8,1.1c1.6,2.2,1.8,3.9,0.5,5.2c-0.8,0.8-1.8,1.1-2.9,1
			c-1.1-0.1-2.2-0.7-3.2-1.7c-0.9-0.9-1.5-2-1.6-3.2c-0.1,0.1-0.2,0.2-0.3,0.3c-0.4,0.4-0.8,0.4-1.2,0c-0.4-0.4-0.4-0.8,0.1-1.3
			c-0.1,0.1,0.2-0.2,1-0.8c0.2-0.1,0.3-0.3,0.5-0.4c0.3-0.3,0.5-0.5,0.7-0.8c0.2-0.3,0.4-0.5,0.5-0.6c0.4-0.4,0.8-0.4,1.1,0
			c0.2,0.2,0.3,0.4,0.3,0.6c-0.1,0.2-0.3,0.5-0.8,1c-0.5,0.5-0.6,1.1-0.4,1.9c0.2,0.8,0.7,1.6,1.4,2.3c0.5,0.5,1.1,0.9,1.8,0.9
			c0.6,0.1,1.2-0.1,1.6-0.5c0.8-0.8,0.6-1.8-0.5-3.1c-1-1.3-1.7-2.4-2-3.3c-0.3-0.9,0-1.8,0.8-2.6c0.8-0.8,1.7-1.1,2.8-1
			C31,184.3,32,184.8,33,185.7z"/>
		<path class="st0" d="M37.1,201.4l1-1.2c0.4-0.5,0.8-0.6,1.3-0.2c0.4,0.3,0.4,0.8,0,1.4c-1.1,1.3-2,2.1-2.8,2.4
			c-1,0.3-2.1,0.1-3.2-0.8c-1-0.8-1.4-1.7-1.3-2.6c0.1-0.7,0.5-1.6,1.4-2.7l3.6-4.4c0.2-0.3,0.2-0.5,0-0.7l-0.6-0.5
			c-0.2-0.2-0.3-0.4-0.3-0.6c0-0.2,0-0.4,0.2-0.6c0.1-0.2,0.3-0.3,0.6-0.3c0.2,0,0.4,0,0.6,0.2l0.7,0.6c0.2,0.2,0.4,0.1,0.6-0.1
			l1.5-1.9c0.4-0.5,0.8-0.5,1.3-0.1c0.4,0.4,0.5,0.8,0.1,1.2l-1.6,2c-0.2,0.2-0.1,0.4,0.1,0.5l2,1.6c0.5,0.4,0.5,0.8,0.2,1.2
			c-0.4,0.5-0.8,0.5-1.3,0.1l-2-1.6c-0.2-0.1-0.4-0.1-0.6,0.2l-3.7,4.5c-1,1.3-1.1,2.3-0.3,3C35.3,202.5,36.2,202.4,37.1,201.4z"/>
		<path class="st0" d="M47.3,198.9l-0.4,0.5c1.3-0.5,2.6-0.4,3.7,0.3c0.9,0.6,1.5,1.4,1.7,2.3c0.2,0.9,0.1,1.8-0.4,2.6
			c-0.4,0.6-0.8,1-1.4,1.1c-0.5,0.2-1,0.1-1.5-0.2c-0.3-0.2-0.5-0.5-0.6-0.8c-0.1-0.3-0.1-0.6,0.1-0.9c0.1-0.2,0.3-0.3,0.6-0.4
			c0.3-0.1,0.5,0,0.7,0.1c0,0,0.1,0.1,0.2,0.2c0.2-0.1,0.3-0.2,0.4-0.4c0.2-0.4,0.3-0.8,0.1-1.3c-0.2-0.5-0.5-0.9-1-1.2
			c-1-0.7-2-0.7-3,0.1c-0.6,0.4-1.2,1.2-2,2.4l-0.9,1.3c-0.6,0.9-0.9,1.4-0.9,1.5c-0.4,0.8-0.5,1.3-0.1,1.5c0.2,0.1,0.4,0.2,0.6,0.3
			c0.2,0.1,0.3,0.1,0.4,0.2c0.4,0.3,0.5,0.6,0.2,1c-0.3,0.5-0.7,0.5-1.3,0.2l-0.1-0.1c-0.2-0.1-0.5-0.3-0.9-0.7
			c-0.4-0.3-0.7-0.5-0.9-0.7c-0.5-0.3-1-0.6-1.3-0.8l-1.2-0.6c-0.5-0.4-0.7-0.8-0.4-1.2c0.3-0.4,0.7-0.5,1.2-0.1
			c0.1,0.1,0.2,0.2,0.3,0.2l0.3,0.3c0.1,0.1,0.2,0.2,0.3,0.2c0.3,0.2,0.7,0,1.1-0.6l0.7-1l2.9-4.6c0.5-0.8,0.5-1.3,0.2-1.6
			c-0.1-0.1-0.3-0.1-0.5-0.2c-0.2-0.1-0.4-0.2-0.5-0.2c-0.4-0.3-0.5-0.6-0.2-1.1c0.3-0.5,0.7-0.5,1.3-0.1c0.1,0.1,0.3,0.2,0.6,0.4
			c0.2,0.2,0.4,0.4,0.6,0.4c0.1,0.1,0.3,0.2,0.6,0.3c0.1,0,0.3,0.1,0.4,0.2C47.5,198.2,47.5,198.5,47.3,198.9z"/>
		<path class="st0" d="M53.8,216c-1.5-0.7-2.4-1.8-2.8-3.3c-0.4-1.5-0.2-3.1,0.7-4.8c0.8-1.7,2-2.9,3.4-3.5c1.4-0.6,2.9-0.5,4.4,0.2
			c1.6,0.8,2.5,1.9,2.9,3.3c0.4,1.4,0.2,3-0.7,4.8c-0.8,1.7-2,2.9-3.4,3.5C56.9,216.8,55.4,216.7,53.8,216z M58.8,206
			c-1-0.5-2-0.5-2.9-0.1c-0.9,0.4-1.7,1.3-2.4,2.5l-0.1,0.3c-0.7,1.3-0.9,2.5-0.7,3.6c0.2,1,0.8,1.8,1.8,2.3c1,0.5,2,0.5,3,0
			c1-0.5,1.8-1.4,2.4-2.7C61.4,209,61,207.1,58.8,206z"/>
		<path class="st0" d="M69,209.9l-0.2,0.6c1.3-0.9,2.7-1,4.2-0.6c0.8,0.3,1.5,0.7,2.1,1.4c0.6,0.6,0.9,1.3,1,2
			c0,0.6-0.1,1.3-0.3,2.1l-1.4,4.3c-0.2,0.7-0.3,1-0.3,1.2c-0.1,0.5,0,0.9,0.4,1c0.1,0,0.3,0.1,0.6,0.1c0.2,0,0.4,0.1,0.5,0.1
			c0.2,0.1,0.3,0.2,0.4,0.4c0.1,0.2,0.1,0.4,0.1,0.6c-0.1,0.2-0.2,0.4-0.5,0.5c-0.2,0.1-0.5,0.1-0.7,0c-0.2-0.1-0.5-0.2-1-0.4
			c-0.5-0.2-0.9-0.4-1.3-0.5c-0.4-0.1-0.7-0.2-1-0.3c-0.8-0.2-1.2-0.2-1.2-0.2c-0.6-0.2-0.8-0.6-0.7-1.1c0.2-0.5,0.5-0.6,1-0.4
			c0.1,0,0.3,0.1,0.4,0.2c0.3,0.2,0.4,0.2,0.5,0.3c0.4,0.1,0.7-0.2,1-1.1l0.4-1.2l0.4-1.4l0.5-1.7c0.3-0.8,0.4-1.4,0.4-1.7
			c0-0.6-0.1-1.2-0.5-1.6c-0.4-0.5-0.9-0.9-1.5-1.1c-1.2-0.4-2.2-0.2-3,0.5c-0.5,0.5-1,1.4-1.5,2.8l-1,3c-0.2,0.7-0.3,1.1-0.3,1.4
			c0,0.3,0.1,0.4,0.4,0.5c0.1,0,0.3,0.1,0.5,0.1c0.2,0,0.4,0,0.5,0.1c0.5,0.2,0.6,0.5,0.5,1c-0.2,0.5-0.5,0.6-1.1,0.4
			c-0.1,0-0.5-0.2-1.1-0.5c-0.3-0.2-0.7-0.3-1.1-0.4c-0.3-0.1-0.7-0.2-1.3-0.3c-0.7-0.1-1.1-0.2-1.2-0.2c-0.6-0.2-0.9-0.6-0.7-1.1
			c0.2-0.5,0.5-0.6,1-0.5c0.1,0,0.2,0.1,0.4,0.2c0.2,0.1,0.4,0.2,0.6,0.3c0.5,0.1,0.8-0.2,1.1-1.1l0.8-2.5l0.9-2.7l0.2-0.8
			c0.1-0.5,0.2-0.9,0.1-1.1c0-0.2-0.2-0.4-0.4-0.4c-0.1,0-0.3-0.1-0.5-0.1c-0.2,0-0.4-0.1-0.5-0.1c-0.6-0.2-0.8-0.5-0.6-1
			c0.2-0.5,0.6-0.6,1.3-0.4c0.1,0,0.2,0.1,0.2,0.1l0.8,0.4c0.2,0.1,0.5,0.1,0.7,0.1c0.4,0.1,0.6,0.1,0.6,0.1
			C69,209.1,69.2,209.4,69,209.9z"/>
		<path class="st0" d="M83.3,225.5c-1.6-0.3-2.9-1.1-3.6-2.4c-0.8-1.3-1-2.9-0.7-4.8c0.3-1.9,1.1-3.3,2.3-4.3c1.2-1,2.6-1.3,4.3-1
			c1.7,0.3,2.9,1.1,3.7,2.3c0.8,1.3,1,2.9,0.7,4.8c-0.3,1.9-1.1,3.3-2.3,4.3C86.5,225.4,85,225.7,83.3,225.5z M85.3,214.5
			c-1.1-0.2-2,0.1-2.8,0.7c-0.8,0.7-1.3,1.7-1.6,3.1l-0.1,0.3c-0.2,1.5-0.1,2.7,0.3,3.6c0.5,0.9,1.3,1.5,2.4,1.7
			c1.1,0.2,2.1-0.1,2.9-0.8c0.8-0.7,1.3-1.8,1.6-3.3C88.6,216.7,87.7,214.9,85.3,214.5z"/>
		<path class="st0" d="M96.1,215.5v0.7c0.6-0.7,1.1-1.2,1.6-1.4c0.5-0.3,1.1-0.4,1.9-0.4c1.6,0,2.7,0.6,3.4,1.8
			c0.5-0.7,1.1-1.1,1.6-1.4c0.6-0.3,1.3-0.4,2.1-0.4c0.9,0,1.7,0.2,2.4,0.6c0.8,0.4,1.3,1,1.6,1.8c0.2,0.5,0.3,1.3,0.3,2.5l0,2.3
			l0,1.8c0,0.6,0,1,0,1.2c0.1,0.6,0.3,0.9,0.6,0.9c0.1,0,0.3,0,0.5-0.1c0.2-0.1,0.4-0.1,0.5-0.1c0.6,0,0.8,0.2,0.8,0.7
			c0,0.6-0.3,0.8-0.9,0.8c-0.2,0-0.6,0-1.1-0.1c-0.5-0.1-0.8-0.1-1.1-0.1c-0.3,0-0.7,0-1.2,0.1c-0.5,0.1-0.9,0.1-1.2,0.1
			c-0.7,0-1-0.3-1-0.8c0-0.5,0.2-0.7,0.8-0.7c0.1,0,0.2,0,0.5,0.1c0.1,0,0.2,0.1,0.4,0.1c0.3,0,0.4-0.1,0.5-0.4
			c0.1-0.3,0.1-0.9,0.1-2l0-1.4l0-1.6c0-1.1-0.1-1.9-0.3-2.4c-0.2-0.5-0.5-0.9-0.9-1.2c-0.5-0.3-1-0.4-1.6-0.4
			c-1.1,0-1.9,0.4-2.3,1.2c-0.3,0.6-0.5,1.7-0.5,3.2l0,1.7c0,1.5,0,2.4,0.1,2.8c0.1,0.4,0.3,0.6,0.6,0.6c0.1,0,0.2,0,0.4-0.1
			c0.2,0,0.3-0.1,0.4-0.1c0.2,0,0.4,0.1,0.6,0.2c0.2,0.2,0.2,0.3,0.2,0.6c0,0.5-0.4,0.8-1.1,0.8c-0.2,0-0.6,0-1.1-0.1
			c-0.5-0.1-0.8-0.1-1.1-0.1c-0.3,0-0.7,0-1.1,0.1c-0.4,0.1-0.7,0.1-1,0.1c-0.6,0-1-0.3-1-0.8c0-0.5,0.2-0.8,0.7-0.8
			c0.2,0,0.3,0,0.4,0.1c0.2,0.1,0.4,0.1,0.5,0.1c0.4,0,0.6-0.4,0.6-1.2l0.1-1.1c0-0.3,0-0.7,0-1c0-0.3,0-0.4,0-0.5l0-2
			c0-1.4-0.2-2.3-0.6-2.9c-0.4-0.5-1-0.8-2-0.8c-1,0-1.8,0.4-2.4,1.2c-0.5,0.6-0.7,1.7-0.7,3.2l0,3.2c0,0.6,0,1,0,1.1
			c0.1,0.5,0.2,0.8,0.5,0.8c0.1,0,0.2,0,0.5-0.1c0,0,0.1,0,0.1,0c0.1,0,0.1,0,0.2,0c0.6,0,0.9,0.3,0.9,0.8c0,0.5-0.4,0.8-1.1,0.8
			c-0.3,0-0.6,0-1-0.1c-0.5-0.1-1-0.1-1.4-0.1c-0.2,0-0.5,0-1,0.1c-0.7,0.1-1.1,0.1-1.2,0.1c-0.6,0-1-0.3-1-0.8
			c0-0.5,0.3-0.8,0.9-0.8c0,0,0.1,0,0.1,0c0.1,0,0.1,0,0.1,0l0.6,0.1c0,0,0,0,0.1,0c0.4,0,0.7-0.4,0.7-1.2l0-1.3l0-3.6
			c0-1.3,0-2.2-0.1-2.5c-0.1-0.3-0.3-0.5-0.6-0.5c-0.1,0-0.3,0-0.7,0.1c-0.2,0-0.3,0-0.4,0c-0.6,0-0.9-0.2-0.9-0.8
			c0-0.5,0.3-0.8,1-0.8c0.2,0,0.4,0,0.7,0c0.3,0,0.6,0,0.8,0c0.1,0,0.2,0,0.3,0c0.1,0,0.2,0,0.2,0l0.6-0.1h0.1
			C95.9,214.8,96.1,215.1,96.1,215.5z"/>
		<path class="st0" d="M118.8,218.4l0.5,3.1c0.1,0.8,0.2,1.2,0.2,1.4c0.2,0.7,0.4,1,0.8,1c0.1,0,0.3-0.1,0.6-0.2
			c0.1,0,0.2-0.1,0.3-0.1c0.6-0.1,0.9,0.1,1,0.6c0,0.2,0,0.4-0.2,0.6c-0.2,0.2-0.4,0.3-0.7,0.3c-0.2,0-0.6,0.1-1.2,0.1
			c-0.5,0-0.9,0-1.2,0.1c-0.4,0.1-0.9,0.2-1.4,0.3c-0.6,0.2-1,0.3-1.2,0.3c-0.6,0.1-1-0.1-1.1-0.6c-0.1-0.5,0.2-0.8,0.7-0.9
			c0.1,0,0.3,0,0.6,0c0.2,0,0.4,0,0.6,0c0.4-0.1,0.5-0.6,0.5-1.6c0-0.1-0.1-0.7-0.3-2l-0.3-1.9c-0.2-1.3-0.3-2-0.3-2
			c-0.2-1-0.5-1.4-0.9-1.4c-0.1,0-0.3,0.1-0.5,0.2c-0.2,0.1-0.4,0.1-0.5,0.2c-0.6,0.1-0.9-0.1-1-0.6c-0.1-0.5,0.2-0.8,0.9-1
			c0.3,0,0.5-0.1,0.6-0.1c0.5,0,0.8,0,1-0.1c0.1,0,0.3-0.1,0.6-0.1c0.2-0.1,0.4-0.1,0.6-0.1c0.4-0.1,0.7,0.2,0.8,0.8
			c0,0.1,0,0.2,0,0.3c0,0.1,0,0.2,0,0.3c0,0.1,0.1,0.6,0.2,1.5C118.6,217.1,118.7,217.8,118.8,218.4z M116.7,212.5
			c-0.4,0.1-0.7,0-1-0.2c-0.3-0.2-0.5-0.5-0.5-0.9c-0.1-0.4,0-0.7,0.2-1c0.2-0.3,0.5-0.5,0.9-0.5c0.4-0.1,0.7,0,1,0.2
			c0.3,0.2,0.5,0.5,0.5,0.9c0.1,0.4,0,0.7-0.2,1C117.3,212.2,117,212.4,116.7,212.5z"/>
		<path class="st0" d="M133,215.1c0.1,0.6,0.2,0.9,0.2,1.1c0,0.2-0.2,0.3-0.6,0.4l-7.3,1.9c-0.2,0-0.3,0.1-0.4,0.2
			c0,0.1-0.1,0.2,0,0.3c0.3,1.2,0.9,2,1.8,2.6c0.9,0.6,1.8,0.8,2.9,0.5c0.7-0.2,1.2-0.5,1.7-1c0.5-0.5,0.7-1.1,0.7-1.7l0-0.7
			c0-0.4,0.2-0.6,0.6-0.8c0.6-0.1,0.9,0.1,1.1,0.7c0.3,1,0,2-0.8,3c-0.8,1-1.9,1.7-3.1,2c-1.6,0.4-3,0.2-4.3-0.6
			c-1.2-0.8-2.1-2.2-2.5-4c-0.5-1.9-0.4-3.5,0.4-4.9c0.7-1.4,1.9-2.3,3.5-2.8c1.4-0.4,2.7-0.2,3.9,0.5
			C131.9,212.5,132.6,213.6,133,215.1z M124.5,216.6c0.1,0.2,0.2,0.3,0.6,0.2l5.5-1.4c0.3-0.1,0.5-0.2,0.4-0.4
			c-0.2-0.8-0.7-1.4-1.5-1.9c-0.8-0.4-1.6-0.6-2.4-0.3c-0.9,0.2-1.6,0.7-2.1,1.5C124.5,215.1,124.3,215.9,124.5,216.6z"/>
		<path class="st0" d="M142.3,207l0.3,0.6c0.3-1.4,1-2.4,2.3-3c1-0.5,1.9-0.6,2.8-0.3c0.9,0.3,1.5,0.9,1.9,1.8
			c0.3,0.6,0.4,1.2,0.2,1.8c-0.1,0.5-0.5,0.9-1,1.2c-0.3,0.2-0.7,0.2-1,0.1c-0.3-0.1-0.6-0.3-0.7-0.6c-0.1-0.2-0.1-0.5,0-0.7
			c0.1-0.3,0.2-0.4,0.5-0.5c0,0,0.1,0,0.3-0.1c0-0.2,0-0.4-0.1-0.5c-0.2-0.4-0.5-0.7-1-0.8c-0.5-0.1-1-0.1-1.6,0.2
			c-1.1,0.5-1.6,1.4-1.5,2.5c0.1,0.7,0.4,1.7,0.9,3l0.7,1.4c0.4,1,0.7,1.5,0.8,1.6c0.4,0.8,0.9,1.1,1.2,0.9c0.2-0.1,0.4-0.2,0.6-0.3
			c0.1-0.1,0.3-0.2,0.4-0.2c0.5-0.2,0.8-0.1,1,0.4c0.2,0.5,0.1,0.9-0.5,1.2l-0.1,0c-0.2,0.1-0.6,0.2-1,0.4c-0.5,0.2-0.8,0.3-1,0.4
			c-0.6,0.3-1,0.5-1.3,0.7l-1.2,0.7c-0.6,0.3-1,0.2-1.2-0.3c-0.2-0.4,0-0.8,0.5-1.1c0.1-0.1,0.3-0.1,0.3-0.1l0.4-0.1
			c0.2,0,0.3-0.1,0.3-0.1c0.4-0.2,0.4-0.6,0.1-1.3l-0.5-1.1l-2.3-4.9c-0.4-0.8-0.8-1.2-1.2-1c-0.1,0.1-0.3,0.1-0.5,0.3
			c-0.2,0.1-0.3,0.2-0.4,0.3c-0.5,0.2-0.8,0.1-1-0.3c-0.2-0.5,0-0.9,0.6-1.2c0.1-0.1,0.4-0.1,0.7-0.2c0.3-0.1,0.5-0.2,0.7-0.2
			c0.1-0.1,0.3-0.2,0.5-0.3c0.1-0.1,0.2-0.2,0.4-0.2C141.8,206.4,142.1,206.5,142.3,207z"/>
		<path class="st0" d="M164.3,207.9c-1.1,0.7-2.1,0.6-2.9-0.2c-0.1,1.4-0.8,2.6-2.3,3.5c-1.1,0.7-2.1,1-3.1,0.8
			c-1-0.1-1.8-0.6-2.3-1.5c-0.7-1.1-0.7-2.2-0.1-3.3c0.2-0.4,0.5-0.8,0.7-1c0.2-0.2,0.7-0.6,1.4-1.2c1.1-0.8,1.7-1.4,1.9-1.9
			c0.2-0.4,0.1-0.9-0.2-1.5c-0.3-0.5-0.8-0.9-1.4-0.9c-0.6-0.1-1.2,0.1-1.9,0.5c-0.6,0.4-1.1,0.9-1.4,1.6c-0.1,0.3-0.1,0.5,0,0.6
			c0,0.1,0.1,0.1,0.3,0.1c0.3,0,0.5,0.2,0.7,0.5c0.2,0.3,0.2,0.6,0.1,0.8c-0.1,0.3-0.3,0.5-0.6,0.7c-0.3,0.2-0.7,0.3-1.1,0.2
			c-0.4-0.1-0.7-0.3-0.9-0.7c-0.5-0.8-0.5-1.6-0.1-2.6c0.4-1,1.1-1.8,2.2-2.5c2.4-1.5,4.4-1.1,5.9,1.2l2.5,4.1
			c0.4,0.6,0.7,1,0.8,1.1c0.4,0.4,0.7,0.5,1.1,0.3c0.5-0.3,0.4-0.9-0.1-1.7l-0.6-1c-0.3-0.4-0.2-0.8,0.2-1c0.4-0.3,0.9-0.1,1.3,0.6
			l0.1,0.1l0.7,1.1C165.9,206,165.6,207.1,164.3,207.9z M159.5,205.3l-0.9-1.4c-0.1,0.5-0.3,0.8-0.6,1.1c-0.3,0.3-0.8,0.8-1.6,1.4
			c-1.4,1.1-1.8,2.1-1.2,3.1c0.3,0.5,0.8,0.8,1.3,0.9c0.6,0.1,1.1-0.1,1.8-0.5c0.9-0.6,1.5-1.2,1.7-2.1
			C160.2,207,160,206.2,159.5,205.3z"/>
		<path class="st0" d="M163.5,194.2l0.5,0.6c-0.1-1.5,0.4-2.8,1.6-3.7c1.2-1,2.5-1.4,3.9-1.2c1.4,0.2,2.7,1.1,3.9,2.5
			c1.3,1.5,1.9,3.1,1.9,4.6c0,1.6-0.6,2.9-1.9,3.9c-1.1,0.9-2.2,1.2-3.5,1l1.3,1.5c0.4,0.5,0.6,0.8,0.8,0.9c0.4,0.3,0.7,0.4,1,0.1
			c0.1-0.1,0.2-0.2,0.3-0.4c0.1-0.2,0.3-0.3,0.3-0.4c0.4-0.3,0.8-0.3,1.1,0.1c0.3,0.4,0.2,0.8-0.3,1.2c-0.2,0.2-0.5,0.4-0.9,0.6
			c-0.3,0.2-0.7,0.5-1.2,0.9c-0.3,0.2-0.5,0.5-0.7,0.6c-0.4,0.5-0.7,0.8-0.9,0.9c-0.2,0.2-0.4,0.3-0.7,0.3c-0.2,0-0.4-0.1-0.6-0.3
			c-0.3-0.4-0.3-0.7,0.1-1.1c0.1-0.1,0.2-0.1,0.4-0.2c0.2-0.1,0.4-0.2,0.5-0.3c0.2-0.2,0.3-0.4,0.1-0.7c-0.1-0.3-0.7-1-1.6-2.1
			l-5.9-7c-0.5-0.6-0.9-0.7-1.2-0.4c-0.1,0.1-0.2,0.2-0.3,0.4c-0.1,0.2-0.2,0.3-0.4,0.4c-0.4,0.4-0.8,0.4-1.2,0
			c-0.3-0.4-0.2-0.8,0.3-1.3c0.1-0.1,0.3-0.2,0.5-0.3c0.3-0.2,0.6-0.4,0.7-0.5c0.1-0.1,0.3-0.2,0.5-0.4c0.2-0.2,0.3-0.3,0.4-0.4
			C162.9,193.8,163.2,193.8,163.5,194.2z M165.6,196.2c0.3,0.6,0.7,1.2,1.3,1.9c0,0,0.1,0.1,0.2,0.3c0.1,0.1,0.2,0.2,0.2,0.3
			c0.7,0.8,1.2,1.3,1.7,1.6c0.4,0.3,1,0.4,1.6,0.3c0.6,0,1.2-0.3,1.8-0.8c0.9-0.7,1.3-1.6,1.2-2.7c-0.1-1-0.6-2.2-1.5-3.3
			c-2-2.4-3.9-2.9-5.6-1.5c-0.6,0.5-1,1.1-1.1,1.8C165.2,194.8,165.3,195.5,165.6,196.2z"/>
		<path class="st0" d="M171.8,184c-0.2,0.3-0.6,0.4-0.9,0.4c-0.4,0-0.7-0.1-0.9-0.4c-0.3-0.2-0.4-0.6-0.4-0.9c0-0.4,0.1-0.7,0.4-0.9
			c0.2-0.3,0.6-0.4,0.9-0.4c0.4,0,0.7,0.1,0.9,0.4c0.3,0.3,0.4,0.6,0.4,0.9C172.2,183.4,172.1,183.7,171.8,184z M177.1,187.4
			l2.2,2.1c0.6,0.6,0.9,0.9,1,1c0.6,0.4,1,0.5,1.2,0.3c0.1-0.1,0.2-0.2,0.3-0.5c0-0.1,0.1-0.2,0.2-0.3c0.4-0.4,0.8-0.5,1.2-0.1
			c0.2,0.2,0.2,0.4,0.2,0.6c0,0.3-0.1,0.5-0.4,0.7c-0.2,0.2-0.5,0.4-0.9,0.8c-0.4,0.3-0.7,0.6-0.9,0.8c-0.3,0.3-0.6,0.7-0.9,1.1
			c-0.4,0.5-0.6,0.8-0.8,1c-0.4,0.5-0.9,0.5-1.2,0.1c-0.4-0.4-0.4-0.7,0-1.1c0.1-0.1,0.2-0.2,0.4-0.4c0.2-0.2,0.3-0.3,0.4-0.4
			c0.3-0.3,0.1-0.8-0.6-1.6c-0.1,0-0.5-0.5-1.5-1.4l-1.4-1.3c-0.9-0.9-1.4-1.4-1.5-1.4c-0.8-0.6-1.3-0.8-1.6-0.5
			c-0.1,0.1-0.2,0.2-0.3,0.4c-0.1,0.2-0.2,0.3-0.3,0.4c-0.4,0.4-0.8,0.4-1.1,0.1c-0.4-0.4-0.3-0.8,0.1-1.3c0.2-0.2,0.4-0.4,0.5-0.4
			c0.4-0.3,0.6-0.5,0.7-0.6c0.1-0.1,0.2-0.2,0.4-0.5c0.2-0.2,0.3-0.4,0.4-0.5c0.3-0.3,0.7-0.3,1.1,0.2c0,0,0.1,0.1,0.2,0.2
			c0.1,0.1,0.1,0.2,0.2,0.2c0.1,0.1,0.4,0.4,1,1.1C176.2,186.5,176.7,187,177.1,187.4z"/>
		<path class="st0" d="M178.9,177.2c1-1.2,2.2-1.8,3.6-1.7l-1.9-1.5c-0.5-0.4-0.8-0.6-0.9-0.7c-0.4-0.2-0.8-0.2-1,0.1
			c-0.1,0.1-0.2,0.3-0.3,0.5c-0.1,0.2-0.2,0.4-0.3,0.5c-0.4,0.5-0.7,0.5-1.1,0.2c-0.4-0.3-0.4-0.8,0.1-1.4c0.1-0.1,0.2-0.3,0.5-0.5
			c0.3-0.4,0.5-0.6,0.5-0.6c0.1-0.1,0.2-0.3,0.3-0.5c0.1-0.2,0.2-0.4,0.3-0.5c0.3-0.3,0.7-0.3,1.2,0.1l0.2,0.2c0,0,0.4,0.3,1,0.8
			c0.1,0.1,0.5,0.5,1.4,1.2c0.6,0.5,1.1,0.9,1.4,1.1l1.8,1.4l3.1,2.4c0.8,0.6,1.4,1,1.6,1.1c0.2,0.1,0.5,0,0.7-0.2
			c0.1-0.2,0.2-0.3,0.3-0.4c0.1-0.2,0.2-0.4,0.3-0.4c0.4-0.5,0.7-0.6,1.2-0.2c0.4,0.3,0.4,0.8,0,1.3c-0.1,0.1-0.3,0.3-0.5,0.5
			c-0.2,0.2-0.4,0.4-0.5,0.5c0,0-0.1,0.2-0.3,0.5c-0.1,0.2-0.2,0.3-0.2,0.4c-0.3,0.3-0.6,0.3-1.1,0l-0.1-0.1l-0.3-0.2
			c0.4,1.4,0.1,2.7-0.9,3.9c-1,1.3-2.2,1.9-3.8,2c-1.5,0.1-3-0.5-4.5-1.7c-1.5-1.2-2.4-2.5-2.7-4
			C177.6,179.8,177.9,178.5,178.9,177.2z M187.6,179.6c-0.4-0.4-0.9-0.8-1.5-1.3c-0.8-0.7-1.4-1.1-1.8-1.2c-0.7-0.4-1.4-0.5-2.1-0.3
			c-0.8,0.2-1.5,0.6-2,1.3c-0.7,0.9-0.9,1.8-0.6,2.8c0.3,1,1,2,2.1,2.9c1.2,0.9,2.3,1.4,3.4,1.4c1.1,0,2-0.4,2.7-1.3
			c0.5-0.7,0.8-1.4,0.7-2.2C188.5,180.9,188.2,180.2,187.6,179.6z"/>
		<path class="st0" d="M194,163.6c0.5,0.3,0.8,0.5,0.9,0.7c0.1,0.1,0,0.4-0.2,0.7l-3.8,6.5c-0.1,0.2-0.1,0.3-0.1,0.4
			c0,0.1,0.1,0.2,0.2,0.2c1,0.6,2.1,0.8,3.1,0.6c1.1-0.2,1.8-0.8,2.4-1.7c0.3-0.6,0.5-1.2,0.5-1.9c0-0.7-0.3-1.3-0.7-1.7l-0.5-0.5
			c-0.3-0.3-0.3-0.6-0.1-1c0.3-0.5,0.7-0.6,1.2-0.3c0.9,0.5,1.4,1.4,1.6,2.7c0.2,1.3-0.1,2.5-0.8,3.7c-0.8,1.4-2,2.3-3.4,2.6
			c-1.5,0.3-3,0-4.6-1c-1.7-1-2.8-2.2-3.3-3.7c-0.5-1.5-0.4-3,0.5-4.4c0.8-1.3,1.8-2.1,3.1-2.4C191.4,162.6,192.7,162.8,194,163.6z
			 M189.2,170.8c0.2,0.1,0.4,0,0.5-0.3l2.9-4.9c0.2-0.3,0.2-0.5,0-0.6c-0.7-0.4-1.5-0.5-2.4-0.3c-0.9,0.2-1.5,0.7-1.9,1.5
			c-0.4,0.8-0.6,1.6-0.4,2.6C188.1,169.7,188.5,170.4,189.2,170.8z"/>
	</g>
</g>
</svg>
