<?xml version="1.0" encoding="utf-8"?>
<!-- Generator: Adobe Illustrator 20.1.0, SVG Export Plug-In . SVG Version: 6.00 Build 0)  -->
<svg version="1.1" id="Calque_1" xmlns="http://www.w3.org/2000/svg" xmlns:xlink="http://www.w3.org/1999/xlink" x="0px" y="0px"
	 viewBox="0 0 187 300" style="enable-background:new 0 0 187 300;" xml:space="preserve">
<style type="text/css">
	.st0{fill:#9D9E9F;}
	.st1{fill:#C2E7F4;}
	.st2{fill:#56C9F2;}
	.st3{fill:#F5943D;}
</style>
<g>
	<polygon class="st0" points="187,0 185,0 183.6,4.5 187,10 	"/>
	<polygon class="st1" points="187,10.6 182.5,3.2 50.6,96.1 187,111 	"/>
	<polygon class="st2" points="126.4,299.2 185.6,280.3 173.1,259.3 119.5,264.6 29.3,55.3 0.6,184.5 	"/>
	<path d="M187,274.9l-12.4-18.8L187,237v-5.6l-13.8,21.1l-41.6-32.2l55.4-41.7v-5.1l-58.1,43.8L59.5,98.8L187,112.1v-2L51.9,96
		L181.1,5.6L187,15V6.3l-2.3-3.8l0.8-2.5h-4.1l-0.7,2l-4.8-2h-10.5l13.1,5.4L49.3,94.1l0-0.1l3.3-80.3L95.6,0h-3.3L36.5,17.8
		L0,184.7l126.3,115.1l60.7-19.3V274.9z M130.7,222.1l42.3,33.7l-50.7,7.4L130.7,222.1z M57,98.5l70.3,120.1l-8.2,40.1L50.9,97.9
		L57,98.5z M37.4,18.5l11.9-3.8l-1.8,74.8L30.5,49.8L37.4,18.5z M1.1,184.3l28-127.8l88.6,209.2c0,0,1.3,0.9,1.3,0.9l3.7,0.6
		l49.7-6.1l13,18.8l-58.8,18.7L1.1,184.3z"/>
	<polygon points="100,123.1 100,146.2 103.1,146.2 103.1,123.1 107.2,123.1 107.2,120 95.8,120 95.8,123.1 	"/>
	<polygon points="120.3,143.1 113.3,143.1 113.3,132.4 119.4,132.4 119.4,129.4 113.3,129.4 113.3,123.1 120.3,123.1 120.3,120 
		110.2,120 110.2,146.2 120.3,146.2 	"/>
	<polygon points="126.7,146.2 129.8,146.2 129.8,123.1 133.9,123.1 133.9,120 122.6,120 122.6,123.1 126.7,123.1 	"/>
	<path d="M140.3,137.6h2.6c1.4,0,2.6,1.2,2.6,2.6v6h3.1v-6c0-1.6-0.7-3.1-1.9-4.2c1-1,1.7-2.5,1.7-3.9v-6.5c0-3.1-2.5-5.6-5.6-5.6
		h-5.6v26.1h3.1V137.6z M140.3,123.1h2.5c1.4,0,2.5,1.1,2.5,2.5v6.5c0,1.3-1,2.5-2.3,2.5h-2.6V123.1z"/>
	<path class="st3" d="M156,146.2h3.1v-12.6l6-13.5h-3.4c-1.3,2.9-2.8,6.3-4.1,9.4l-4.1-9.4H150c1.8,4.2,4.1,9.3,6,13.5V146.2z"/>
	<path d="M172.5,146.3c3.2,0,5.9-2.5,5.9-5.6V137c0-3.1-2.8-5.1-5.8-5.3c-1.5-0.1-2.8-0.9-2.8-2.3v-3.8c0-1.3,1.2-2.5,2.8-2.5
		c1.5,0,2.8,1.1,2.8,2.5v2.6h3.1v-2.6c0-3.1-2.6-5.6-5.9-5.6c-3.3,0-5.9,2.5-5.9,5.6v3.8c0,3,2.7,5.3,5.8,5.3c1.5,0,2.8,0.9,2.8,2.3
		v3.7c0,1.3-1.2,2.5-2.8,2.5c-1.5,0-2.8-1.2-2.8-2.5v-2.5h-3.1v2.5C166.7,143.8,169.3,146.3,172.5,146.3z"/>
	<path d="M99.6,157.5v-6.7H99v6.7c0,0.1,0,0.2,0,0.2c0,0,0,0,0,0.1c0,0,0,0.1,0,0.1c0,0,0,0-0.1,0.1c0,0,0,0.1-0.1,0.1
		c0,0-0.1,0-0.1,0.1c0,0-0.1,0.1-0.1,0.1c0,0-0.1,0-0.1,0c0,0-0.1,0-0.1,0.1c0,0-0.1,0-0.1,0c-0.1,0-0.1,0-0.2,0c-0.1,0-0.1,0-0.2,0
		c-0.1,0-0.1,0-0.2,0c-0.1,0-0.1,0-0.2,0c-0.1,0-0.1,0-0.2,0c0,0,0,0-0.1,0v0.6h0.6C98.8,159.1,99.6,158.6,99.6,157.5z"/>
	<polygon points="103.9,150.8 100.7,150.8 100.7,159.1 103.9,159.1 103.9,158.4 101.4,158.4 101.4,154.5 103.6,154.5 103.6,154 
		101.4,154 101.4,151.5 103.9,151.5 	"/>
	<path d="M108.4,157.4v-6.6h-0.7v6.6c0,0.3-0.1,0.6-0.4,0.7c-0.2,0.2-0.5,0.3-0.8,0.3c-0.3,0-0.6-0.1-0.8-0.3
		c-0.2-0.2-0.4-0.5-0.4-0.7v-6.6h-0.7v6.6c0,0.5,0.2,0.9,0.5,1.2c0.2,0.2,0.4,0.3,0.6,0.4c0.2,0.1,0.5,0.1,0.7,0.1
		C107.6,159.2,108.4,158.4,108.4,157.4z"/>
	<path d="M113.4,159.1h0.8l-1.9-4c0.5-1,0.8-1.8,1.9-4.3h-0.8c-0.5,1.2-1.1,2.5-1.6,3.7l-1.6-3.7h-0.8c0.6,1.3,1.3,3,1.9,4.3l-1.9,4
		h0.7c0.1-0.3,0.3-0.6,0.4-0.9c0.4-0.9,0.8-1.7,1.2-2.6L113.4,159.1z"/>
	<path d="M118.9,150.8h-1.8l0,8.3h1.8c0.9,0,1.8-0.7,1.8-1.7v-4.9C120.6,151.5,119.8,150.8,118.9,150.8z M120,157.4
		c0,0.6-0.5,1-1.1,1h-1.1h0v-7h0h1.1c0.6,0,1.1,0.4,1.1,1V157.4z"/>
	<polygon points="124.8,158.4 122.3,158.4 122.3,154.5 124.6,154.5 124.6,154 122.3,154 122.3,151.5 124.8,151.5 124.8,150.8 
		121.7,150.8 121.7,159.1 124.8,159.1 	"/>
	<path d="M129.5,150.8h-1.8l0,8.3h0.7v-2.7h1.1c1,0,1.8-0.8,1.8-1.8v-2.1C131.3,151.6,130.5,150.8,129.5,150.8z M130.6,154.6
		c0,0.6-0.5,1.1-1.1,1.1h-1.1v-4.2h1.1c0.6,0,1.1,0.5,1.1,1.1V154.6z"/>
	<polygon points="135.3,150.8 132.1,150.8 132.1,159.1 135.3,159.1 135.3,158.4 132.7,158.4 132.7,154.5 135,154.5 135,154 
		132.7,154 132.7,151.5 135.3,151.5 	"/>
	<path d="M139.8,159.1v-1.9c0-0.5-0.3-1-0.8-1.3c0.4-0.3,0.7-0.8,0.7-1.2v-2.1c0-1-0.8-1.8-1.8-1.8h-1.8l0,8.3h0.7v-2.9h1.1
		c0.6,0,1.1,0.5,1.1,1v1.9H139.8z M138,155.6h-1.1v-4.1h1.1c0.6,0,1.1,0.5,1.1,1.1v2.1C139,155.1,138.6,155.6,138,155.6z"/>
	<path d="M144.6,157.4v-1.2c0-0.9-0.9-1.4-1.8-1.5c-0.6,0-1.2-0.4-1.2-0.9v-1.2c0-0.6,0.5-1.1,1.2-1.1c0.6,0,1.2,0.5,1.2,1.1v0.8
		h0.7v-0.8c0-1-0.8-1.8-1.9-1.8c-0.4,0-0.7,0.1-1,0.3c-0.5,0.3-0.8,0.9-0.8,1.5v1.2c0,0.5,0.2,0.8,0.6,1.1s0.8,0.4,1.3,0.4
		c0.6,0,1.2,0.3,1.2,0.8v1.2c0,0.6-0.5,1.1-1.2,1.1c-0.3,0-0.6-0.1-0.8-0.3c-0.2-0.2-0.4-0.5-0.4-0.8v-0.8h-0.7v0.8
		c0,0.5,0.2,0.9,0.5,1.2c0.3,0.3,0.8,0.5,1.3,0.5C143.7,159.1,144.6,158.4,144.6,157.4z"/>
	<path d="M147.3,150.8h-1.8l0,8.3h0.7v-2.7h1.1c1,0,1.8-0.8,1.8-1.8v-2.1C149.1,151.6,148.3,150.8,147.3,150.8z M148.4,154.6
		c0,0.6-0.5,1.1-1.1,1.1h-1.1v-4.2h1.1c0.6,0,1.1,0.5,1.1,1.1V154.6z"/>
	<polygon points="153,150.8 149.9,150.8 149.9,159.1 153,159.1 153,158.4 150.5,158.4 150.5,154.5 152.8,154.5 152.8,154 150.5,154 
		150.5,151.5 153,151.5 	"/>
	<path d="M157.8,157.4v-0.6h-0.7v0.6c0,0.6-0.6,1.1-1.2,1.1c-0.7,0-1.4-0.5-1.4-1.1v-4.8c0-0.6,0.7-1.1,1.4-1.1
		c0.6,0,1.2,0.5,1.2,1.1v0.5h0.7v-0.5c0-1-0.8-1.8-1.9-1.8c-1.1,0-2.1,0.8-2.1,1.8v4.8c0,1,1,1.8,2.1,1.8
		C157,159.2,157.8,158.4,157.8,157.4z"/>
	<polygon points="162.1,150.8 158.5,150.8 158.5,151.5 160,151.5 160,159.1 160.7,159.1 160.7,151.5 162.1,151.5 	"/>
	<polygon points="163.1,159.1 163.8,159.1 163.8,150.8 163.1,150.8 	"/>
	<polygon points="166.9,158.3 165.5,150.8 164.8,150.8 166.3,159.1 167.6,159.1 169.1,150.8 168.4,150.8 	"/>
	<polygon points="173.1,150.8 169.9,150.8 169.9,159.1 173.1,159.1 173.1,158.4 170.6,158.4 170.6,154.5 172.8,154.5 172.8,154 
		170.6,154 170.6,151.5 173.1,151.5 	"/>
	<path d="M176.8,158.8c0.5-0.3,0.8-0.9,0.8-1.5v-1.2c0-0.9-0.9-1.4-1.8-1.5c-0.6,0-1.2-0.4-1.2-0.9v-1.2c0-0.6,0.5-1.1,1.2-1.1
		c0.6,0,1.2,0.5,1.2,1.1v0.8h0.7v-0.8c0-1-0.8-1.8-1.9-1.8c-1,0-1.9,0.8-1.9,1.8v1.2c0,0.9,0.9,1.6,1.8,1.6c0.2,0,0.3,0,0.5,0.1
		c0.3,0.1,0.5,0.2,0.6,0.4c0.1,0.1,0.1,0.2,0.1,0.3v1.2c0,0.6-0.5,1.1-1.2,1.1c-0.6,0-1.2-0.5-1.2-1.1v-0.8h-0.7v0.8
		c0,1,0.8,1.8,1.9,1.8C176.1,159.1,176.5,159,176.8,158.8z"/>
</g>
</svg>
