<?xml version="1.0" encoding="utf-8"?>
<!-- Generator: Adobe Illustrator 20.1.0, SVG Export Plug-In . SVG Version: 6.00 Build 0)  -->
<svg version="1.1" id="Calque_1" xmlns="http://www.w3.org/2000/svg" xmlns:xlink="http://www.w3.org/1999/xlink" x="0px" y="0px"
	 viewBox="0 0 787.9 999.1" style="enable-background:new 0 0 787.9 999.1;" xml:space="preserve">
<style type="text/css">
	.st0{fill:#FDCE83;}
	.st1{fill:#F59B00;}
	.st2{fill:#A7A4A3;}
	.st3{fill:#CFEBF9;}
	.st4{fill:#67C8F3;}
	.st5{fill:#13110C;}
	.st6{fill:#010202;}
	.st7{fill:#F49520;}
</style>
<g>
	<polygon class="st0" points="683.4,0 735.3,217.9 785.3,0 	"/>
	<polygon class="st1" points="786.5,0 785.3,0 735.3,213.3 787.9,295.2 787.9,1.3 	"/>
	<polygon class="st2" points="616.5,0 612,15.1 733.8,212.5 679.9,0 	"/>
	<polygon class="st3" points="787.9,303.7 608.2,10.6 168.8,320.4 787.9,388.1 	"/>
	<polygon class="st4" points="421.4,997.2 618.7,934.4 576.9,864.1 398.3,882 97.8,184.2 1.8,615 	"/>
	<path class="st5" d="M787.9,518.6L577.4,841.9L438.8,734.5l349.2-263v-17.2L429.6,724.6L198.4,329.2l589.5,61.5V384l-614.8-64.1
		L603.6,18.6l184.3,294.6v-26l-48.6-78.5L787.8,3.4l0.1,0.1V0h-6.7l-44.8,203.9l-3.8-6.2L684.7,0h-5.6l48,188.8L615.4,8.4l2.5-8.4
		h-13.8l-2.4,6.7L585.8,0h-34.9l43.8,17.9L164.4,313.5l-0.1-0.2l11.1-267.7L318.6,0h-11L121.7,59.2L0,615.5l421,383.6l367-116.8
		v-3.5l-156.6,49.8l-49.3-74.8l205.8-318.7V518.6z M124.6,61.8l39.5-12.6l-6,249.4l-56.3-132.7L124.6,61.8z M617.7,933l-195.9,62.4
		L3.7,614.4l93.2-426l295.3,697.2c0,0,4.2,2.9,4.4,3.1l12.2,1.8l165.7-20.3L617.7,933z M435.6,740.1l140.8,112.2l-168.8,24.8
		L435.6,740.1z M190.1,328.3l234.1,400.3l-27.3,133.8L169.8,326.2L190.1,328.3z"/>
	<polygon class="st6" points="370.9,433.6 370.9,510.5 381.2,510.5 381.2,433.6 394.8,433.6 394.8,423.4 357.1,423.4 357.1,433.6 	
		"/>
	<polygon class="st6" points="438.5,500.3 415.3,500.3 415.3,464.8 435.7,464.8 435.7,454.5 415.3,454.5 415.3,433.6 438.5,433.6 
		438.5,423.4 405,423.4 405,510.5 438.5,510.5 	"/>
	<polygon class="st6" points="460,510.5 470.2,510.5 470.2,433.6 483.9,433.6 483.9,423.4 446.1,423.4 446.1,433.6 460,433.6 	"/>
	<path class="st6" d="M505.1,481.9h8.7c4.6,0,8.5,3.9,8.5,8.6v19.9h10.3v-19.9c0-5.2-2.2-10.5-6.3-14.1c3.3-3.4,5.5-8.2,5.5-13
		v-21.5c0-10.2-8.4-18.6-18.7-18.6h-18.6v87.1h10.3v-28.5H505.1z M505.1,433.6h8.2c4.6,0,8.2,3.7,8.2,8.3v21.5
		c0,4.4-3.4,8.2-7.8,8.2h-8.6V433.6z"/>
	<path class="st7" d="M557.6,510.5h10.2v-42l19.8-45.1h-11.2c-4.3,9.8-9.3,20.9-13.8,31.2l-13.8-31.2h-11.2
		c6.1,13.9,13.8,31.1,19.8,45.1v42H557.6z"/>
	<path class="st6" d="M612.7,510.9c10.7,0,19.5-8.3,19.5-18.6v-12.5c0-10.2-9.5-16.9-19.3-17.6c-5.1-0.3-9.5-3.1-9.5-7.6v-12.8
		c0-4.5,4.1-8.3,9.3-8.3c5,0,9.3,3.7,9.3,8.3v8.7h10.2v-8.7c0-10.2-8.6-18.6-19.5-18.6s-19.6,8.3-19.6,18.6v12.8
		c0,10.1,9.1,17.6,19.4,17.6c5,0,9.4,3.1,9.4,7.6v12.5c0,4.5-4.1,8.3-9.2,8.3c-5.1,0-9.4-3.8-9.4-8.3v-8.4h-10.2v8.4
		C593.1,502.6,601.8,510.9,612.7,510.9z"/>
	<path class="st6" d="M369.6,526h-2.2v22.5c0,0.3,0,0.5-0.1,0.8c0,0.1-0.1,0.1-0.1,0.2c0,0.2-0.1,0.3-0.2,0.4c0,0.1-0.1,0.1-0.2,0.2
		c-0.1,0.1-0.2,0.2-0.3,0.3c-0.1,0.1-0.2,0.1-0.3,0.2c-0.1,0.1-0.2,0.2-0.3,0.2c-0.1,0.1-0.2,0.1-0.3,0.1c-0.1,0.1-0.3,0.1-0.4,0.2
		c-0.1,0-0.3,0.1-0.4,0.1c-0.2,0-0.3,0.1-0.5,0.1s-0.4,0-0.5,0.1c-0.2,0-0.4,0.1-0.6,0.1s-0.4,0-0.6,0s-0.4,0-0.6,0
		c-0.1,0-0.1,0-0.2,0v2h2.1c3.2,0,5.8-1.6,5.8-5.2L369.6,526L369.6,526z"/>
	<polygon class="st6" points="383.8,551.4 375.4,551.4 375.4,551.4 375.4,538.5 382.9,538.5 382.9,536.6 375.4,536.6 375.4,528.2 
		383.8,528.2 383.8,526 373.2,526 373.2,553.6 383.8,553.6 	"/>
	<path class="st6" d="M399,526h-2.3v22c0,0.7-0.3,1.4-0.7,2c-0.1,0.2-0.3,0.4-0.5,0.5c-0.4,0.3-0.8,0.6-1.3,0.8s-1,0.3-1.5,0.3
		s-1-0.1-1.5-0.3c-1.4-0.6-2.4-1.8-2.4-3.3v-22h-2.2v22c0,0.4,0.1,0.8,0.1,1.2c0.3,1.1,0.9,2.1,1.7,2.9c1.1,1,2.6,1.7,4.3,1.7
		c0.8,0,1.7-0.2,2.4-0.5c2.2-0.9,3.8-2.9,3.8-5.3v-22H399z"/>
	<path class="st6" d="M418.1,553.6l-6.5-13.4c0.6-1.2,1.1-2.3,1.8-3.7c0.1-0.2,0.2-0.5,0.3-0.7c0.2-0.5,0.5-1,0.7-1.6
		c0.9-2,2.1-4.6,3.7-8.1h-2.5c-1.7,3.9-3.7,8.4-5.4,12.4l-5.4-12.4h-2.5c2,4.4,4.5,9.8,6.5,14.2l-6.5,13.4h2.5
		c1.7-3.9,3.7-7.4,5.4-11.7l5.4,11.7h2.5V553.6z"/>
	<path class="st6" d="M433.8,526h-5.9v27.6h5.9c3.1,0,5.9-2.4,5.9-5.6v-16.5C439.7,528.4,436.9,526,433.8,526z M437.4,548.1
		L437.4,548.1c0,1.2-0.7,2.3-1.7,2.9c-0.6,0.4-1.3,0.6-2,0.6H430v-23.3h3.7c1.9,0,3.6,1.4,3.6,3.4v16.4H437.4z"/>
	<polygon class="st6" points="453.7,526 443.1,526 443.1,553.6 453.7,553.6 453.7,551.4 445.3,551.4 445.3,551.4 445.3,538.5 
		452.8,538.5 452.8,536.6 445.3,536.6 445.3,528.2 453.7,528.2 	"/>
	<path class="st6" d="M471.7,526.5c-0.7-0.3-1.5-0.5-2.3-0.5h-5.9v27.6h2.2v-9.1h3.6c3.2,0,5.9-2.6,5.9-5.9v-6.8
		c0-0.4,0-0.8-0.1-1.2C474.7,528.8,473.4,527.2,471.7,526.5z M473,538.7c0,0.5-0.1,0.9-0.3,1.4c-0.3,0.6-0.8,1.2-1.3,1.6
		c-0.6,0.4-1.3,0.6-2,0.6h-3.6l0,0v-14.1h3.6c1.9,0,3.6,1.7,3.6,3.7L473,538.7L473,538.7z"/>
	<polygon class="st6" points="488.4,526 477.8,526 477.8,553.6 488.4,553.6 488.4,551.4 480,551.4 480,551.4 480,538.5 487.5,538.5 
		487.5,536.6 480,536.6 480,528.2 488.4,528.2 	"/>
	<path class="st6" d="M500.8,542.9L500.8,542.9L500.8,542.9c0.2-0.1,0.4-0.3,0.5-0.4c0.2-0.1,0.3-0.3,0.5-0.5c0.3-0.3,0.6-0.7,0.8-1
		c0.4-0.7,0.7-1.5,0.7-2.2V532c0-0.4,0-0.8-0.1-1.2c-0.4-1.9-1.7-3.5-3.5-4.2c-0.7-0.3-1.5-0.5-2.3-0.5h-5.9v27.6h2.2V544l0,0h3.8
		c2,0,3.7,1.6,3.7,3.4v6.3h2.3v-6.3c0-0.8-0.2-1.7-0.7-2.4S501.7,543.4,500.8,542.9z M497.5,542h-3.8l0,0v-13.8h3.6
		c2.1,0,3.6,1.6,3.6,3.7v6.8c0,0.4-0.1,0.9-0.3,1.2C500.2,541.1,499,542,497.5,542z"/>
	<path class="st6" d="M515.6,526.5c-0.7-0.3-1.6-0.5-2.4-0.5s-1.7,0.2-2.4,0.5c-1.9,0.7-3.3,2.3-3.7,4.2c-0.1,0.4-0.1,0.8-0.1,1.2
		v4.1c0,0.4,0,0.7,0.1,1.1c0.6,2.4,3.2,4.2,6,4.2c0.8,0,1.5,0.2,2.2,0.4c1.1,0.5,1.8,1.3,1.8,2.3v4l0,0c0,0.5-0.1,1-0.3,1.4
		c-0.6,1.3-2,2.3-3.6,2.3c-1.6,0-3-1-3.7-2.3c-0.2-0.4-0.3-0.9-0.3-1.4l0,0v-2.7H507v2.7c0,2.4,1.6,4.5,3.8,5.4
		c0.7,0.3,1.6,0.5,2.4,0.5c0.8,0,1.7-0.2,2.4-0.5c2.2-0.9,3.8-3,3.8-5.4v-4c0-0.7-0.2-1.4-0.5-1.9c-1-1.7-3.3-2.8-5.6-3
		c-0.5,0-1-0.1-1.5-0.3c-1.4-0.5-2.5-1.4-2.5-2.8v-4.1c0-1.9,1.7-3.7,4-3.7c2.1,0,4,1.6,4,3.7v2.8h2.2v-2.8c0-0.4,0-0.8-0.1-1.2
		C518.9,528.8,517.5,527.2,515.6,526.5z"/>
	<path class="st6" d="M530.9,526.5c-0.7-0.3-1.5-0.5-2.3-0.5h-5.9v27.6h2.2v-9.1h3.6c3.2,0,5.9-2.6,5.9-5.9v-6.8
		c0-0.4,0-0.8-0.1-1.2C534,528.8,532.7,527.2,530.9,526.5z M532.3,538.7c0,0.5-0.1,0.9-0.3,1.4c-0.3,0.6-0.8,1.2-1.3,1.6
		c-0.6,0.4-1.3,0.6-2,0.6H525l0,0v-14.1h3.6c1.9,0,3.6,1.7,3.6,3.7v6.8H532.3z"/>
	<polygon class="st6" points="547.7,526 537.1,526 537.1,553.6 547.7,553.6 547.7,551.4 539.3,551.4 539.3,551.4 539.3,538.5 
		546.8,538.5 546.8,536.6 539.3,536.6 539.3,528.2 547.7,528.2 	"/>
	<path class="st6" d="M559.8,526.5c-0.7-0.3-1.6-0.5-2.4-0.5c-0.9,0-1.8,0.2-2.6,0.5c-2.1,0.7-3.6,2.3-4.1,4.2
		c-0.1,0.4-0.1,0.8-0.1,1.2V548c0,2,1.3,3.8,3.1,4.9c1.1,0.6,2.4,1,3.8,1c1.3,0,2.5-0.4,3.5-1c1.7-1.1,2.7-2.9,2.7-4.9v-2h-2.3v2
		l0,0c0,0.7-0.3,1.4-0.7,2c-0.7,1-1.9,1.7-3.3,1.7c-1.5,0-3-0.7-3.8-1.7c-0.5-0.6-0.8-1.3-0.8-2l0,0v-16.1c0-1.9,2.2-3.7,4.6-3.7
		c2.1,0,4,1.7,4,3.7v1.8h2.3v-1.8c0-0.4,0-0.8-0.1-1.2C563.1,528.8,561.7,527.2,559.8,526.5z"/>
	<polygon class="st6" points="577.9,526 565.9,526 565.9,528.2 570.9,528.2 570.9,553.6 573.1,553.6 573.1,528.2 577.9,528.2 	"/>
	<polygon class="st6" points="581.4,553.6 583.7,553.6 583.7,526 581.3,526 	"/>
	<polygon class="st6" points="594,550.8 589.1,526 586.8,526 591.9,553.6 596.1,553.6 601.1,526 598.8,526 	"/>
	<polygon class="st6" points="614.5,526 603.9,526 603.9,553.6 614.5,553.6 614.5,551.4 606.1,551.4 606.1,551.4 606.1,538.5 
		613.6,538.5 613.6,536.6 606.1,536.6 606.1,528.2 614.5,528.2 	"/>
	<path class="st6" d="M625.7,526.5c-0.7-0.3-1.6-0.5-2.4-0.5c-0.9,0-1.7,0.2-2.4,0.5c-1.9,0.7-3.3,2.3-3.7,4.2
		c-0.1,0.4-0.1,0.8-0.1,1.2v4.1c0,0.4,0,0.7,0.1,1.1c0.6,2.4,3.2,4.2,6,4.2c0.8,0,1.5,0.2,2.2,0.4c1.1,0.5,1.8,1.3,1.8,2.3v4l0,0
		c0,0.5-0.1,1-0.3,1.4c-0.6,1.3-1.9,2.3-3.6,2.3c-1.6,0-3-1-3.7-2.3c-0.2-0.4-0.3-0.9-0.3-1.4l0,0v-2.7h-2.2v2.7
		c0,2.4,1.6,4.5,3.8,5.4c0.7,0.3,1.6,0.5,2.4,0.5c0.8,0,1.7-0.2,2.4-0.5c2.2-0.9,3.8-3,3.8-5.4v-4c0-0.7-0.2-1.4-0.5-1.9
		c-1-1.7-3.3-2.8-5.6-3c-0.5,0-1.1-0.1-1.5-0.3c-1.4-0.5-2.5-1.4-2.5-2.8v-4.1c0-1.9,1.7-3.7,4-3.7c2.1,0,4,1.6,4,3.7v2.8h2.2v-2.8
		c0-0.4,0-0.8-0.1-1.2C628.9,528.8,627.6,527.2,625.7,526.5z"/>
</g>
</svg>
