<?xml version="1.0" encoding="utf-8"?>
<!-- Generator: Adobe Illustrator 23.0.6, SVG Export Plug-In . SVG Version: 6.00 Build 0)  -->
<svg version="1.1"
	 id="svg3476" inkscape:version="0.91 r13725" sodipodi:docname="CSS3.svg" xmlns:cc="http://creativecommons.org/ns#" xmlns:dc="http://purl.org/dc/elements/1.1/" xmlns:inkscape="http://www.inkscape.org/namespaces/inkscape" xmlns:rdf="http://www.w3.org/1999/02/22-rdf-syntax-ns#" xmlns:sodipodi="http://sodipodi.sourceforge.net/DTD/sodipodi-0.dtd" xmlns:svg="http://www.w3.org/2000/svg"
	 xmlns="http://www.w3.org/2000/svg" xmlns:xlink="http://www.w3.org/1999/xlink" x="0px" y="0px" viewBox="0 0 150 150"
	 style="enable-background:new 0 0 150 150;" xml:space="preserve">
<style type="text/css">
	.st0{fill:#264DE4;}
	.st1{fill:#2965F1;}
	.st2{fill:#EBEBEB;}
	.st3{fill:#FFFFFF;}
	.st4{fill:none;}
</style>
<sodipodi:namedview  bordercolor="#666666" borderopacity="1.0" fit-margin-bottom="0" fit-margin-left="0" fit-margin-right="0" fit-margin-top="0" id="base" inkscape:current-layer="layer1" inkscape:cx="181.367" inkscape:cy="256" inkscape:document-units="px" inkscape:pageopacity="0.0" inkscape:pageshadow="2" inkscape:window-height="704" inkscape:window-maximized="1" inkscape:window-width="1366" inkscape:window-x="0" inkscape:window-y="27" inkscape:zoom="0.35" pagecolor="#ffffff" showgrid="false">
	</sodipodi:namedview>
<g id="layer1" transform="translate(-193.633,-276.3622)" inkscape:groupmode="layer" inkscape:label="Calque 1">
	<g id="g3013" transform="translate(119,276.3622)">
		<polygon id="polygon2989" class="st0" points="202.8,29.5 193.1,137.9 149.6,150 106.2,137.9 96.5,29.5 		"/>
		<polygon id="polygon2991" class="st1" points="184.8,131 193.1,38.3 149.6,38.3 149.6,140.8 		"/>
		<polygon id="polygon2993" class="st2" points="118.7,78.6 119.9,91.9 149.6,91.9 149.6,78.6 		"/>
		<polygon id="polygon2995" class="st2" points="149.6,51.7 149.6,51.7 116.3,51.7 117.5,64.9 149.6,64.9 		"/>
		<polygon id="polygon2997" class="st2" points="149.6,127 149.6,113.1 149.6,113.2 134.7,109.1 133.8,98.6 126.6,98.6 120.5,98.6 
			122.3,119.4 149.6,127 		"/>
		<path id="path2999" inkscape:connector-curvature="0" d="M121.5,0h16.1v6.8h-9.4v6.8h9.4v6.8h-16.1L121.5,0L121.5,0z"/>
		<path id="path3001" inkscape:connector-curvature="0" d="M140.8,0h16.1v5.8h-9.4V7h9.4v13.5h-16.1v-6.1h9.4v-1.2h-9.4V0z"/>
		<path id="path3003" inkscape:connector-curvature="0" d="M160.2,0h16.1v5.8h-9.4V7h9.4v13.5h-16.1v-6.1h9.4v-1.2h-9.4V0z"/>
		<polygon id="polygon3005" class="st3" points="166,91.9 164.4,109.1 149.6,113.1 149.6,127 176.9,119.4 177.1,117.2 180.2,82.1 
			180.5,78.6 182.9,51.7 149.6,51.7 149.6,64.9 168.3,64.9 167.1,78.6 149.6,78.6 149.6,91.9 		"/>
	</g>
</g>
<rect class="st4" width="150" height="150"/>
</svg>
