<?xml version="1.0" encoding="utf-8"?>
<!-- Generator: Adobe Illustrator 23.0.6, SVG Export Plug-In . SVG Version: 6.00 Build 0)  -->
<svg version="1.1" id="Calque_1" xmlns="http://www.w3.org/2000/svg" xmlns:xlink="http://www.w3.org/1999/xlink" x="0px" y="0px"
	 viewBox="0 0 150 150" style="enable-background:new 0 0 150 150;" xml:space="preserve">
<style type="text/css">
	.st0{fill:#F89920;}
	.st1{fill:#FFBE22;}
	.st2{fill:#F0670A;}
	.st3{fill:#FFD00E;}
	.st4{fill:none;}
</style>
<g>
	<polygon class="st0" points="15.6,100 0,82.4 47.9,65 55.4,85.5 	"/>
	<polygon class="st1" points="15.6,99.6 14.8,123.1 62.8,105.7 55.3,85.1 	"/>
	<path class="st2" d="M148.7,51.5c6.8,19.8-15.2,45.8-49.5,58.3s-67.9,6.7-75.4-12.9L148.7,51.5z"/>
	<path class="st3" d="M148.7,51.5c-7.4-19.6-41.1-25.4-75.4-13S16.9,77.2,23.8,97L148.7,51.5z"/>
	<path class="st0" d="M148.7,51.5c4.3,13.3-19.7,33.9-53.8,46.3s-65.8,12-71-0.9L148.7,51.5z"/>
	<path class="st1" d="M148.7,51.5c-5.2-13-36.8-13.4-71.1-0.9S19.5,83.7,23.8,97L148.7,51.5z"/>
	<path class="st2" d="M91.2,33.5c-3.3-11.3-7-17.5-11.2-17.4c-8.2,0.2-10.9,26.1-8.2,59.3c2.7,33.5,9.6,58.7,18.2,58.5
		c5.2-0.1,8.1-8.4,9.1-22.7c0-0.3-0.3-0.1-0.3-0.4c0,0-0.1-0.5-0.3-0.5c-0.3,0-1.1-0.1-1.1-0.1c-0.9,13.9-3.6,21.9-7.5,22
		c-7.1,0.2-14-24.7-16.5-56.9C70.7,43.6,73.5,18,80,17.8c3-0.1,6.4,5.7,9.4,16C89.5,33.8,91.2,33.6,91.2,33.5z"/>
	<path class="st2" d="M50.8,25.5c-7,4.3,3.6,28.1,22.5,55.4c19.1,27.7,37.7,46,45,41.5c4.1-2.6,2.9-10.2-2.3-21.8
		c-0.2-0.4-0.7-0.6-1.1-0.4c-0.4,0.2-0.6,0.7-0.4,1.1c4.9,10.7,6,17.8,2.9,19.6c-6,3.7-24.4-14.4-42.8-41c-18-26.2-28.5-49.7-23-53
		c2.9-1.8,9.9,2.5,19,11.9c0.1,0.1,0.7,0.8,0.8,0.8c0.3,0.1,0.1-0.5,0.3-0.8c0.3-0.3,0.3-0.9,0-1.2C62,27.7,54.7,23,50.8,25.5z"/>
</g>
<rect class="st4" width="150" height="150"/>
</svg>
