<?xml version="1.0" encoding="utf-8"?>
<!-- Generator: Adobe Illustrator 23.0.6, SVG Export Plug-In . SVG Version: 6.00 Build 0)  -->
<svg version="1.1" id="Calque_1" xmlns="http://www.w3.org/2000/svg" xmlns:xlink="http://www.w3.org/1999/xlink" x="0px" y="0px"
	 viewBox="0 0 150 150" style="enable-background:new 0 0 150 150;" xml:space="preserve">
<style type="text/css">
	.st0{fill:#1FB6FF;}
	.st1{fill:none;}
</style>
<path class="st0" d="M127.4,84.6c-54.6-4.3-99.6,8.9-109.8,13.9c-5.6,2.6-6.1,5.9-5.2,7.6c0.7,1.3,3.5,2.2,6.3,0.7
	c21.7-11.7,65.4-21.1,108.7-18.5c1.1,0,1.9-0.9,1.9-2C129.4,85.5,128.5,84.6,127.4,84.6L127.4,84.6z M140.9,68.1
	c-2.4,2.6-5.6,4.6-6.7,3.7c-1.1-0.9,0-4.1,0-4.1c5.4-3.5,15.9-12.4,15.9-19.4c0-6.3-5.6-8.2-11.5-2.4c-4.8,5.2-8.2,11.7-10.2,18.7
	c-3,3-8,7-12.4,7c-2.4,0-2.8-1.7-2.6-3.9c3.7,0,14.1-3,14.1-11.7c0-1.5-0.7-2.8-1.7-3.9s-2.4-1.5-3.9-1.3c-4.8,0-10.6,4.8-13.7,11.7
	c-0.7-0.2-1.5-0.4-2.2-0.9c0.9-1.7,1.3-3.5,1.9-5.2c0.7-3.7-0.9-5.9-3.7-5.4c-1.9,0-4.1,1.7-4.8,5.4c-0.2,2,0.2,3.9,0.9,5.4
	c-1.3,4.1-6.5,9.1-8.2,8.9s0.2-7.4,1.9-12.8c1.1-1.1,1.7-2.2,2.4-3.7c0.4-1.1,0.2-2.4-0.9-2.8c-2.6-1.1-5.6,0.2-6.7,2.8
	c-0.7,1.3-1.3,2.6-1.9,4.1c-1.5,1.7-3.7,4.1-4.3,3.9c-0.9-0.7,2.4-5,1.9-7.6c-0.2-1.9-2.2-3.5-4.1-3.3c-3,0.4-6.7,6.1-6.7,6.1
	c0.4-1.1,0.7-2.2,0.9-3.3c-0.2-2.2-4.1-3-6.1,0.9c-1.3,3.7-2.4,7.6-2.8,11.5c-0.9,1.7-4.1,7-6.7,7.2c-2.2,0.2,0.4-9.4,0.9-9.8
	c1.1-1.7,2.6-5.4,2.4-7.2c0-0.9-0.2-1.5-0.9-1.9c-0.7-0.4-1.5-0.7-2.2-0.4c-1.3,0.4-2.4,1.3-3,2.4c-0.9-1.1-2.4-1.7-3.9-1.5
	c-8.7,0.9-14.1,16.1-13.5,23.2c0.4,3.9,2.4,6.3,5.6,5.6c3.7-0.4,6.7-6.1,6.7-6.1s0.9,4.6,5,4.1c3-0.9,5.6-2.8,7.6-5.4
	c0,0.2-0.2,0.4-0.2,0.9c-0.7,3.9,5.6,3.5,6.1,0.4c1.9-14.6,6.7-20.4,8-20.4c1.1,0-3,6.7-0.7,9.6c1.9,2.2,5.2,0.4,8-1.9
	c-0.4,1.7-0.7,3.7-0.9,5.4c-0.2,4.1,1.3,7.4,5.2,7.2c5.2-0.2,10.6-6.8,14.3-12.8c0.9,0.7,1.9,1.1,3,1.3c-0.4,1.5-0.4,3-0.4,4.4
	c0.2,4.8,3.5,6.5,7.4,6.3c4.3-0.2,9.6-3.5,13-6.8c0,0.2,0,0.4-0.2,0.4c-0.2,2.4,0.2,6.5,3.5,6.8c3.7,0.2,10.2-3.5,13.5-7.6
	C145.7,68.5,142.8,65.9,140.9,68.1L140.9,68.1L140.9,68.1z M144.4,48.5c0.4,0,0.7,0.4,0.7,0.9c0,4.1-10,12.6-10,12.6
	S141.5,48.5,144.4,48.5L144.4,48.5z M120,57c0.4,0,0.7,0,0.9,0.4s0.2,0.7,0.2,0.9c0,2.4-3,4.1-6.5,4.1C116.5,59.6,118.5,57,120,57
	L120,57z M52.6,63.3c-0.2,2.4-4.6,13.5-6.7,13.5C43.1,77,47.4,61.3,52,61.3C52.8,61.3,52.8,62,52.6,63.3L52.6,63.3z M15.9,66.4
	c2.8,0-2.4,14.6-1.7,20.9c0.7,6.3,7.6,4.6,7.2,0.9C20.4,81.8,24.8,62,28.9,62c3,0-3.5,13.5-2.2,22c0.9,5.4,8.2,3.9,7.4,0.2
	c-2.4-11.1,5.4-21.8,4.3-29.5c-0.4-3.3-2.4-5-4.3-5c-7,0-12.6,14.3-12.6,14.3s0.9-8-5-8.5C8.3,55-0.2,75.9,0,94.8
	c0.2,6.1,7.6,5,7.2,0.2C6.8,86.6,11.5,66.4,15.9,66.4L15.9,66.4z"/>
<rect x="0" class="st1" width="150" height="150"/>
</svg>
