<?xml version="1.0" encoding="utf-8"?>
<!-- Generator: Adobe Illustrator 23.0.6, SVG Export Plug-In . SVG Version: 6.00 Build 0)  -->
<svg version="1.1" id="Capa_1" xmlns="http://www.w3.org/2000/svg" xmlns:xlink="http://www.w3.org/1999/xlink" x="0px" y="0px"
	 viewBox="0 0 150 150" style="enable-background:new 0 0 150 150;" xml:space="preserve">
<style type="text/css">
	.st0{fill:#001D26;}
	.st1{fill:#00C8FF;}
	.st2{fill:none;}
</style>
<path class="st0" d="M6.2,8.1h137.5v133.7H6.2V8.1z"/>
<path class="st1" d="M0,1.9v146.2h150V1.9H0z M6.2,8.1h137.5v133.7H6.2V8.1z M36.2,36.1c0-0.4,0.9-0.8,1.4-0.8
	c4-0.2,9.9-0.3,16.1-0.3c17.3,0,24.1,9.5,24.1,21.7c0,15.9-11.5,22.7-25.6,22.7c-2.4,0-3.2-0.1-4.9-0.1v24c0,0.5-0.2,0.8-0.8,0.8H37
	c-0.5,0-0.8-0.2-0.8-0.8L36.2,36.1L36.2,36.1z M47.4,69.3c1.4,0.1,2.5,0.1,5.1,0.1c7.3,0,14.2-2.6,14.2-12.5c0-8-5-11.9-13.3-11.9
	c-2.5,0-4.9,0.1-6,0.2V69.3L47.4,69.3z M101.1,61.9c-5,0-6.6,2.5-6.6,4.6c0,2.2,1.1,3.8,7.7,7.3c9.8,4.7,12.9,9.3,12.9,16
	c0,10-7.6,15.4-17.9,15.4c-5.4,0-10.1-1.1-12.8-2.7c-0.4-0.2-0.5-0.5-0.5-1v-9.2c0-0.6,0.3-0.8,0.8-0.5c3.9,2.5,8.4,3.7,12.6,3.7
	c4.9,0,7-2.1,7-4.9c0-2.2-1.4-4.3-7.7-7.5c-8.9-4.3-12.6-8.5-12.6-15.8c0-8.1,6.3-14.8,17.2-14.8c5.4,0,9.1,0.8,11.2,1.7
	c0.5,0.3,0.6,0.8,0.6,1.3V64c0,0.5-0.3,0.8-0.9,0.6C109.3,62.9,105.2,61.9,101.1,61.9L101.1,61.9z"/>
<rect class="st2" width="150" height="150"/>
</svg>
