<?xml version="1.0" encoding="utf-8"?>
<!-- Generator: Adobe Illustrator 23.0.6, SVG Export Plug-In . SVG Version: 6.00 Build 0)  -->
<svg version="1.1" id="Calque_1" xmlns="http://www.w3.org/2000/svg" xmlns:xlink="http://www.w3.org/1999/xlink" x="0px" y="0px"
	 viewBox="0 0 150 150" style="enable-background:new 0 0 150 150;" xml:space="preserve">
<style type="text/css">
	.st0{fill:none;}
	.st1{fill:#FFAE00;}
	.st2{fill:#EC6C00;}
	.st3{fill:#FFEFB4;}
	.st4{fill:#FED305;}
</style>
<rect class="st0" width="150" height="150"/>
<title>Group</title>
<desc>Created with Sketch.</desc>
<g id="Page-1">
	<g id="Sketch-Flat-Logo" transform="translate(-9.000000, -28.000000)">
		<g id="Group" transform="translate(9.000000, 28.000000)">
			<g id="Base">
				<polygon id="Polygon" class="st1" points="75,142.9 0,55.7 32.5,11.7 75,7.1 117.5,11.7 150,55.7 				"/>
			</g>
			<g id="Bottom-Back" transform="translate(0.000000, 160.000000)">
				<polygon id="Polygon_1_" class="st2" points="75,-17.1 0,-104.3 150,-104.3 				"/>
			</g>
			<g id="Bottom-Mid" transform="translate(100.000000, 160.000000)">
				<polygon id="Polygon_2_" class="st1" points="-25,-17.1 -69.6,-104.3 19.6,-104.3 				"/>
			</g>
			<g id="Top-Mid" transform="translate(100.000000, 0.000000)">
				<polygon id="Polygon_3_" class="st3" points="-25,7.1 -69.6,55.7 19.6,55.7 				"/>
			</g>
			<g id="Top-Side-Left" transform="translate(0.000000, 15.000000)">
				<polygon id="Polygon_4_" class="st1" points="32.5,-3.3 15.8,18.9 0,40.7 30.7,40.7 				"/>
			</g>
			
				<g id="Top-Side-Right" transform="translate(440.500000, 87.500000) scale(-1, 1) translate(-440.500000, -87.500000) translate(387.000000, 15.000000)">
				<polygon id="Polygon_5_" class="st1" points="376.5,-3.3 359.8,18.9 344,40.7 374.7,40.7 				"/>
			</g>
			<g id="Top-Left" transform="translate(100.000000, 0.000000)">
				<polygon id="Polygon_6_" class="st4" points="-67.5,11.7 -69.6,55.7 -25,7.1 				"/>
			</g>
			<g id="Top-Right" transform="translate(247.000000, 0.000000)">
				<polygon id="Polygon_7_" class="st4" points="-129.5,11.7 -127.4,55.7 -172,7.1 				"/>
			</g>
		</g>
	</g>
</g>
</svg>
