<?xml version="1.0" encoding="utf-8"?>
<!-- Generator: Adobe Illustrator 23.0.6, SVG Export Plug-In . SVG Version: 6.00 Build 0)  -->
<svg version="1.1" id="Calque_1" xmlns="http://www.w3.org/2000/svg" xmlns:xlink="http://www.w3.org/1999/xlink" x="0px" y="0px"
	 viewBox="0 0 150 150" style="enable-background:new 0 0 150 150;" xml:space="preserve">
<style type="text/css">
	.st0{fill:url(#SVGID_1_);}
	.st1{fill:#FF408C;}
	.st2{fill:none;}
</style>
<radialGradient id="SVGID_1_" cx="61.1456" cy="-350.2213" r="89.645" gradientTransform="matrix(1 0 0 1 0 402)" gradientUnits="userSpaceOnUse">
	<stop  offset="0" style="stop-color:#250012;stop-opacity:0.85"/>
	<stop  offset="0.767" style="stop-color:#250012"/>
</radialGradient>
<path class="st0" d="M6.3,7.2h137.5V141H6.3V7.2z"/>
<path class="st1" d="M0,1v146.2h150V1H0z M6.2,7.2h137.5V141H6.2V7.2z M54.8,102.3c0,0.6-0.1,0.8-0.8,0.8h-9.6
	c-0.6,0-0.8-0.3-0.8-0.8V35.2c0-0.6,0.3-0.8,0.8-0.8h9.7c0.5,0,0.7,0.2,0.7,0.7L54.8,102.3L54.8,102.3z M65.9,78.1
	c0-14.9,9.9-26.6,25.7-26.6c1.3,0,2.1,0,3.3,0.1V35c0-0.4,0.3-0.6,0.6-0.6h10.2c0.5,0,0.6,0.2,0.6,0.5v58.5c0,1.7,0,3.9,0.3,6.3
	c0,0.4-0.1,0.5-0.5,0.7c-5.4,2.6-11,3.7-16.4,3.7C75.8,104.1,65.9,95.6,65.9,78.1L65.9,78.1z M94.8,61.7c-0.9-0.4-2.2-0.6-3.7-0.6
	c-8,0-13.7,6.2-13.7,16.5c0,11.8,5.7,16.5,13,16.5c1.6,0,3.2-0.2,4.4-0.7V61.7L94.8,61.7z"/>
<rect class="st2" width="150" height="150"/>
</svg>
