<?xml version="1.0" encoding="utf-8"?>
<!-- Generator: Adobe Illustrator 23.0.6, SVG Export Plug-In . SVG Version: 6.00 Build 0)  -->
<svg version="1.1" id="Layer_1" xmlns="http://www.w3.org/2000/svg" xmlns:xlink="http://www.w3.org/1999/xlink" x="0px" y="0px"
	 viewBox="0 0 150 150" style="enable-background:new 0 0 150 150;" xml:space="preserve">
<style type="text/css">
	.st0{opacity:0.3;enable-background:new    ;}
	.st1{fill:url(#tube_1_);}
	.st2{fill:url(#liquid_1_);}
	.st3{fill:#333333;}
	.st4{opacity:0.3;fill:#FFFFFF;enable-background:new    ;}
	.st5{opacity:0.5;fill:#FFFFFF;enable-background:new    ;}
	.st6{opacity:0.3;}
	.st7{fill:url(#SVGID_1_);}
	.st8{opacity:0.75;}
	.st9{fill:#FFFFFF;}
	.st10{fill:none;}
</style>
<path id="shadow_2_" class="st0" d="M134.8,45.6c0,0.1,0,0.2,0,0.3c0,0,0.4,2.5-0.1,3.6l-18.1,47l0,0c-1.3,3.5,0.4,7.3,3.9,8.6
	c3.5,1.3,7.3-0.4,8.7-3.8l0,0l18.1-47c0.3-0.9,2.4-2.7,2.4-2.7c0.1-0.1,0.2-0.2,0.2-0.3v0c0,0,0,0,0-0.1c0.5-1.2-2.6-3.5-6.7-5.1
	c-4.2-1.6-8-1.9-8.4-0.7C134.9,45.5,134.8,45.5,134.8,45.6L134.8,45.6z"/>
<linearGradient id="tube_1_" gradientUnits="userSpaceOnUse" x1="415.3735" y1="662.8765" x2="426.8074" y2="651.4427" gradientTransform="matrix(0.9138 -0.4062 -0.4062 -0.9138 13.5445 846.8364)">
	<stop  offset="0" style="stop-color:#919191"/>
	<stop  offset="1" style="stop-color:#FFFFFF"/>
</linearGradient>
<path id="tube_2_" class="st1" d="M134.3,45.2c0,0.1,0,0.2,0,0.3c0,0,0.4,2.5-0.1,3.6l-18.1,47l0,0c-1.3,3.5,0.4,7.3,3.9,8.6
	c3.5,1.3,7.3-0.4,8.7-3.8l0,0l18.1-47c0.3-0.9,2.4-2.7,2.4-2.7c0.1-0.1,0.2-0.1,0.2-0.3l0,0c0,0,0,0,0-0.1c0.5-1.2-2.6-3.5-6.7-5.1
	c-4.2-1.6-8-1.9-8.4-0.7C134.3,45.1,134.3,45.1,134.3,45.2L134.3,45.2z"/>
<linearGradient id="liquid_1_" gradientUnits="userSpaceOnUse" x1="411.0682" y1="654.1354" x2="418.003" y2="647.2007" gradientTransform="matrix(0.9138 -0.4062 -0.4062 -0.9138 13.5445 846.8364)">
	<stop  offset="0" style="stop-color:#990000"/>
	<stop  offset="1" style="stop-color:#E80000"/>
</linearGradient>
<path id="liquid" class="st2" d="M140,66.5l-13,33.9l0,0c-1,2.4-3.8,3.7-6.2,2.7c-2.5-1-3.8-3.8-2.9-6.2l0,0l8.3-21.6
	c0,0,1-1.7,3.1-2.9c2-1.2,3.7-0.9,6-2C137.5,69.3,140,66.5,140,66.5z"/>
<ellipse id="top" transform="matrix(0.359 -0.9333 0.9333 0.359 45.9489 163.2585)" class="st3" cx="141.8" cy="48.2" rx="1.3" ry="5"/>
<path id="side-reflection" class="st4" d="M134.3,45.6c0,0,0.4,2.5-0.1,3.6l-18.1,47l0,0c-1.3,3.5,0.4,7.3,3.9,8.6
	c0.6,0.2,1.2,0.4,1.8,0.4c-2.3-1.7-3.3-4.9-2.3-7.7l0,0l17.7-46C137.3,51.4,134.9,49.2,134.3,45.6z"/>
<g id="bubbles">
	<circle class="st5" cx="128.5" cy="75.9" r="0.5"/>
	<circle class="st5" cx="131.9" cy="79.7" r="0.8"/>
	<circle class="st5" cx="126.7" cy="84.2" r="1.5"/>
	<circle class="st5" cx="124.3" cy="86.9" r="0.8"/>
	<circle class="st5" cx="127.4" cy="92.8" r="0.5"/>
</g>
<g class="st6">
	<g>
		<path d="M35.3,73c0.8,0.6,2.3,0.3,3.2-0.8c1-1.1,1.2-2.6,0.4-3.2c-0.8-0.6-2.3-0.3-3.2,0.8C34.7,70.9,34.6,72.3,35.3,73z M33,75
			c-0.2,0-0.6,0.4-0.3,0.5c0.4,0.2,0.6,0.5,0.6,1.1c-0.4,2.2-3.1,4.7-4.2,5.6c-0.3,0.3,0.1,0.8,0.4,0.6c0.6-0.5,1.8-1.4,2.8-2.7
			c-1.7,3.7-4.9,8.4-6.1,10.1C21.5,96.9,14.2,103,9.2,103c-4,0-7.4-2.7-8.2-6.7c-0.1-0.4-0.6-0.5-0.5,0.1c0.9,5.5,5.1,7.6,10.2,7.6
			c5.6,0,12.2-4.1,15.8-8.2c5.9-6.7,9.7-14.4,8.6-18.8C34.8,75.3,33.6,75,33,75z M69,89.7c1.5-0.4,2.8-1.2,2.8-2.6
			c0-0.1-0.3-0.1-0.3,0c0,0.8-0.9,1.4-1.9,1.6c-2.4,0.4-7.1-2.5-9.4-5.3c2.4,0.9,7.3-0.4,9.6-2.1c2.1-1.5,3-3.2,3.2-4.7
			c0.3-2.3-2.2-3.6-5.7-2.3c-2.3,0.9-4.9,2.9-7.7,6.6c2.9-4.9,8.7-12.8,14.3-17.8c6.9-6.1,10.9-5,4.7,1.5c-2.6,2.7-7.4,6.1-10.7,7.6
			c-1,0.4-0.5,1,0.2,0.7c3.5-1.5,8.2-4.7,11-7.4c8.4-8,1.4-14.1-7.9-5.6c-6.3,5.8-10.4,11.9-14,19.8c-1.2,1.5-2.1,2.7-3.3,3.7
			c-0.1,0.1-0.2,0.2-0.3,0.3c-3.1,2.6-7.9,6.2-10.9,6.2c-2.1,0.1-3-1.5-2.7-3.6c0.6-3.2,4-7.1,6.8-8.4c3.7-1.7,5.9,1.6,1,4.3
			c-1.9,1-4.1,1.5-5,1.5c-1.1,0-1,0.4-0.1,0.5c1.5,0.1,3.9-0.6,5.5-1.4c5-2.4,5.3-6.9-0.1-7c-5.9-0.2-13,4.9-13,11.2
			c0.1,2.9,2.4,4.4,5.5,4.4c5.3-0.1,9.9-4.1,13.7-7.5c0.5-0.4,1.1-1,1.6-1.5c-1.4,3.4-2,6.6-1.7,8.9c0.2,1.7,1.2,2.5,1.9,3.2
			c0.2,0.1,0.5,0,0.3-0.3c-1.1-1.3-0.8-5.3,0.8-9.1C58.7,87.6,63.8,90.9,69,89.7z M62.7,78.6c6.1-5.5,8.5-0.6,4.7,2.4
			c-2,1.5-6,2.7-7.3,2l-0.3-0.2c-0.2-0.3-0.3-0.5-0.4-0.8C60.3,80.7,61.5,79.6,62.7,78.6z M96.7,72.3c2.5,0.3,1.4-2.7-1.1-2
			c-1.1,0.3-2.2,2.5-3,4.3c-2.5,3.7-6.6,8.7-9.5,11.3c-2.6,2.2-4.9,2.8-2-1.4c1.2-1.7,2.7-3.4,3.5-5.2c2-4.4-2.3-6.4-5.8-3.7
			c-2,1.5-4.7,4.7-6.9,6.5c-0.6,0.5-0.4,1.2,0.2,0.7c1.7-1.4,4.7-4.5,7.3-6.4c2.1-1.7,3-0.6,1.8,0.8c-1.7,2-4.7,5.4-5.4,7.6
			c-1.1,3.2,0.2,4.7,2.4,4.7c2.9,0,7.3-4.6,10.2-8.2c1-1.2,2-2.7,2.9-4.1c-2.6,5-5.2,10-8.5,14.5C78.1,98.2,72.2,103,66.7,103
			c-4,0-7.5-2.7-8.2-6.7c-0.1-0.4-0.6-0.5-0.5,0.1c0.9,5.5,5.1,7.6,10.2,7.6c5.6,0,11-3.2,14.8-7.3c7.6-8,8.5-17.1,10.9-22.2
			C94.9,72.3,95.9,72.2,96.7,72.3z M127.7,64.6c1.1-1.9,1.1-3.4-1.5-3.4c-2,0.1-5.6,1.4-7.2,2.7c-0.4,0.4-0.2,0.6,0.3,0.4
			c0.3-0.1,0.7-0.3,1.1-0.5c1.9-1,1.1,1.1,0.7,1.9c-2.3,3.9-6.2,9.4-8.3,12.1c-1,1.3-2.1,2.7-3.2,3.8c-2,1.9-6,5.3-8.9,6.4
			c-9.7,3.6,2.7-12.9,3.7-14.2c2.3-2.9,7.4-7.9,8.9-10.4c1.1-1.9,1.1-3.4-1.5-3.4c-2,0.1-5.6,1.4-7.2,2.7c-0.4,0.4-0.2,0.6,0.3,0.4
			c0.3-0.1,0.7-0.3,1.1-0.5c1.9-1,1.1,1.1,0.7,1.9c-2.2,3.9-6.2,9.4-8.3,12.1c-1.7,2.3-3.8,4.6-5.4,5.9c-0.6,0.5-0.3,1,0.4,0.6
			c0.6-0.4,1.4-1.2,2.4-2.2c-1.8,3.5-3.2,8.5,1.4,9.1c4,0.5,8.7-3.5,11.7-6.5c0.3-0.3,0.7-0.7,1.1-1.1c0.1-0.1,0.2-0.2,0.3-0.3
			c-1.8,3.5-3.2,8.5,1.4,9c5.1,0.7,11.4-6.1,13.8-8.6c0.5-0.5,0.3-1.3-0.5-0.5c-1.4,1.5-6.3,5.9-9.8,7.3c-9.7,3.6,2.7-12.9,3.7-14.2
			C121.1,72.1,126.2,67.1,127.7,64.6z"/>
	</g>
</g>
<g>
	<g>
		<g>
			
				<linearGradient id="SVGID_1_" gradientUnits="userSpaceOnUse" x1="63.9515" y1="289.2518" x2="63.9515" y2="337.3334" gradientTransform="matrix(1 0 0 -1 0 392.7033)">
				<stop  offset="0" style="stop-color:#919191"/>
				<stop  offset="1" style="stop-color:#FFFFFF"/>
			</linearGradient>
			<path class="st7" d="M34.8,72.5c0.8,0.6,2.3,0.3,3.2-0.8c1-1.1,1.2-2.6,0.4-3.2c-0.8-0.6-2.3-0.3-3.2,0.8
				C34.2,70.4,34,71.8,34.8,72.5z M32.5,74.6c-0.2,0-0.6,0.4-0.3,0.5c0.4,0.2,0.6,0.5,0.6,1.1c-0.4,2.2-3.1,4.7-4.2,5.6
				c-0.3,0.3,0.1,0.8,0.4,0.6c0.6-0.5,1.8-1.4,2.8-2.7c-1.7,3.7-4.9,8.4-6.1,10.1c-4.8,6.7-12.1,12.8-17.1,12.8
				c-4,0-7.4-2.7-8.2-6.7c-0.1-0.4-0.6-0.5-0.5,0.1c0.9,5.5,5.1,7.6,10.2,7.6c5.6,0,12.2-4.1,15.8-8.2c5.9-6.7,9.7-14.4,8.6-18.8
				C34.2,74.7,33.1,74.5,32.5,74.6z M68.5,89.1c1.5-0.4,2.8-1.2,2.8-2.6c0-0.1-0.3-0.1-0.3,0c0,0.8-0.9,1.4-1.9,1.6
				c-2.4,0.4-7.1-2.5-9.4-5.3c2.4,0.9,7.3-0.4,9.6-2.1c2.1-1.5,3-3.2,3.2-4.7c0.3-2.3-2.3-3.6-5.7-2.3c-2.2,0.9-4.9,2.9-7.7,6.6
				c2.9-4.9,8.7-12.8,14.3-17.8c6.9-6.1,10.9-5,4.7,1.5c-2.6,2.7-7.4,6.1-10.7,7.6c-1,0.4-0.5,1,0.2,0.7c3.5-1.5,8.2-4.7,11-7.4
				c8.4-8,1.4-14.1-7.9-5.6c-6.3,5.8-10.4,11.9-14,19.8c-1.2,1.5-2.1,2.7-3.3,3.7c-0.1,0.1-0.2,0.2-0.3,0.3
				c-3.1,2.6-7.9,6.2-10.9,6.2c-2.1,0.1-3-1.5-2.7-3.6c0.6-3.2,4-7.1,6.8-8.4c3.7-1.7,5.9,1.6,1,4.3c-1.9,1-4.1,1.5-5,1.5
				c-1.1,0-1,0.4-0.1,0.5c1.5,0.1,3.9-0.6,5.5-1.4c5-2.4,5.3-6.9-0.1-7c-5.9-0.2-13,4.9-13,11.2c0.1,2.9,2.4,4.4,5.5,4.4
				c5.3-0.1,9.9-4.1,13.7-7.5c0.5-0.4,1.1-1,1.6-1.5c-1.4,3.4-2,6.6-1.7,8.9c0.2,1.7,1.2,2.5,1.9,3.2c0.2,0.1,0.5,0,0.3-0.3
				c-1.1-1.4-0.8-5.3,0.8-9.1C58.2,87.1,63.2,90.3,68.5,89.1z M62.2,78c6.1-5.5,8.5-0.6,4.7,2.4c-2,1.5-6,2.7-7.3,2l-0.3-0.2
				c-0.2-0.3-0.3-0.5-0.4-0.8C59.8,80.2,61,79.1,62.2,78z M96.2,71.8c2.5,0.3,1.4-2.7-1.1-2c-1.1,0.3-2.2,2.5-3,4.3
				c-2.5,3.7-6.6,8.7-9.5,11.3c-2.6,2.2-4.9,2.8-2-1.4c1.2-1.7,2.7-3.4,3.5-5.2c2-4.4-2.3-6.4-5.8-3.7c-2,1.5-4.7,4.7-6.9,6.5
				c-0.6,0.5-0.4,1.2,0.2,0.7c1.7-1.4,4.7-4.5,7.3-6.4c2.1-1.7,3-0.6,1.8,0.8c-1.7,2-4.7,5.4-5.4,7.6c-1.1,3.2,0.2,4.7,2.3,4.7
				c2.9,0,7.3-4.6,10.2-8.2c1-1.2,2-2.7,2.9-4.1c-2.6,5-5.2,10-8.5,14.5c-4.7,6.4-10.6,11.2-16.1,11.2c-4,0-7.5-2.7-8.2-6.7
				c-0.1-0.4-0.6-0.5-0.5,0.1c0.9,5.5,5.1,7.6,10.2,7.6c5.6,0,11-3.2,14.8-7.3c7.6-8,8.5-17.1,10.9-22.2
				C94.4,71.8,95.4,71.7,96.2,71.8z M127.2,64.1c1.1-1.9,1.1-3.4-1.5-3.4c-2,0.1-5.6,1.4-7.2,2.7c-0.4,0.4-0.2,0.6,0.3,0.4
				c0.3-0.1,0.7-0.3,1.1-0.5c1.9-1,1.1,1.1,0.7,1.9c-2.2,3.9-6.2,9.4-8.3,12.1c-1,1.3-2.1,2.7-3.2,3.8c-2,1.9-6,5.3-8.9,6.4
				c-9.7,3.6,2.7-12.9,3.7-14.2c2.3-2.9,7.4-7.9,8.9-10.4c1.1-1.9,1.1-3.4-1.5-3.4c-2,0.1-5.6,1.4-7.2,2.7c-0.4,0.4-0.2,0.6,0.3,0.4
				c0.3-0.1,0.7-0.3,1.1-0.5c1.9-1,1.1,1.1,0.7,1.9c-2.3,3.9-6.2,9.4-8.3,12.1c-1.7,2.3-3.8,4.6-5.4,5.9c-0.6,0.5-0.3,1,0.4,0.6
				c0.6-0.4,1.4-1.2,2.4-2.3c-1.8,3.5-3.2,8.5,1.4,9.1c4,0.5,8.7-3.5,11.7-6.5c0.3-0.3,0.7-0.7,1.1-1.1c0.1-0.1,0.2-0.2,0.3-0.3
				c-1.8,3.5-3.2,8.5,1.4,9c5.1,0.7,11.4-6.1,13.8-8.6c0.5-0.5,0.3-1.3-0.5-0.5c-1.4,1.5-6.3,5.9-9.8,7.3
				c-9.7,3.6,2.7-12.9,3.7-14.2C120.5,71.6,125.7,66.6,127.2,64.1z"/>
		</g>
	</g>
	<g class="st8">
		<g>
			<path class="st9" d="M34.8,72.5c0.8,0.6,2.3,0.3,3.2-0.8c1-1.1,1.2-2.6,0.4-3.2c-0.8-0.6-2.3-0.3-3.2,0.8
				C34.2,70.4,34,71.8,34.8,72.5z M32.5,74.6c-0.2,0-0.6,0.4-0.3,0.5c0.4,0.2,0.6,0.5,0.6,1.1c-0.4,2.2-3.1,4.7-4.2,5.6
				c-0.3,0.3,0.1,0.8,0.4,0.6c0.6-0.5,1.8-1.4,2.8-2.7c-1.7,3.7-4.9,8.4-6.1,10.1c-4.8,6.7-12.1,12.8-17.1,12.8
				c-4,0-7.4-2.7-8.2-6.7c-0.1-0.4-0.6-0.5-0.5,0.1c0.9,5.5,5.1,7.6,10.2,7.6c5.6,0,12.2-4.1,15.8-8.2c5.9-6.7,9.7-14.4,8.6-18.8
				C34.2,74.7,33.1,74.5,32.5,74.6z M68.5,89.1c1.5-0.4,2.8-1.2,2.8-2.6c0-0.1-0.3-0.1-0.3,0c0,0.8-0.9,1.4-1.9,1.6
				c-2.4,0.4-7.1-2.5-9.4-5.3c2.4,0.9,7.3-0.4,9.6-2.1c2.1-1.5,3-3.2,3.2-4.7c0.3-2.3-2.3-3.6-5.7-2.3c-2.2,0.9-4.9,2.9-7.7,6.6
				c2.9-4.9,8.7-12.8,14.3-17.8c6.9-6.1,10.9-5,4.7,1.5c-2.6,2.7-7.4,6.1-10.7,7.6c-1,0.4-0.5,1,0.2,0.7c3.5-1.5,8.2-4.7,11-7.4
				c8.4-8,1.4-14.1-7.9-5.6c-6.3,5.8-10.4,11.9-14,19.8c-1.2,1.5-2.1,2.7-3.3,3.7c-0.1,0.1-0.2,0.2-0.3,0.3
				c-3.1,2.6-7.9,6.2-10.9,6.2c-2.1,0.1-3-1.5-2.7-3.6c0.6-3.2,4-7.1,6.8-8.4c3.7-1.7,5.9,1.6,1,4.3c-1.9,1-4.1,1.5-5,1.5
				c-1.1,0-1,0.4-0.1,0.5c1.5,0.1,3.9-0.6,5.5-1.4c5-2.4,5.3-6.9-0.1-7c-5.9-0.2-13,4.9-13,11.2c0.1,2.9,2.4,4.4,5.5,4.4
				c5.3-0.1,9.9-4.1,13.7-7.5c0.5-0.4,1.1-1,1.6-1.5c-1.4,3.4-2,6.6-1.7,8.9c0.2,1.7,1.2,2.5,1.9,3.2c0.2,0.1,0.5,0,0.3-0.3
				c-1.1-1.4-0.8-5.3,0.8-9.1C58.2,87.1,63.2,90.3,68.5,89.1z M62.2,78c6.1-5.5,8.5-0.6,4.7,2.4c-2,1.5-6,2.7-7.3,2l-0.3-0.2
				c-0.2-0.3-0.3-0.5-0.4-0.8C59.8,80.2,61,79.1,62.2,78z M96.2,71.8c2.5,0.3,1.4-2.7-1.1-2c-1.1,0.3-2.2,2.5-3,4.3
				c-2.5,3.7-6.6,8.7-9.5,11.3c-2.6,2.2-4.9,2.8-2-1.4c1.2-1.7,2.7-3.4,3.5-5.2c2-4.4-2.3-6.4-5.8-3.7c-2,1.5-4.7,4.7-6.9,6.5
				c-0.6,0.5-0.4,1.2,0.2,0.7c1.7-1.4,4.7-4.5,7.3-6.4c2.1-1.7,3-0.6,1.8,0.8c-1.7,2-4.7,5.4-5.4,7.6c-1.1,3.2,0.2,4.7,2.3,4.7
				c2.9,0,7.3-4.6,10.2-8.2c1-1.2,2-2.7,2.9-4.1c-2.6,5-5.2,10-8.5,14.5c-4.7,6.4-10.6,11.2-16.1,11.2c-4,0-7.5-2.7-8.2-6.7
				c-0.1-0.4-0.6-0.5-0.5,0.1c0.9,5.5,5.1,7.6,10.2,7.6c5.6,0,11-3.2,14.8-7.3c7.6-8,8.5-17.1,10.9-22.2
				C94.4,71.8,95.4,71.7,96.2,71.8z M127.2,64.1c1.1-1.9,1.1-3.4-1.5-3.4c-2,0.1-5.6,1.4-7.2,2.7c-0.4,0.4-0.2,0.6,0.3,0.4
				c0.3-0.1,0.7-0.3,1.1-0.5c1.9-1,1.1,1.1,0.7,1.9c-2.2,3.9-6.2,9.4-8.3,12.1c-1,1.3-2.1,2.7-3.2,3.8c-2,1.9-6,5.3-8.9,6.4
				c-9.7,3.6,2.7-12.9,3.7-14.2c2.3-2.9,7.4-7.9,8.9-10.4c1.1-1.9,1.1-3.4-1.5-3.4c-2,0.1-5.6,1.4-7.2,2.7c-0.4,0.4-0.2,0.6,0.3,0.4
				c0.3-0.1,0.7-0.3,1.1-0.5c1.9-1,1.1,1.1,0.7,1.9c-2.3,3.9-6.2,9.4-8.3,12.1c-1.7,2.3-3.8,4.6-5.4,5.9c-0.6,0.5-0.3,1,0.4,0.6
				c0.6-0.4,1.4-1.2,2.4-2.3c-1.8,3.5-3.2,8.5,1.4,9.1c4,0.5,8.7-3.5,11.7-6.5c0.3-0.3,0.7-0.7,1.1-1.1c0.1-0.1,0.2-0.2,0.3-0.3
				c-1.8,3.5-3.2,8.5,1.4,9c5.1,0.7,11.4-6.1,13.8-8.6c0.5-0.5,0.3-1.3-0.5-0.5c-1.4,1.5-6.3,5.9-9.8,7.3
				c-9.7,3.6,2.7-12.9,3.7-14.2C120.5,71.6,125.7,66.6,127.2,64.1z"/>
		</g>
	</g>
</g>
<g id="highlight">
	<g>
		<path class="st9" d="M109.4,82.1C109.3,82.2,109.3,82.2,109.4,82.1c-0.8,1.7-1.4,3.6-1.4,5.1c0.1-1.7,0.8-3.7,1.7-5.4
			C109.5,81.9,109.4,82,109.4,82.1z"/>
		<path class="st9" d="M94.8,81c-0.8,1.7-1.4,3.5-1.3,5.1c0.1-1.7,0.8-3.8,1.7-5.4C95,80.8,94.9,80.9,94.8,81z"/>
		<path class="st9" d="M118.4,63.8C118.4,63.8,118.4,63.8,118.4,63.8c1.7-1.4,5.3-2.8,7.3-2.8c1.5,0,2.2,0.5,2.2,1.3
			c0.1-1-0.5-1.6-2.2-1.6c-2,0.1-5.6,1.4-7.2,2.7C118.2,63.6,118.2,63.8,118.4,63.8z"/>
		<path class="st9" d="M124.4,81.4c-1.4,1.5-6.3,5.9-9.8,7.3c-2.6,1-3.6,0.5-3.7-0.7c-0.1,1.5,0.9,2.1,3.7,1.1
			c3.5-1.3,8.4-5.8,9.8-7.3c0.4-0.4,0.6-0.4,0.7-0.2C125.3,81.1,125,80.8,124.4,81.4z"/>
		<path class="st9" d="M92.3,82.3c1.6-1.3,3.7-3.6,5.4-5.9c2.1-2.7,6-8.2,8.3-12.1c0.2-0.5,0.6-1.3,0.5-1.8
			c-0.1,0.5-0.3,1.1-0.5,1.5c-2.3,3.9-6.2,9.4-8.3,12.1c-1.7,2.3-3.8,4.6-5.4,5.9c-0.3,0.3-0.4,0.5-0.3,0.7
			C92.1,82.5,92.2,82.4,92.3,82.3z"/>
		<path class="st9" d="M103.9,62.6C103.9,62.6,104,62.6,103.9,62.6c1.7-1.4,5.3-2.8,7.3-2.8c1.5,0,2.2,0.5,2.2,1.3
			c0.1-1-0.5-1.6-2.2-1.6c-2,0.1-5.6,1.4-7.2,2.7C103.7,62.4,103.7,62.6,103.9,62.6z"/>
		<path class="st9" d="M120.5,65.5c0.2-0.5,0.6-1.3,0.5-1.8c-0.1,0.5-0.3,1.1-0.5,1.5c-2.3,3.9-6.2,9.4-8.3,12.1
			c-1,1.4-2.1,2.7-3.2,3.8c-2,1.9-6,5.3-8.9,6.4c-2.6,1-3.6,0.5-3.7-0.7c-0.1,1.5,0.9,2.1,3.7,1.1c3-1.1,6.9-4.5,8.9-6.4
			c1.1-1.1,2.2-2.5,3.2-3.8C114.3,74.9,118.3,69.4,120.5,65.5z"/>
	</g>
	<g>
		<path class="st9" d="M82.7,85.5c-1.6,1.4-3.1,2.1-3.3,1.4c-0.2,1.2,1.5,0.5,3.3-1.1c2.9-2.6,7-7.6,9.5-11.3c0.8-1.9,1.9-4,3-4.3
			c1.4-0.4,2.3,0.3,2.5,1c0.2-0.8-0.8-1.9-2.5-1.4c-1.1,0.3-2.2,2.5-3,4.3C89.7,77.8,85.6,82.8,82.7,85.5z"/>
		<path class="st9" d="M81.3,75.9c-0.1,0.3-0.2,0.6-0.5,0.9c-1.7,2-4.7,5.4-5.4,7.6c-0.3,0.9-0.4,1.6-0.4,2.3c0-0.5,0.2-1.2,0.4-1.9
			c0.8-2.2,3.7-5.6,5.4-7.6C81.2,76.7,81.4,76.2,81.3,75.9z"/>
		<path class="st9" d="M71.6,82.1c2.1-1.8,4.9-5,6.9-6.5c2.8-2.2,6.2-1.3,6.3,1.4c0.2-3-3.4-4.1-6.3-1.8c-2,1.5-4.7,4.7-6.9,6.5
			c-0.3,0.3-0.4,0.6-0.3,0.8C71.3,82.4,71.4,82.2,71.6,82.1z"/>
		<path class="st9" d="M57.5,96c0.1-0.3,0.5-0.2,0.5,0.2c0.8,4,4.2,6.7,8.2,6.7c5.6,0,11.4-4.8,16.1-11.2c3.3-4.5,6-9.5,8.5-14.5
			c-0.2,0.4-0.5,0.8-0.8,1.2c-2.3,4.4-4.8,8.9-7.7,13c-4.7,6.4-10.6,11.2-16.1,11.2c-4,0-7.5-2.7-8.2-6.7
			C57.9,95.4,57.4,95.3,57.5,96C57.5,95.9,57.5,95.9,57.5,96z"/>
	</g>
	<g>
		<path class="st9" d="M47.5,81.7c-1.9,1-4.1,1.5-5,1.5c-0.8,0-1,0.3-0.5,0.4c0.1,0,0.3,0,0.5,0c0.9,0,3.2-0.5,5-1.5
			c2.2-1.2,2.9-2.5,2.8-3.4C50.3,79.6,49.4,80.7,47.5,81.7z"/>
		<path class="st9" d="M55.5,82.5c-1,2.7-1.6,5.2-1.6,7.3c0-2.1,0.7-4.7,1.8-7.5C55.7,82.4,55.6,82.4,55.5,82.5z"/>
		<path class="st9" d="M39.6,87c-0.1,1.7,0.8,3,2.7,2.9c3,0,7.9-3.6,10.9-6.2c0.1-0.1,0.2-0.2,0.3-0.3c1.1-1,2-2.2,3.3-3.7
			c3.6-7.9,7.7-14,14-19.8c6.2-5.7,11.5-4.9,11.6-1.2c0.2-4-5.2-5.1-11.6,0.8c-6.3,5.8-10.4,11.9-14,19.8c-1.2,1.5-2.1,2.7-3.3,3.7
			c-0.1,0.1-0.2,0.2-0.3,0.3c-3.1,2.6-7.9,6.2-10.9,6.2C40.6,89.6,39.7,88.5,39.6,87z"/>
		<path class="st9" d="M67.4,71.8c-0.6,0.2-0.7,0.5-0.5,0.7c0.1-0.1,0.2-0.2,0.5-0.3c3.3-1.5,8.1-5,10.7-7.6c2.3-2.4,3.2-4.1,3-4.9
			c-0.1,0.9-1.1,2.5-3,4.6C75.5,66.9,70.7,70.3,67.4,71.8z"/>
		<path class="st9" d="M66.8,80.8c1.4-1.1,2-2.3,1.9-3.3c-0.1,0.9-0.7,2-1.9,3c-2,1.5-6,2.7-7.3,2l-0.3-0.2
			c-0.1-0.2-0.2-0.4-0.3-0.6c0,0-0.1,0.1-0.1,0.1c0.1,0.3,0.3,0.5,0.4,0.8l0.3,0.2C60.8,83.5,64.8,82.3,66.8,80.8z"/>
		<path class="st9" d="M71,86.5c0,0.9-0.9,1.5-1.9,1.7c-2.3,0.3-6.6-2.1-9-4.8c-0.2,0-0.3-0.1-0.4-0.1c2.3,2.9,7,5.7,9.4,5.3
			c1-0.2,1.9-0.8,1.9-1.6c0-0.1,0.2-0.2,0.2-0.1c0-0.1,0-0.2,0-0.3H71L71,86.5z"/>
		<path class="st9" d="M47.8,75.7c2.6,0.1,3.9,1.1,4,2.5c0.1-1.5-1.2-2.7-4-2.8c-5.9-0.2-13,4.9-13,11.2c0,0,0,0,0,0.1
			C35.1,80.4,42,75.5,47.8,75.7z"/>
		<path class="st9" d="M66.8,73.9c-2,0.8-4.2,2.4-6.6,5.2c-0.4,0.6-0.8,1.2-1.1,1.7c2.8-3.7,5.4-5.6,7.7-6.6
			c3.2-1.2,5.6-0.2,5.7,1.8C72.6,73.8,70.1,72.6,66.8,73.9z"/>
		<path class="st9" d="M55.5,91.2c0,1.3,0.2,2.3,0.7,2.8c0.1-0.1,0.1-0.2,0-0.3C55.8,93.1,55.6,92.3,55.5,91.2z"/>
	</g>
	<g>
		<path class="st9" d="M32.2,75c0.1-0.1,0.2-0.2,0.3-0.2c0.6-0.1,1.8,0.2,2.2,1.9c0.1,0.4,0.1,0.8,0.1,1.3c0-0.6,0-1.2-0.1-1.7
			c-0.4-1.7-1.5-1.9-2.2-1.9C32.3,74.6,31.9,74.9,32.2,75z"/>
		<path class="st9" d="M0,95.9c0.1-0.2,0.5-0.1,0.5,0.2c0.8,4,4.2,6.7,8.2,6.7c5,0,12.3-6.1,17.1-12.8c1.2-1.7,4.4-6.4,6.1-10.1
			c-0.1,0.2-0.2,0.3-0.4,0.5c-1.7,3.5-4.6,7.7-5.7,9.2c-4.9,6.7-12.2,12.8-17.2,12.8c-4,0-7.4-2.7-8.2-6.7C0.5,95.3-0.1,95.2,0,95.9
			C0,95.8,0,95.9,0,95.9z"/>
		<path class="st9" d="M28.7,82.1c1.1-0.8,3.8-3.4,4.2-5.6c0-0.1,0-0.2,0-0.2c-0.4,2.2-3.1,4.6-4.1,5.4C28.6,81.8,28.6,82,28.7,82.1
			C28.7,82.1,28.7,82.1,28.7,82.1z"/>
	</g>
	<path class="st9" d="M35.2,69.7c1-1.1,2.4-1.5,3.2-0.8c0.3,0.2,0.5,0.6,0.5,1c0-0.5-0.1-1-0.5-1.4c-0.8-0.6-2.3-0.3-3.2,0.8
		c-0.6,0.7-0.9,1.5-0.9,2.2C34.4,70.9,34.7,70.3,35.2,69.7z"/>
</g>
<rect x="0" class="st10" width="150" height="150"/>
</svg>
