<?xml version="1.0" encoding="utf-8"?>
<!-- Generator: Adobe Illustrator 23.0.6, SVG Export Plug-In . SVG Version: 6.00 Build 0)  -->
<svg version="1.1" id="Capa_1" xmlns="http://www.w3.org/2000/svg" xmlns:xlink="http://www.w3.org/1999/xlink" x="0px" y="0px"
	 viewBox="0 0 150 150" style="enable-background:new 0 0 150 150;" xml:space="preserve">
<style type="text/css">
	.st0{fill:#261300;}
	.st1{fill:#FF7C00;}
	.st2{fill:none;}
</style>
<g>
	<path class="st0" d="M6.2,8.1h137.5v133.7H6.2V8.1z"/>
	<path class="st1" d="M0,1.9v146.2h150V1.9H0z M6.2,8.1h137.5v133.7H6.2V8.1z"/>
	<path class="st1" d="M52,84.7l-5,18.8c-0.1,0.5-0.3,0.6-0.9,0.6H37c-0.6,0-0.8-0.2-0.6-0.9L54.1,41c0.3-1.1,0.5-2.1,0.6-5.2
		c0-0.5,0.2-0.6,0.5-0.6h13.1c0.4,0,0.6,0.1,0.8,0.6L89,103.3c0.1,0.5,0,0.8-0.5,0.8H78.1c-0.5,0-0.8-0.1-0.9-0.6L72,84.7H52
		L52,84.7z M69.4,74.6c-1.7-6.9-5.9-22-7.4-29.4h-0.1c-1.3,7.3-4.6,19.7-7.3,29.4H69.4z M97.6,39.8c0-4,2.8-6.4,6.4-6.4
		c3.8,0,6.4,2.6,6.4,6.4c0,4.1-2.7,6.4-6.5,6.4C100.2,46.2,97.6,44,97.6,39.8L97.6,39.8z M98.3,54c0-0.5,0.2-0.8,0.8-0.8h9.8
		c0.5,0,0.8,0.2,0.8,0.8v49.3c0,0.5-0.1,0.8-0.8,0.8h-9.7c-0.6,0-0.8-0.3-0.8-0.8L98.3,54L98.3,54z"/>
</g>
<rect class="st2" width="150" height="150"/>
</svg>
