<?xml version="1.0" encoding="utf-8"?>
<!-- Generator: Adobe Illustrator 23.0.6, SVG Export Plug-In . SVG Version: 6.00 Build 0)  -->
<svg version="1.1" id="Layer_1" xmlns="http://www.w3.org/2000/svg" xmlns:xlink="http://www.w3.org/1999/xlink" x="0px" y="0px"
	 viewBox="0 0 150 150" style="enable-background:new 0 0 150 150;" xml:space="preserve">
<style type="text/css">
	.st0{fill:#DD0031;}
	.st1{fill:#C3002F;}
	.st2{fill:#FFFFFF;}
	.st3{fill:none;}
</style>
<g>
	<polygon class="st0" points="75,0 75,0 75,0 5.2,24.9 15.8,117.2 75,150 75,150 75,150 134.2,117.2 144.8,24.9 	"/>
	<polygon class="st1" points="75,0 75,16.6 75,16.6 75,92.6 75,92.6 75,150 75,150 134.2,117.2 144.8,24.9 	"/>
	<path class="st2" d="M75,16.6l-43.6,97.9l0,0h16.3l0,0l8.8-21.9h37l8.8,21.9l0,0h16.3l0,0L75,16.6L75,16.6L75,16.6L75,16.6L75,16.6
		z M87.8,79.1H62.2L75,48.4L87.8,79.1z"/>
</g>
<rect class="st3" width="150" height="150"/>
</svg>
