<?xml version="1.0" encoding="utf-8"?>
<!-- Generator: Adobe Illustrator 23.0.6, SVG Export Plug-In . SVG Version: 6.00 Build 0)  -->
<svg version="1.1" id="Calque_1" xmlns="http://www.w3.org/2000/svg" xmlns:xlink="http://www.w3.org/1999/xlink" x="0px" y="0px"
	 viewBox="0 0 150 150" style="enable-background:new 0 0 150 150;" xml:space="preserve">
<style type="text/css">
	.st0{fill:#E44D26;}
	.st1{fill:#F16529;}
	.st2{fill:#EBEBEB;}
	.st3{fill:#FFFFFF;}
	.st4{fill:none;}
</style>
<title>HTML5 Logo</title>
<path d="M31.5,0h6.8v6.7h6.2V0h6.8v20.2h-6.8v-6.8h-6.2v6.8h-6.8 M60.1,6.8h-5.9V0h18.7v6.8h-6v13.5h-6.8 M75.7,0h7.1l4.3,7.1
	L91.5,0h7v20.2h-6.8v-10l-4.7,7.3l-4.7-7.3v10h-6.6 M101.8,0h6.8v13.5h9.5v6.7h-16.3"/>
<path class="st0" d="M31.2,138L21.6,29.5h106.3l-9.7,108.5L74.6,150"/>
<path class="st1" d="M74.7,140.8V38.4h43.4l-8.3,92.6"/>
<path class="st2" d="M41.3,51.7h33.4v13.3H55.9l1.2,13.6h17.6v13.3H44.9 M45.5,98.5h13.4l0.9,10.6l14.9,4V127l-27.3-7.6"/>
<path class="st3" d="M108,51.7H74.6v13.3h32.1 M105.5,78.6H74.6v13.3h16.4l-1.6,17.3l-14.8,4V127l27.2-7.6"/>
<rect class="st4" width="150" height="150"/>
</svg>
