<?xml version="1.0" encoding="utf-8"?>
<!-- Generator: Adobe Illustrator 23.0.6, SVG Export Plug-In . SVG Version: 6.00 Build 0)  -->
<svg version="1.1"
	 id="svg3059" xmlns:cc="http://creativecommons.org/ns#" xmlns:dc="http://purl.org/dc/elements/1.1/" xmlns:rdf="http://www.w3.org/1999/02/22-rdf-syntax-ns#" xmlns:svg="http://www.w3.org/2000/svg"
	 xmlns="http://www.w3.org/2000/svg" xmlns:xlink="http://www.w3.org/1999/xlink" x="0px" y="0px" viewBox="0 0 150 150"
	 style="enable-background:new 0 0 150 150;" xml:space="preserve">
<style type="text/css">
	.st0{fill:url(#path19_1_);}
	.st1{fill:#F6F6F6;}
	.st2{fill:#404040;}
	.st3{fill:none;}
</style>
<g id="layer1" transform="translate(130.53125,-317.84375)">
	
		<linearGradient id="path19_1_" gradientUnits="userSpaceOnUse" x1="-205.2447" y1="-357.0358" x2="-205.2447" y2="-423.1858" gradientTransform="matrix(1 0 0 -1 150.243 2.7349)">
		<stop  offset="0.1497" style="stop-color:#2A4F84"/>
		<stop  offset="0.3884" style="stop-color:#294E82"/>
		<stop  offset="1" style="stop-color:#172E4E"/>
	</linearGradient>
	<path id="path19" class="st0" d="M11.3,413.2c0,7-5.7,12.8-12.7,12.8h-107.2c-7,0-12.7-5.7-12.7-12.8v-40.6c0-7,5.7-12.8,12.7-12.8
		H-1.4c7,0,12.7,5.7,12.7,12.8V413.2z"/>
	<path id="path21" class="st1" d="M-11.1,392c5.6,1.9,8.4,5.3,8.4,10.1c0,3.1-1.2,5.6-3.5,7.4s-5.6,3-9.9,3c-4.3,0-8.3-1.3-11.9-3.3
		c0-1.1,0.3-2.3,0.8-3.6c0.5-1.3,1.1-2.3,1.9-3.1c3.4,1.7,6.3,2.6,8.8,2.6c1.2,0,2.1-0.2,2.7-0.6c0.6-0.4,1-0.9,1-1.6
		c0-1.3-1-2.2-2.9-2.8l-3.5-1.3c-5.2-1.9-7.9-5-7.9-9.4c0-3.2,1.1-5.7,3.3-7.5c2.2-1.9,5.2-3.5,8.9-3.5c1.9,0,3.9,0.3,6.1,0.8
		c2.2,0.5,4,1.8,5.5,2.5c0.1,1.2-0.1,2.5-0.7,3.8c-0.5,1.4-1.2,2.4-2,3c-3.5-1.6-6.5-2.4-8.8-2.4c-0.8,0-1.5,0.2-1.9,0.6
		c-0.4,0.4-0.7,0.8-0.7,1.4c0,1,0.8,1.8,2.4,2.4L-11.1,392L-11.1,392z"/>
	<path id="path23" class="st1" d="M-39,392c5.6,1.9,8.4,5.3,8.4,10.1c0,3.1-1.2,5.6-3.5,7.4c-2.3,1.8-5.6,3-9.9,3
		c-4.3,0-8.3-1.3-11.9-3.3c0-1.1,0.3-2.3,0.8-3.6c0.5-1.3,1.1-2.3,1.9-3.1c3.4,1.7,6.3,2.6,8.8,2.6c1.2,0,2.1-0.2,2.7-0.6
		s1-0.9,1-1.6c0-1.3-1-2.2-2.9-2.8l-3.5-1.3c-5.3-1.9-7.9-5-7.9-9.4c0-3.2,1.1-5.7,3.3-7.5c2.2-1.9,5.2-3.5,8.9-3.5
		c1.9,0,3.9,0.3,6.1,0.8c2.2,0.5,4,1.8,5.5,2.5c0.1,1.2-0.1,2.5-0.7,3.8c-0.5,1.4-1.2,2.4-2,3c-3.5-1.6-6.5-2.4-8.8-2.4
		c-0.8,0-1.5,0.2-1.9,0.6c-0.4,0.4-0.7,0.8-0.7,1.4c0,1,0.8,1.8,2.4,2.4L-39,392L-39,392z"/>
	<path id="path25" class="st1" d="M-59.5,392.4c0-1.9-0.3-3.7-0.9-5.3c-0.6-1.6-1.5-3-2.6-4.2c-1.1-1.2-2.5-2.1-4.1-2.8
		s-3.4-1.7-5.5-1.7c-2.4,0-4.5,1.1-6.3,1.9c-1.8,0.8-3.3,2-4.4,3.4c-1.2,1.5-2,3.2-2.6,5.2s-0.8,4.1-0.8,6.5c0,2.4,0.2,4.6,0.7,6.7
		c0.4,2,1.3,3.8,2.4,5.3c1.1,1.5,2.6,2.7,4.3,3.5c1.8,0.8,4,1.5,6.7,1.5c4.9,0,9-1.4,12.4-3.8c-0.3-2.4-1.2-4.4-2.6-5.8
		c-1.7,0.7-3.2,1.1-4.6,1.4c-1.3,0.3-2.5,0.4-3.5,0.4c-2,0-3.4-0.5-4.3-1.6c-0.9-1-1.3-2.2-1.4-4.1h16.4
		C-59.7,397.3-59.5,395-59.5,392.4z M-76.8,392.9c0.1-2.1,0.5-4.4,1.2-5.3s1.6-1.4,3-1.4c1.4,0,2.4,0.5,3.1,1.5s1,3,1,4.6v0.7H-76.8
		L-76.8,392.9L-76.8,392.9z"/>
	<g>
		<path id="path27_1_" class="st1" d="M14.7,397c-1.8,1.6-2.8,3.8-2.8,6.8v10.9c0,3.6-1.1,6.4-3.6,8.3c-2.5,1.9-5.5,2.9-8.8,2.9h-2
			v-5.5c1.7-0.5,2.5-1.1,3.2-1.8c1.3-1.1,2.2-3,2.2-5.6v-8.8c0.1-3,0.3-5.3,1.4-7c1.1-1.7,3.2-3.2,6.4-4.5c-3.5-1.6-5.8-3.7-7-6.3
			c-0.7-1.5-0.7-3.6-0.7-6.2v-8.1c0-2.7-0.9-4.6-1.9-5.6c-0.7-0.7-1.5-1.3-3.4-1.7v-5.1c2.4,0,3.6,0,4.9,0c2.1,0,3.9,1.1,5.5,2.3
			c1.7,1.3,2.9,3.1,3.6,5.4c0.4,1.3,0.4,2.5,0.4,3.8v9.3c0,3.3,1,5.8,2.6,7.4c0.9,0.9,2.3,1.8,4.6,2.6v4.2
			C17,395.3,15.7,396.1,14.7,397L14.7,397z"/>
		<path class="st2" d="M-0.6,426.3l-2.4,0v-6.1l0.3-0.1c1.7-0.5,2.3-1.1,3-1.7c1.3-1.2,2.1-3.1,2.1-5.3v-8.8
			c0.1-3.2,0.3-5.5,1.4-7.3c1-1.6,2.9-3,5.8-4.3c-3.1-1.6-5.3-3.6-6.4-6.1c-0.7-1.6-0.7-3.8-0.7-6.4v-8.1c0-3.1-1.1-4.6-1.8-5.3
			c-0.7-0.7-1.5-1.2-3.2-1.6l-0.3-0.1v-5.9h0.4c1.6,0,2.6,0,3.5,0c0.5,0,0.9,0,1.4,0c2.2,0,4.1,1.2,5.7,2.4c1.7,1.4,3,3.2,3.7,5.6
			c0.4,1.4,0.5,2.7,0.5,3.9v9.4c0,3,0.9,5.5,2.5,7.1c1,1,2.4,1.8,4.4,2.5l0.3,0.1v4.8l-0.3,0.1c-1.8,0.5-3,1.1-4.2,2.2l0,0
			c-1.8,1.6-2.7,3.7-2.7,6.5v10.9c0,3.9-1.2,6.7-3.8,8.6C5.9,425.2,2.9,426.2-0.6,426.3z M-2.2,425.5h1.6c3.3-0.1,6.1-1,8.6-2.9
			c2.3-1.8,3.5-4.4,3.5-8v-10.9c0-3,1-5.3,3-7.1c1.2-1,2.5-1.8,4.2-2.3v-3.6c-1.9-0.7-3.4-1.5-4.4-2.6c-1.8-1.7-2.8-4.4-2.8-7.6
			v-9.4c0-1.1-0.1-2.4-0.4-3.6c-0.7-2.2-1.8-3.9-3.4-5.2c-1.5-1.2-3.2-2.3-5.2-2.3c-0.1,0-0.1,0-0.2,0c-0.4,0-0.8,0-1.2,0
			c-0.8,0-1.8,0-3.1,0v4.4c1.8,0.4,2.6,1,3.3,1.7c0.8,0.8,2.1,2.5,2.1,5.9v8.1c0,2.4,0,4.6,0.7,6c1.1,2.5,3.4,4.5,6.9,6.1l0.8,0.4
			l-0.9,0.4c-3.1,1.3-5.2,2.7-6.2,4.3c-1,1.6-1.3,3.8-1.3,6.8v8.8c0,2.4-0.8,4.5-2.4,5.9c-0.7,0.6-1.4,1.3-3,1.8L-2.2,425.5
			L-2.2,425.5z"/>
	</g>
	<g>
		<path id="path29_1_" class="st1" d="M-111,359.8L-111,359.8c-0.7,0-1.3,0-1.8,0c-2.1,0-3.9,1.1-5.5,2.3c-1.7,1.3-3.1,3.1-3.6,5.4
			c-0.3,1.4-0.2,2.5-0.2,3.8v9.4c0,3.3-1.2,5.8-2.9,7.4c-0.9,0.9-2.9,1.8-5.2,2.6v4.2c2,0.6,4,1.3,5,2.3c1.8,1.6,3.1,3.8,3.1,6.8
			v10.9c0,3.6,0.9,6.4,3.4,8.3c2.5,1.9,5.5,2.9,8.8,2.9h2.2v-5.5c-1.7-0.5-2.7-1.1-3.4-1.8c-1.3-1.1-2-3-2-5.6v-8.8
			c-0.1-3-0.5-5.3-1.6-7c-1.1-1.7-3.2-3.2-6.4-4.5c3.5-1.6,5.8-3.7,7-6.3c0.7-1.5,1-3.6,1-6.2v-8.1c0-2.7,0.6-4.6,1.7-5.6
			c0.6-0.6,1.6-1,3.1-1.4l2.3,0c0-2,0-3.2,0-5.4L-111,359.8L-111,359.8L-111,359.8L-111,359.8z"/>
		<path class="st2" d="M-109.8,426.3c-3.5-0.1-6.5-1.1-9.1-3c-2.5-1.9-3.5-4.5-3.5-8.6v-10.9c0-3.2-1.6-5.3-2.9-6.4
			c-0.9-0.8-2.6-1.6-4.9-2.2l-0.3-0.1v-4.8l0.3-0.1c2.6-0.9,4.3-1.7,5.1-2.5c1.3-1.2,2.8-3.4,2.8-7.1v-9.4c0-0.2,0-0.4,0-0.5
			c0-1,0-2.1,0.2-3.3c0.4-2.1,1.6-4,3.7-5.6c1.5-1.2,3.4-2.4,5.6-2.4c0,0,0,0,0.1,0c0.4,0,1,0,1.6,0l0,0h5.7v6.2l-2.6,0
			c-1.4,0.4-2.3,0.8-2.8,1.3c-1,1-1.6,2.9-1.6,5.3v8.1c0,2.9-0.3,4.9-1,6.4c-1.1,2.5-3.3,4.5-6.4,6.1c2.8,1.2,4.7,2.7,5.8,4.3
			c1.1,1.7,1.6,4,1.7,7.3v8.8c0,2.4,0.6,4.2,1.8,5.3c0.8,0.7,1.8,1.3,3.3,1.7l0.3,0.1v6.1L-109.8,426.3z M-129.7,394.5
			c2.3,0.7,4,1.4,4.9,2.3c1.5,1.3,3.2,3.5,3.2,7v10.9c0,3.8,1,6.3,3.2,8c2.4,1.8,5.2,2.8,8.6,2.8h1.8v-4.7c-1.5-0.4-2.5-1-3.3-1.8
			c-1.4-1.3-2.1-3.2-2.1-5.9v-8.8c-0.1-3-0.6-5.3-1.6-6.8c-1-1.6-3.1-3.1-6.2-4.3l-0.9-0.4l0.8-0.4c3.4-1.6,5.7-3.6,6.9-6.1
			c0.6-1.4,0.9-3.3,0.9-6v-8.1c0-2.7,0.6-4.7,1.8-5.9c0.6-0.6,1.7-1.1,3.2-1.6h0.1h1.9v-4.5h-4.2l0,0h-0.4c-0.7,0-1.3,0-1.8,0
			c-2,0-3.7,1.1-5.2,2.3c-1.9,1.5-3.1,3.2-3.4,5.1c-0.2,1.1-0.2,2.1-0.2,3.1c0,0.2,0,0.4,0,0.5v9.4c0,3.9-1.6,6.3-3,7.7
			c-0.8,0.8-2.5,1.6-5.1,2.5V394.5z"/>
	</g>
	<path id="path31" class="st1" d="M-90,404.1h-1.7c-1.9,0-2.5-1-2.5-2.9v-36c0-2.2-0.6-3.7-1.4-4.6c-0.8-0.9-2.2-0.9-4.2-0.9h-3.8
		h-0.4v0v5.4v37.8c0,3,0.7,5.2,1.9,6.6s3.2,2.1,6.1,2.1c2,0,4.2-0.2,6.7-0.6c0.1-0.4,0.2-1.3,0.2-2.7
		C-89.2,406.9-89.5,405.5-90,404.1L-90,404.1z"/>
</g>
<rect class="st3" width="150" height="150"/>
</svg>
