<?xml version="1.0" encoding="utf-8"?>
<!-- Generator: Adobe Illustrator 23.0.6, SVG Export Plug-In . SVG Version: 6.00 Build 0)  -->
<svg version="1.1" id="Layer_1" xmlns="http://www.w3.org/2000/svg" xmlns:xlink="http://www.w3.org/1999/xlink" x="0px" y="0px"
	 viewBox="0 0 150 149.9" style="enable-background:new 0 0 150 149.9;" xml:space="preserve">
<style type="text/css">
	.st0{fill:#CD6799;}
	.st1{fill:none;}
</style>
<path class="st0" d="M129.2,83.4c-5.2,0-9.8,1.3-13.6,3.2c-1.4-2.8-2.8-5.2-3-7.1c-0.3-2.1-0.6-3.4-0.3-5.9c0.3-2.5,1.8-6.1,1.8-6.4
	c0-0.3-0.3-1.6-3.3-1.6c-3,0-5.6,0.6-5.9,1.4c-0.3,0.8-0.9,2.6-1.3,4.5c-0.5,2.7-6,12.5-9.2,17.6c-1-2-1.9-3.8-2.1-5.2
	C92,81.8,91.7,80.5,92,78c0.3-2.5,1.8-6.1,1.8-6.4c0-0.3-0.3-1.6-3.3-1.6c-3,0-5.6,0.6-5.9,1.4c-0.3,0.8-0.6,2.7-1.3,4.5
	c-0.6,1.8-8,18.2-9.9,22.4c-1,2.2-1.8,3.9-2.4,5.1l0,0c0,0,0,0.1-0.1,0.2c-0.5,1-0.8,1.6-0.8,1.6s0,0,0,0c-0.4,0.8-0.8,1.4-1.1,1.4
	c-0.2,0-0.5-2,0.1-4.7c1.1-5.7,3.7-14.5,3.7-14.8c0-0.2,0.5-1.7-1.7-2.5c-2.1-0.8-2.9,0.5-3.1,0.5c-0.2,0-0.3,0.5-0.3,0.5
	s2.4-9.9-4.6-9.9c-4.3,0-10.3,4.7-13.3,9c-1.9,1-5.9,3.2-10.1,5.5c-1.6,0.9-3.3,1.8-4.9,2.7c-0.1-0.1-0.2-0.2-0.3-0.4
	c-8.4-9-23.9-15.3-23.2-27.3C11.5,60.7,13,49.2,41,35.3C64.1,23.9,82.5,27,85.7,34c4.6,10-9.8,28.5-33.7,31.2
	c-9.1,1-13.9-2.5-15.1-3.8C35.7,60,35.5,60,35,60.2c-0.8,0.4-0.3,1.7,0,2.4c0.7,1.9,3.6,5.2,8.6,6.8c4.4,1.4,15,2.2,28-2.8
	C86,61,97.3,45.5,94,32.5c-3.3-13.2-25.2-17.6-46-10.2c-12.4,4.4-25.8,11.3-35.4,20.3C1.2,53.2-0.6,62.5,0.1,66.4
	c2.7,13.8,21.7,22.8,29.3,29.5c-0.4,0.2-0.8,0.4-1.1,0.6c-3.8,1.9-18.3,9.5-21.9,17.5c-4.1,9.1,0.7,15.6,3.8,16.5
	c9.8,2.7,19.8-2.2,25.2-10.2s4.7-18.5,2.3-23.3c0-0.1-0.1-0.1-0.1-0.2c1-0.6,2-1.2,3-1.7c2-1.1,3.9-2.2,5.5-3.1
	c-0.9,2.6-1.6,5.6-2,10c-0.4,5.2,1.7,11.9,4.5,14.5c1.2,1.1,2.7,1.2,3.6,1.2c3.2,0,4.7-2.7,6.3-5.9c2-3.9,3.8-8.4,3.8-8.4
	s-2.2,12.2,3.8,12.2c2.2,0,4.4-2.9,5.4-4.3c0,0,0,0,0,0s0.1-0.1,0.2-0.3c0.2-0.4,0.4-0.6,0.4-0.6s0,0,0-0.1c0.9-1.5,2.9-5,5.8-10.8
	c3.8-7.4,7.4-16.8,7.4-16.8s0.3,2.3,1.4,6.1c0.7,2.2,2,4.7,3.1,7c-0.9,1.2-1.4,1.9-1.4,1.9s0,0,0,0c-0.7,0.9-1.5,2-2.3,2.9
	c-3,3.6-6.5,7.7-7.1,8.8c-0.6,1.4-0.5,2.4,0.7,3.2c0.8,0.6,2.2,0.7,3.7,0.6c2.7-0.2,4.6-0.8,5.5-1.3c1.4-0.5,3.2-1.3,4.7-2.5
	c2.9-2.2,4.7-5.3,4.6-9.3c-0.1-2.3-0.8-4.5-1.7-6.6c0.3-0.4,0.5-0.8,0.8-1.1c4.6-6.8,8.2-14.2,8.2-14.2s0.3,2.3,1.4,6.1
	c0.5,1.9,1.7,4,2.7,6c-4.4,3.5-7.1,7.7-8,10.3c-1.7,5-0.4,7.2,2.2,7.7c1.1,0.2,2.8-0.3,4-0.8c1.5-0.5,3.3-1.4,5.1-2.6
	c2.9-2.2,5.8-5.2,5.6-9.3c-0.1-1.9-0.6-3.7-1.3-5.5c3.7-1.5,8.5-2.4,14.6-1.7c13.1,1.5,15.6,9.7,15.1,13.1c-0.5,3.4-3.2,5.3-4.1,5.9
	c-0.9,0.6-1.2,0.8-1.1,1.2c0.1,0.6,0.5,0.6,1.3,0.5c1.1-0.2,6.8-2.8,7.1-9.1C150.4,92.1,142.7,83.3,129.2,83.4z M28.6,117.3
	c-4.3,4.7-10.4,6.5-13,5c-2.8-1.6-1.7-8.6,3.6-13.6c3.2-3,7.4-5.9,10.2-7.6c0.6-0.4,1.6-0.9,2.7-1.6c0.2-0.1,0.3-0.2,0.3-0.2l0,0
	c0.2-0.2,0.5-0.3,0.7-0.4C35,106.1,33.1,112.3,28.6,117.3z M60.1,95.9c-1.5,3.7-4.7,13.1-6.6,12.5c-1.7-0.5-2.7-7.6-0.3-14.6
	c1.2-3.5,3.7-7.7,5.1-9.4c2.4-2.6,5-3.5,5.6-2.4C64.7,83.4,61,93.6,60.1,95.9z M86.1,108.3c-0.6,0.3-1.2,0.5-1.5,0.4
	c-0.2-0.1,0.3-0.5,0.3-0.5s3.3-3.5,4.6-5.1c0.8-0.9,1.6-2,2.6-3.3c0,0.1,0,0.2,0,0.4C91.9,104.3,87.9,107.2,86.1,108.3z
	 M106.1,103.7c-0.5-0.3-0.4-1.4,1.2-4.9c0.6-1.4,2-3.6,4.5-5.8c0.3,0.9,0.5,1.7,0.5,2.5C112.2,100.9,108.4,102.9,106.1,103.7z"/>
<rect x="0.1" class="st1" width="149.9" height="149.9"/>
</svg>
