<?xml version="1.0" encoding="utf-8"?>
<!-- Generator: Adobe Illustrator 23.0.6, SVG Export Plug-In . SVG Version: 6.00 Build 0)  -->
<svg version="1.1" id="Calque_1" xmlns="http://www.w3.org/2000/svg" xmlns:xlink="http://www.w3.org/1999/xlink" x="0px" y="0px"
	 viewBox="0 0 150 150" style="enable-background:new 0 0 150 150;" xml:space="preserve">
<style type="text/css">
	.st0{fill:#DC395F;}
	.st1{fill:#FFFFFF;}
	.st2{fill:none;}
</style>
<g>
	<path class="st0" d="M136.4,0H13.6C6.1,0,0,6.1,0,13.6v122.8c0,7.5,6.1,13.6,13.6,13.6h122.8c7.5,0,13.6-6.1,13.6-13.6V13.6
		C150,6.1,143.9,0,136.4,0"/>
	<path class="st1" d="M50.1,47.2c5,0,9.2-3.9,9.2-9s-4.2-9-9.2-9S41,33,41,38.2S45.2,47.2,50.1,47.2 M31.1,95.6
		c-0.5,2.3-0.8,4.8-0.8,6.8c0,7.9,4.3,13.2,13.5,13.2c7.6,0,13.8-4.5,18.2-11.8l-2.7,10.9h15.1L83,80c2.2-8.8,6.3-13.3,12.7-13.3
		c5,0,8.1,3.1,8.1,8.2c0,1.5-0.1,3.1-0.7,4.9l-4.4,15.9c-0.7,2.3-0.9,4.6-0.9,6.8c0,7.6,4.4,13.1,13.7,13.1
		c7.9,0,14.3-5.1,17.8-17.4l-5.9-2.3c-3,8.2-5.5,9.7-7.6,9.7c-2,0-3.1-1.3-3.1-4c0-1.2,0.3-2.6,0.7-4.2l4.3-15.5
		c1.1-3.6,1.5-6.9,1.5-9.8c0-11.6-7-17.6-15.5-17.6c-7.9,0-16,7.2-20.1,14.7l3-13.6h-23l-3.2,11.9H71l-6.6,26.6
		c-5.2,11.6-14.8,11.8-16,11.5c-2-0.5-3.2-1.2-3.2-3.8c0-1.5,0.3-3.6,0.9-6.2l10.1-40.1H30.6l-3.2,11.9H38L31.1,95.6"/>
</g>
<rect class="st2" width="150" height="150"/>
</svg>
