<?xml version="1.0" encoding="utf-8"?>
<!-- Generator: Adobe Illustrator 24.1.0, SVG Export Plug-In . SVG Version: 6.00 Build 0)  -->
<svg version="1.1" id="Calque_1" focusable="false" xmlns="http://www.w3.org/2000/svg" xmlns:xlink="http://www.w3.org/1999/xlink"
	 x="0px" y="0px" viewBox="0 0 640 448" style="enable-background:new 0 0 640 448;" xml:space="preserve">
<style type="text/css">
	.st0{fill:#FFFFFF;}
</style>
<path class="st0" d="M537.6,194.6c4.1-10.7,6.4-22.4,6.4-34.6c0-53-43-96-96-96c-19.7,0-38.1,6-53.3,16.2C367,32.2,315.3,0,256,0
	C167.6,0,96,71.6,96,160c0,2.7,0.1,5.4,0.2,8.1C40.2,187.8,0,241.2,0,304c0,79.5,64.5,144,144,144h368c70.7,0,128-57.3,128-128
	C640,258.1,596,206.4,537.6,194.6z M404.7,283.3L299.3,388.7c-6.2,6.2-16.4,6.2-22.6,0L171.3,283.3c-10.1-10.1-2.9-27.3,11.3-27.3
	H248V144c0-8.8,7.2-16,16-16h48c8.8,0,16,7.2,16,16v112h65.4C407.6,256,414.8,273.2,404.7,283.3z"/>
</svg>
